<svg width="24" height="24" viewBox="0 0 24 24" fill="none" xmlns="http://www.w3.org/2000/svg">
<path d="M7.74999 4C7.74999 3.80109 7.67097 3.61032 7.53032 3.46967C7.38967 3.32902 7.1989 3.25 6.99999 3.25C6.80108 3.25 6.61031 3.32902 6.46966 3.46967C6.32901 3.61032 6.24999 3.80109 6.24999 4V5.816C5.52045 5.91945 4.8448 6.25882 4.32622 6.78228C3.80764 7.30573 3.47461 7.98452 3.37799 8.715L3.29099 9.368C3.27632 9.478 3.26232 9.58867 3.24899 9.7C3.24092 9.76928 3.24765 9.83948 3.26873 9.90597C3.2898 9.97245 3.32474 10.0337 3.37124 10.0857C3.41774 10.1377 3.47475 10.1792 3.53848 10.2075C3.60222 10.2359 3.67124 10.2503 3.74099 10.25H20.26C20.3297 10.2503 20.3988 10.2359 20.4625 10.2075C20.5262 10.1792 20.5832 10.1377 20.6297 10.0857C20.6762 10.0337 20.7112 9.97245 20.7323 9.90597C20.7533 9.83948 20.7601 9.76928 20.752 9.7L20.71 9.368L20.623 8.715C20.5264 7.98452 20.1933 7.30573 19.6748 6.78228C19.1562 6.25882 18.4805 5.91945 17.751 5.816V4C17.751 3.80109 17.672 3.61032 17.5313 3.46967C17.3907 3.32902 17.1999 3.25 17.001 3.25C16.8021 3.25 16.6113 3.32902 16.4707 3.46967C16.33 3.61032 16.251 3.80109 16.251 4V5.668C13.4232 5.41664 10.5787 5.41664 7.75099 5.668L7.74999 4ZM20.945 12.226C20.9403 12.0978 20.8859 11.9764 20.7934 11.8876C20.7008 11.7987 20.5773 11.7494 20.449 11.75H3.55099C3.42269 11.7494 3.29918 11.7987 3.20661 11.8876C3.11404 11.9764 3.05966 12.0978 3.05499 12.226C2.99586 14.0357 3.10634 15.8469 3.38499 17.636C3.48769 18.2951 3.80644 18.9015 4.29117 19.3598C4.7759 19.8181 5.39914 20.1024 6.06299 20.168L7.25599 20.286C10.411 20.596 13.589 20.596 16.744 20.286L17.937 20.168C18.6008 20.1024 19.2241 19.8181 19.7088 19.3598C20.1935 18.9015 20.5123 18.2951 20.615 17.636C20.8936 15.8469 21.0041 14.0357 20.945 12.226Z" fill="#3396D3"/>
</svg>
