<svg width="24" height="24" viewBox="0 0 24 24" fill="none" xmlns="http://www.w3.org/2000/svg">
<g clip-path="url(#clip0_109_25)">
<path d="M21.26 12.8178H17.4431V10.9093H21.26V12.8178ZM21.26 13.9083H17.4431V15.8168H21.26V13.9083ZM21.26 4.91138H17.4431V6.8198H21.26V4.91138ZM21.26 7.91035H17.4431V9.81877H21.26V7.91035ZM21.26 16.9073H17.4431V18.8157H21.26V16.9073ZM23.8964 20.6696C23.7873 21.2367 23.1057 21.2503 22.6504 21.2694H14.1715V23.7231H12.4785L0 21.542V2.46042L12.5521 0.276611H14.1715V2.4495H22.3587C22.8195 2.46858 23.3266 2.43586 23.7273 2.71121C24.0082 3.11471 23.9809 3.62728 24 4.09074L23.9891 18.2841C23.9755 19.0774 24.0627 19.8872 23.8964 20.6696ZM9.99745 16.392C9.24502 14.8653 8.47894 13.3494 7.72917 11.8226C8.47073 10.3368 9.20142 8.8455 9.92934 7.35417C9.31045 7.38417 8.69156 7.42233 8.07544 7.46597C7.61466 8.58647 7.07756 9.67702 6.7177 10.8357C6.38236 9.74245 5.93798 8.69006 5.53177 7.62408C4.93195 7.6568 4.33214 7.69224 3.73238 7.72767C4.36486 9.12361 5.03831 10.5003 5.65172 11.9044C4.92923 13.2676 4.25311 14.6499 3.55242 16.0212C4.14947 16.0457 4.74656 16.0703 5.34361 16.0785C5.76895 14.9934 6.29784 13.9492 6.66863 12.8423C7.00125 14.031 7.56558 15.1297 8.02908 16.2666C8.68613 16.313 9.34041 16.3538 9.99745 16.392ZM22.6997 3.74433H14.1715V4.91138H16.3526V6.8198H14.1715V7.91035H16.3526V9.81877H14.1715V10.9093H16.3526V12.8178H14.1715V13.9083H16.3526V15.8168H14.1715V16.9073H16.3526V18.8157H14.1715V20.0765H22.6997V3.74433Z" fill="#3396D3"/>
</g>
<defs>
<clipPath id="clip0_109_25">
<rect width="24" height="24" fill="white"/>
</clipPath>
</defs>
</svg>
