<svg width="24" height="24" viewBox="0 0 24 24" fill="none" xmlns="http://www.w3.org/2000/svg">
<path d="M16 7.78999V16.21C16.0005 16.5424 15.9068 16.8682 15.7298 17.1495C15.5529 17.4309 15.2998 17.6565 15 17.8C14.6443 17.968 14.2485 18.0327 13.8577 17.9868C13.467 17.9408 13.097 17.786 12.79 17.54L7.68999 13.33C7.49936 13.1648 7.34648 12.9605 7.2417 12.731C7.13692 12.5016 7.08269 12.2523 7.08269 12C7.08269 11.7477 7.13692 11.4984 7.2417 11.2689C7.34648 11.0395 7.49936 10.8352 7.68999 10.67L12.79 6.45999C13.097 6.21398 13.467 6.05918 13.8577 6.01321C14.2485 5.96724 14.6443 6.03196 15 6.19999C15.2998 6.34353 15.5529 6.56905 15.7298 6.85044C15.9068 7.13183 16.0005 7.45758 16 7.78999Z" fill="#FAFAFA"/>
</svg>
