<svg width="24" height="24" viewBox="0 0 24 24" fill="none" xmlns="http://www.w3.org/2000/svg">
<path d="M8.00001 16.21V7.79001C7.99952 7.4576 8.09319 7.13184 8.27016 6.85045C8.44714 6.56907 8.70018 6.34355 9.00001 6.20001C9.35575 6.03198 9.75154 5.96726 10.1423 6.01323C10.533 6.05919 10.903 6.214 11.21 6.46001L16.31 10.67C16.5006 10.8352 16.6535 11.0395 16.7583 11.269C16.8631 11.4984 16.9173 11.7477 16.9173 12C16.9173 12.2523 16.8631 12.5016 16.7583 12.7311C16.6535 12.9605 16.5006 13.1648 16.31 13.33L11.21 17.54C10.903 17.786 10.533 17.9408 10.1423 17.9868C9.75154 18.0328 9.35575 17.968 9.00001 17.8C8.70018 17.6565 8.44714 17.4309 8.27016 17.1496C8.09319 16.8682 7.99952 16.5424 8.00001 16.21Z" fill="#FAFAFA"/>
</svg>
