<svg width="24" height="24" viewBox="0 0 24 24" fill="none" xmlns="http://www.w3.org/2000/svg">
<path d="M5.116 11.116C4.88224 11.3508 4.75101 11.6687 4.75101 12C4.75101 12.3314 4.88224 12.6492 5.116 12.884L10.116 17.884C10.2321 18.0001 10.3699 18.0922 10.5216 18.155C10.6733 18.2178 10.8358 18.2502 11 18.2502C11.3316 18.2502 11.6496 18.1185 11.884 17.884C12.1185 17.6496 12.2502 17.3316 12.2502 17C12.2502 16.6685 12.1185 16.3505 11.884 16.116L9.018 13.25H18C18.3315 13.25 18.6495 13.1183 18.8839 12.8839C19.1183 12.6495 19.25 12.3315 19.25 12C19.25 11.6685 19.1183 11.3506 18.8839 11.1161C18.6495 10.8817 18.3315 10.75 18 10.75H9.018L11.884 7.88402C12.0001 7.76793 12.0922 7.63011 12.155 7.47843C12.2178 7.32676 12.2502 7.16419 12.2502 7.00002C12.2502 6.83584 12.2178 6.67328 12.155 6.5216C12.0922 6.36992 12.0001 6.23211 11.884 6.11602C11.7679 5.99993 11.6301 5.90784 11.4784 5.84502C11.3267 5.78219 11.1642 5.74985 11 5.74985C10.8358 5.74985 10.6733 5.78219 10.5216 5.84502C10.3699 5.90784 10.2321 5.99993 10.116 6.11602L5.116 11.116Z" fill="#FAFAFA"/>
</svg>
