<svg width="24" height="24" viewBox="0 0 24 24" fill="none" xmlns="http://www.w3.org/2000/svg">
<path d="M12 2C10.1435 2 8.36301 2.7375 7.05026 4.05025C5.7375 5.36301 5.00001 7.14348 5.00001 9V12.528C5.00015 12.6831 4.9642 12.8362 4.89501 12.975L3.17801 16.408C3.09413 16.5757 3.05453 16.7621 3.06296 16.9494C3.07138 17.1368 3.12756 17.3188 3.22615 17.4783C3.32474 17.6379 3.46248 17.7695 3.62627 17.8608C3.79007 17.9521 3.97448 18 4.16201 18H19.838C20.0255 18 20.2099 17.9521 20.3737 17.8608C20.5375 17.7695 20.6753 17.6379 20.7739 17.4783C20.8725 17.3188 20.9286 17.1368 20.9371 16.9494C20.9455 16.7621 20.9059 16.5757 20.822 16.408L19.106 12.975C19.0365 12.8362 19.0002 12.6832 19 12.528V9C19 7.14348 18.2625 5.36301 16.9498 4.05025C15.637 2.7375 13.8565 2 12 2ZM12 21C11.3794 21.0003 10.7739 20.8081 10.267 20.4499C9.76017 20.0917 9.37689 19.5852 9.17001 19H14.83C14.6231 19.5852 14.2398 20.0917 13.733 20.4499C13.2261 20.8081 12.6207 21.0003 12 21Z" fill="#FAFAFA"/>
</svg>
