<svg width="53" height="58" viewBox="0 0 53 58" fill="none" xmlns="http://www.w3.org/2000/svg">
<g filter="url(#filter0_d_94_10)">
<rect x="4" width="45" height="50" rx="14" fill="#D0EDFF"/>
<path d="M19 33C18.45 33 17.9793 32.8043 17.588 32.413C17.1967 32.0217 17.0007 31.5507 17 31V19C17 18.45 17.196 17.9793 17.588 17.588C17.98 17.1967 18.4507 17.0007 19 17H25L27 19H35C35.55 19 36.021 19.196 36.413 19.588C36.805 19.98 37.0007 20.4507 37 21V31C37 31.55 36.8043 32.021 36.413 32.413C36.0217 32.805 35.5507 33.0007 35 33H19Z" fill="#3396D3"/>
</g>
<defs>
<filter id="filter0_d_94_10" x="0" y="0" width="53" height="58" filterUnits="userSpaceOnUse" color-interpolation-filters="sRGB">
<feFlood flood-opacity="0" result="BackgroundImageFix"/>
<feColorMatrix in="SourceAlpha" type="matrix" values="0 0 0 0 0 0 0 0 0 0 0 0 0 0 0 0 0 0 127 0" result="hardAlpha"/>
<feOffset dy="4"/>
<feGaussianBlur stdDeviation="2"/>
<feComposite in2="hardAlpha" operator="out"/>
<feColorMatrix type="matrix" values="0 0 0 0 0 0 0 0 0 0 0 0 0 0 0 0 0 0 0.07 0"/>
<feBlend mode="normal" in2="BackgroundImageFix" result="effect1_dropShadow_94_10"/>
<feBlend mode="normal" in="SourceGraphic" in2="effect1_dropShadow_94_10" result="shape"/>
</filter>
</defs>
</svg>
