<svg width="53" height="58" viewBox="0 0 53 58" fill="none" xmlns="http://www.w3.org/2000/svg">
<g filter="url(#filter0_d_94_20)">
<rect x="4" width="45" height="50" rx="14" fill="#FFE3E0"/>
<path d="M26.8 23.9C24.53 23.31 23.8 22.7 23.8 21.75C23.8 20.66 24.81 19.9 26.5 19.9C27.92 19.9 28.63 20.44 28.89 21.3C29.01 21.7 29.34 22 29.76 22H30.06C30.72 22 31.19 21.35 30.96 20.73C30.54 19.55 29.56 18.57 28 18.19V17.5C28 16.67 27.33 16 26.5 16C25.67 16 25 16.67 25 17.5V18.16C23.06 18.58 21.5 19.84 21.5 21.77C21.5 24.08 23.41 25.23 26.2 25.9C28.7 26.5 29.2 27.38 29.2 28.31C29.2 29 28.71 30.1 26.5 30.1C24.85 30.1 24 29.51 23.67 28.67C23.52 28.28 23.18 28 22.77 28H22.49C21.82 28 21.35 28.68 21.6 29.3C22.17 30.69 23.5 31.51 25 31.83V32.5C25 33.33 25.67 34 26.5 34C27.33 34 28 33.33 28 32.5V31.85C29.95 31.48 31.5 30.35 31.5 28.3C31.5 25.46 29.07 24.49 26.8 23.9Z" fill="#F44636"/>
</g>
<defs>
<filter id="filter0_d_94_20" x="0" y="0" width="53" height="58" filterUnits="userSpaceOnUse" color-interpolation-filters="sRGB">
<feFlood flood-opacity="0" result="BackgroundImageFix"/>
<feColorMatrix in="SourceAlpha" type="matrix" values="0 0 0 0 0 0 0 0 0 0 0 0 0 0 0 0 0 0 127 0" result="hardAlpha"/>
<feOffset dy="4"/>
<feGaussianBlur stdDeviation="2"/>
<feComposite in2="hardAlpha" operator="out"/>
<feColorMatrix type="matrix" values="0 0 0 0 0 0 0 0 0 0 0 0 0 0 0 0 0 0 0.07 0"/>
<feBlend mode="normal" in2="BackgroundImageFix" result="effect1_dropShadow_94_20"/>
<feBlend mode="normal" in="SourceGraphic" in2="effect1_dropShadow_94_20" result="shape"/>
</filter>
</defs>
</svg>
