<svg width="24" height="24" viewBox="0 0 24 24" fill="none" xmlns="http://www.w3.org/2000/svg">
<path d="M18.884 12.884C19.1178 12.6492 19.249 12.3313 19.249 12C19.249 11.6686 19.1178 11.3508 18.884 11.116L13.884 6.11598C13.7679 5.99989 13.6301 5.90781 13.4784 5.84498C13.3267 5.78215 13.1642 5.74982 13 5.74982C12.6684 5.74982 12.3504 5.88153 12.116 6.11598C11.8815 6.35043 11.7498 6.66842 11.7498 6.99998C11.7498 7.33155 11.8815 7.64953 12.116 7.88398L14.982 10.75H6C5.66848 10.75 5.35053 10.8817 5.11611 11.1161C4.88169 11.3505 4.75 11.6685 4.75 12C4.75 12.3315 4.88169 12.6494 5.11611 12.8839C5.35053 13.1183 5.66848 13.25 6 13.25H14.982L12.116 16.116C11.9999 16.2321 11.9078 16.3699 11.845 16.5216C11.7822 16.6732 11.7498 16.8358 11.7498 17C11.7498 17.1642 11.7822 17.3267 11.845 17.4784C11.9078 17.6301 11.9999 17.7679 12.116 17.884C12.2321 18.0001 12.3699 18.0922 12.5216 18.155C12.6733 18.2178 12.8358 18.2501 13 18.2501C13.1642 18.2501 13.3267 18.2178 13.4784 18.155C13.6301 18.0922 13.7679 18.0001 13.884 17.884L18.884 12.884Z" fill="#3396D3"/>
</svg>
