<svg width="53" height="58" viewBox="0 0 53 58" fill="none" xmlns="http://www.w3.org/2000/svg">
<g filter="url(#filter0_d_94_14)">
<rect x="4" width="45" height="50" rx="14" fill="#F1DDFF"/>
<path d="M27 23C28.0609 23 29.0783 22.5786 29.8284 21.8284C30.5786 21.0783 31 20.0609 31 19C31 17.9391 30.5786 16.9217 29.8284 16.1716C29.0783 15.4214 28.0609 15 27 15C25.9391 15 24.9217 15.4214 24.1716 16.1716C23.4214 16.9217 23 17.9391 23 19C23 20.0609 23.4214 21.0783 24.1716 21.8284C24.9217 22.5786 25.9391 23 27 23ZM20.5 26C21.163 26 21.7989 25.7366 22.2678 25.2678C22.7366 24.7989 23 24.163 23 23.5C23 22.837 22.7366 22.2011 22.2678 21.7322C21.7989 21.2634 21.163 21 20.5 21C19.837 21 19.2011 21.2634 18.7322 21.7322C18.2634 22.2011 18 22.837 18 23.5C18 24.163 18.2634 24.7989 18.7322 25.2678C19.2011 25.7366 19.837 26 20.5 26ZM36 23.5C36 24.163 35.7366 24.7989 35.2678 25.2678C34.7989 25.7366 34.163 26 33.5 26C32.837 26 32.2011 25.7366 31.7322 25.2678C31.2634 24.7989 31 24.163 31 23.5C31 22.837 31.2634 22.2011 31.7322 21.7322C32.2011 21.2634 32.837 21 33.5 21C34.163 21 34.7989 21.2634 35.2678 21.7322C35.7366 22.2011 36 22.837 36 23.5ZM27 24C28.3261 24 29.5979 24.5268 30.5355 25.4645C31.4732 26.4021 32 27.6739 32 29V35H22V29C22 27.6739 22.5268 26.4021 23.4645 25.4645C24.4021 24.5268 25.6739 24 27 24ZM20 29C20 28.307 20.1 27.638 20.288 27.006L20.118 27.02C19.2609 27.1141 18.4687 27.5213 17.8933 28.1635C17.3179 28.8057 16.9998 29.6377 17 30.5V35H20V29ZM37 35V30.5C37.0001 29.6084 36.6599 28.7503 36.0489 28.101C35.4378 27.4516 34.602 27.06 33.712 27.006C33.899 27.638 34 28.307 34 29V35H37Z" fill="#B445FF"/>
</g>
<defs>
<filter id="filter0_d_94_14" x="0" y="0" width="53" height="58" filterUnits="userSpaceOnUse" color-interpolation-filters="sRGB">
<feFlood flood-opacity="0" result="BackgroundImageFix"/>
<feColorMatrix in="SourceAlpha" type="matrix" values="0 0 0 0 0 0 0 0 0 0 0 0 0 0 0 0 0 0 127 0" result="hardAlpha"/>
<feOffset dy="4"/>
<feGaussianBlur stdDeviation="2"/>
<feComposite in2="hardAlpha" operator="out"/>
<feColorMatrix type="matrix" values="0 0 0 0 0 0 0 0 0 0 0 0 0 0 0 0 0 0 0.07 0"/>
<feBlend mode="normal" in2="BackgroundImageFix" result="effect1_dropShadow_94_14"/>
<feBlend mode="normal" in="SourceGraphic" in2="effect1_dropShadow_94_14" result="shape"/>
</filter>
</defs>
</svg>
