<svg width="668" height="200" viewBox="0 0 668 200" fill="none" xmlns="http://www.w3.org/2000/svg">
<path d="M65 165H663" stroke="black"/>
<path d="M102.375 171V165" stroke="black"/>
<path d="M97.1243 182.793H98.1811V189.031C98.1811 189.588 98.0788 190.061 97.8743 190.45C97.6697 190.84 97.3814 191.135 97.0092 191.337C96.6371 191.538 96.1982 191.639 95.6925 191.639C95.2152 191.639 94.7905 191.553 94.4183 191.379C94.0462 191.203 93.7536 190.953 93.5405 190.629C93.3274 190.306 93.2209 189.921 93.2209 189.475H94.2607C94.2607 189.722 94.3217 189.938 94.4439 190.122C94.5689 190.304 94.7393 190.446 94.9553 190.548C95.1712 190.651 95.4169 190.702 95.6925 190.702C95.9964 190.702 96.255 190.638 96.468 190.51C96.6811 190.382 96.843 190.195 96.9538 189.948C97.0675 189.698 97.1243 189.392 97.1243 189.031V182.793ZM102.089 191.673C101.674 191.673 101.298 191.595 100.96 191.439C100.621 191.28 100.353 191.051 100.154 190.753C99.9553 190.452 99.8558 190.088 99.8558 189.662C99.8558 189.287 99.9297 188.983 100.077 188.75C100.225 188.514 100.423 188.33 100.67 188.196C100.917 188.063 101.19 187.963 101.488 187.898C101.789 187.83 102.092 187.776 102.396 187.736C102.793 187.685 103.116 187.646 103.363 187.621C103.613 187.592 103.795 187.546 103.908 187.48C104.025 187.415 104.083 187.301 104.083 187.139V187.105C104.083 186.685 103.968 186.358 103.738 186.125C103.511 185.892 103.165 185.776 102.702 185.776C102.222 185.776 101.846 185.881 101.573 186.091C101.3 186.301 101.109 186.526 100.998 186.764L100.043 186.423C100.214 186.026 100.441 185.716 100.725 185.494C101.012 185.27 101.325 185.114 101.663 185.026C102.004 184.935 102.339 184.889 102.668 184.889C102.879 184.889 103.12 184.915 103.393 184.966C103.668 185.014 103.934 185.115 104.19 185.269C104.448 185.422 104.663 185.654 104.833 185.963C105.004 186.273 105.089 186.688 105.089 187.208V191.52H104.083V190.634H104.032C103.964 190.776 103.85 190.928 103.691 191.09C103.532 191.252 103.32 191.389 103.056 191.503C102.792 191.617 102.469 191.673 102.089 191.673ZM102.242 190.77C102.64 190.77 102.975 190.692 103.248 190.536C103.523 190.379 103.731 190.178 103.87 189.931C104.012 189.683 104.083 189.423 104.083 189.151V188.23C104.04 188.281 103.947 188.328 103.802 188.371C103.66 188.411 103.495 188.446 103.308 188.477C103.123 188.506 102.942 188.531 102.766 188.554C102.593 188.574 102.452 188.591 102.344 188.605C102.083 188.639 101.839 188.695 101.612 188.771C101.387 188.845 101.205 188.958 101.066 189.108C100.93 189.256 100.862 189.458 100.862 189.713C100.862 190.063 100.991 190.327 101.249 190.506C101.511 190.682 101.842 190.77 102.242 190.77ZM107.93 187.583V191.52H106.924V184.975H107.896V185.997H107.981C108.135 185.665 108.368 185.398 108.68 185.196C108.993 184.992 109.396 184.889 109.89 184.889C110.333 184.889 110.721 184.98 111.054 185.162C111.386 185.341 111.645 185.614 111.829 185.98C112.014 186.344 112.106 186.804 112.106 187.361V191.52H111.1V187.429C111.1 186.915 110.967 186.514 110.7 186.227C110.433 185.938 110.066 185.793 109.6 185.793C109.279 185.793 108.993 185.862 108.74 186.002C108.49 186.141 108.292 186.344 108.147 186.611C108.002 186.878 107.93 187.202 107.93 187.583Z" fill="black"/>
<path d="M177.125 171V165" stroke="black"/>
<path d="M168.182 191.52V182.793H173.415V183.73H169.239V186.679H173.023V187.617H169.239V191.52H168.182ZM177.352 191.656C176.722 191.656 176.178 191.517 175.72 191.239C175.266 190.958 174.915 190.565 174.668 190.063C174.423 189.557 174.301 188.969 174.301 188.298C174.301 187.628 174.423 187.037 174.668 186.526C174.915 186.011 175.259 185.611 175.699 185.324C176.142 185.034 176.659 184.889 177.25 184.889C177.591 184.889 177.928 184.946 178.26 185.06C178.592 185.173 178.895 185.358 179.168 185.614C179.44 185.867 179.658 186.202 179.82 186.619C179.982 187.037 180.062 187.551 180.062 188.162V188.588H175.017V187.719H179.04C179.04 187.35 178.966 187.02 178.818 186.73C178.673 186.44 178.466 186.212 178.196 186.044C177.929 185.877 177.614 185.793 177.25 185.793C176.849 185.793 176.503 185.892 176.21 186.091C175.92 186.287 175.697 186.543 175.541 186.858C175.385 187.173 175.307 187.511 175.307 187.872V188.452C175.307 188.946 175.392 189.365 175.562 189.709C175.736 190.05 175.976 190.31 176.283 190.489C176.589 190.665 176.946 190.753 177.352 190.753C177.616 190.753 177.855 190.716 178.068 190.642C178.284 190.565 178.47 190.452 178.626 190.301C178.783 190.148 178.903 189.958 178.989 189.73L179.96 190.003C179.858 190.333 179.686 190.622 179.445 190.872C179.203 191.119 178.905 191.313 178.55 191.452C178.195 191.588 177.795 191.656 177.352 191.656ZM181.729 191.52V182.793H182.734V186.014H182.82C182.893 185.901 182.996 185.756 183.126 185.58C183.26 185.401 183.45 185.242 183.697 185.102C183.947 184.96 184.286 184.889 184.712 184.889C185.263 184.889 185.749 185.027 186.169 185.303C186.589 185.578 186.918 185.969 187.153 186.475C187.389 186.98 187.507 187.577 187.507 188.264C187.507 188.958 187.389 189.558 187.153 190.067C186.918 190.573 186.591 190.965 186.173 191.243C185.756 191.519 185.274 191.656 184.729 191.656C184.308 191.656 183.972 191.587 183.719 191.448C183.466 191.306 183.271 191.145 183.135 190.966C182.999 190.784 182.893 190.634 182.82 190.514H182.7V191.52H181.729ZM182.717 188.247C182.717 188.742 182.79 189.178 182.935 189.556C183.08 189.931 183.291 190.225 183.57 190.438C183.848 190.648 184.189 190.753 184.592 190.753C185.013 190.753 185.364 190.642 185.645 190.421C185.929 190.196 186.142 189.895 186.284 189.517C186.429 189.136 186.501 188.713 186.501 188.247C186.501 187.787 186.43 187.372 186.288 187.003C186.149 186.631 185.938 186.337 185.653 186.121C185.372 185.902 185.018 185.793 184.592 185.793C184.183 185.793 183.839 185.896 183.561 186.104C183.283 186.308 183.072 186.595 182.93 186.965C182.788 187.331 182.717 187.759 182.717 188.247Z" fill="black"/>
<path d="M251.875 171V165" stroke="black"/>
<path d="M241.981 182.793H243.242L246.208 190.037H246.31L249.276 182.793H250.537V191.52H249.549V184.889H249.464L246.736 191.52H245.782L243.055 184.889H242.969V191.52H241.981V182.793ZM254.446 191.673C254.031 191.673 253.655 191.595 253.317 191.439C252.979 191.28 252.71 191.051 252.512 190.753C252.313 190.452 252.213 190.088 252.213 189.662C252.213 189.287 252.287 188.983 252.435 188.75C252.583 188.514 252.78 188.33 253.027 188.196C253.274 188.063 253.547 187.963 253.845 187.898C254.146 187.83 254.449 187.776 254.753 187.736C255.151 187.685 255.473 187.646 255.72 187.621C255.97 187.592 256.152 187.546 256.266 187.48C256.382 187.415 256.441 187.301 256.441 187.139V187.105C256.441 186.685 256.325 186.358 256.095 186.125C255.868 185.892 255.523 185.776 255.06 185.776C254.58 185.776 254.203 185.881 253.931 186.091C253.658 186.301 253.466 186.526 253.355 186.764L252.401 186.423C252.571 186.026 252.798 185.716 253.083 185.494C253.369 185.27 253.682 185.114 254.02 185.026C254.361 184.935 254.696 184.889 255.026 184.889C255.236 184.889 255.477 184.915 255.75 184.966C256.026 185.014 256.291 185.115 256.547 185.269C256.806 185.422 257.02 185.654 257.191 185.963C257.361 186.273 257.446 186.688 257.446 187.208V191.52H256.441V190.634H256.389C256.321 190.776 256.208 190.928 256.048 191.09C255.889 191.252 255.678 191.389 255.414 191.503C255.149 191.617 254.827 191.673 254.446 191.673ZM254.6 190.77C254.997 190.77 255.333 190.692 255.605 190.536C255.881 190.379 256.088 190.178 256.227 189.931C256.369 189.683 256.441 189.423 256.441 189.151V188.23C256.398 188.281 256.304 188.328 256.159 188.371C256.017 188.411 255.852 188.446 255.665 188.477C255.48 188.506 255.3 188.531 255.124 188.554C254.95 188.574 254.81 188.591 254.702 188.605C254.441 188.639 254.196 188.695 253.969 188.771C253.744 188.845 253.563 188.958 253.423 189.108C253.287 189.256 253.219 189.458 253.219 189.713C253.219 190.063 253.348 190.327 253.607 190.506C253.868 190.682 254.199 190.77 254.6 190.77ZM259.282 191.52V184.975H260.253V185.963H260.322C260.441 185.639 260.657 185.377 260.969 185.175C261.282 184.973 261.634 184.872 262.026 184.872C262.1 184.872 262.192 184.874 262.303 184.877C262.414 184.879 262.498 184.884 262.555 184.889V185.912C262.52 185.904 262.442 185.891 262.32 185.874C262.201 185.854 262.074 185.844 261.941 185.844C261.623 185.844 261.339 185.911 261.089 186.044C260.841 186.175 260.645 186.357 260.501 186.59C260.358 186.82 260.287 187.083 260.287 187.378V191.52H259.282Z" fill="black"/>
<path d="M326.625 171V165" stroke="black"/>
<path d="M315.249 191.52H314.141L317.345 182.793H318.436L321.641 191.52H320.533L317.925 184.173H317.857L315.249 191.52ZM315.658 188.111H320.124V189.048H315.658V188.111ZM322.864 193.975V184.975H323.835V186.014H323.955C324.029 185.901 324.131 185.756 324.262 185.58C324.395 185.401 324.585 185.242 324.833 185.102C325.083 184.96 325.421 184.889 325.847 184.889C326.398 184.889 326.884 185.027 327.304 185.303C327.725 185.578 328.053 185.969 328.289 186.475C328.524 186.98 328.642 187.577 328.642 188.264C328.642 188.958 328.524 189.558 328.289 190.067C328.053 190.573 327.726 190.965 327.308 191.243C326.891 191.519 326.409 191.656 325.864 191.656C325.443 191.656 325.107 191.587 324.854 191.448C324.601 191.306 324.406 191.145 324.27 190.966C324.134 190.784 324.029 190.634 323.955 190.514H323.869V193.975H322.864ZM323.852 188.247C323.852 188.742 323.925 189.178 324.07 189.556C324.215 189.931 324.426 190.225 324.705 190.438C324.983 190.648 325.324 190.753 325.727 190.753C326.148 190.753 326.499 190.642 326.78 190.421C327.064 190.196 327.277 189.895 327.419 189.517C327.564 189.136 327.637 188.713 327.637 188.247C327.637 187.787 327.566 187.372 327.423 187.003C327.284 186.631 327.073 186.337 326.789 186.121C326.507 185.902 326.154 185.793 325.727 185.793C325.318 185.793 324.975 185.896 324.696 186.104C324.418 186.308 324.208 186.595 324.066 186.965C323.923 187.331 323.852 187.759 323.852 188.247ZM330.176 191.52V184.975H331.148V185.963H331.216C331.335 185.639 331.551 185.377 331.864 185.175C332.176 184.973 332.529 184.872 332.921 184.872C332.994 184.872 333.087 184.874 333.198 184.877C333.308 184.879 333.392 184.884 333.449 184.889V185.912C333.415 185.904 333.337 185.891 333.215 185.874C333.095 185.854 332.969 185.844 332.835 185.844C332.517 185.844 332.233 185.911 331.983 186.044C331.736 186.175 331.54 186.357 331.395 186.59C331.253 186.82 331.182 187.083 331.182 187.378V191.52H330.176ZM334.641 191.52V184.975H335.647V191.52H334.641ZM335.153 183.884C334.956 183.884 334.787 183.817 334.645 183.683C334.506 183.55 334.437 183.389 334.437 183.202C334.437 183.014 334.506 182.854 334.645 182.72C334.787 182.587 334.956 182.52 335.153 182.52C335.349 182.52 335.516 182.587 335.655 182.72C335.797 182.854 335.868 183.014 335.868 183.202C335.868 183.389 335.797 183.55 335.655 183.683C335.516 183.817 335.349 183.884 335.153 183.884ZM338.494 182.793V191.52H337.489V182.793H338.494Z" fill="black"/>
<path d="M401.375 171V165" stroke="black"/>
<path d="M390.49 182.793H391.752L394.718 190.037H394.82L397.786 182.793H399.047V191.52H398.059V184.889H397.973L395.246 191.52H394.292L391.564 184.889H391.479V191.52H390.49V182.793ZM402.956 191.673C402.541 191.673 402.165 191.595 401.827 191.439C401.489 191.28 401.22 191.051 401.021 190.753C400.822 190.452 400.723 190.088 400.723 189.662C400.723 189.287 400.797 188.983 400.945 188.75C401.092 188.514 401.29 188.33 401.537 188.196C401.784 188.063 402.057 187.963 402.355 187.898C402.656 187.83 402.959 187.776 403.263 187.736C403.661 187.685 403.983 187.646 404.23 187.621C404.48 187.592 404.662 187.546 404.776 187.48C404.892 187.415 404.95 187.301 404.95 187.139V187.105C404.95 186.685 404.835 186.358 404.605 186.125C404.378 185.892 404.033 185.776 403.57 185.776C403.089 185.776 402.713 185.881 402.44 186.091C402.168 186.301 401.976 186.526 401.865 186.764L400.911 186.423C401.081 186.026 401.308 185.716 401.592 185.494C401.879 185.27 402.192 185.114 402.53 185.026C402.871 184.935 403.206 184.889 403.536 184.889C403.746 184.889 403.987 184.915 404.26 184.966C404.536 185.014 404.801 185.115 405.057 185.269C405.315 185.422 405.53 185.654 405.7 185.963C405.871 186.273 405.956 186.688 405.956 187.208V191.52H404.95V190.634H404.899C404.831 190.776 404.717 190.928 404.558 191.09C404.399 191.252 404.188 191.389 403.923 191.503C403.659 191.617 403.337 191.673 402.956 191.673ZM403.109 190.77C403.507 190.77 403.842 190.692 404.115 190.536C404.391 190.379 404.598 190.178 404.737 189.931C404.879 189.683 404.95 189.423 404.95 189.151V188.23C404.908 188.281 404.814 188.328 404.669 188.371C404.527 188.411 404.362 188.446 404.175 188.477C403.99 188.506 403.81 188.531 403.634 188.554C403.46 188.574 403.32 188.591 403.212 188.605C402.95 188.639 402.706 188.695 402.479 188.771C402.254 188.845 402.072 188.958 401.933 189.108C401.797 189.256 401.729 189.458 401.729 189.713C401.729 190.063 401.858 190.327 402.116 190.506C402.378 190.682 402.709 190.77 403.109 190.77ZM408.205 193.975C408.034 193.975 407.882 193.96 407.749 193.932C407.615 193.906 407.523 193.881 407.472 193.855L407.728 192.969C407.972 193.031 408.188 193.054 408.375 193.037C408.563 193.02 408.729 192.936 408.874 192.786C409.022 192.638 409.157 192.398 409.279 192.065L409.466 191.554L407.046 184.975H408.137L409.944 190.19H410.012L411.819 184.975H412.909L410.131 192.475C410.006 192.813 409.851 193.092 409.667 193.314C409.482 193.538 409.267 193.705 409.023 193.813C408.782 193.921 408.509 193.975 408.205 193.975Z" fill="black"/>
<path d="M476.125 171V165" stroke="black"/>
<path d="M470.769 182.793H471.826V189.031C471.826 189.588 471.723 190.061 471.519 190.45C471.314 190.84 471.026 191.135 470.654 191.337C470.282 191.538 469.843 191.639 469.337 191.639C468.86 191.639 468.435 191.553 468.063 191.379C467.691 191.203 467.398 190.953 467.185 190.629C466.972 190.306 466.865 189.921 466.865 189.475H467.905C467.905 189.722 467.966 189.938 468.088 190.122C468.213 190.304 468.384 190.446 468.6 190.548C468.816 190.651 469.061 190.702 469.337 190.702C469.641 190.702 469.9 190.638 470.113 190.51C470.326 190.382 470.488 190.195 470.598 189.948C470.712 189.698 470.769 189.392 470.769 189.031V182.793ZM477.932 188.844V184.975H478.938V191.52H477.932V190.412H477.864C477.711 190.744 477.472 191.027 477.148 191.26C476.824 191.49 476.415 191.605 475.921 191.605C475.512 191.605 475.148 191.516 474.83 191.337C474.512 191.155 474.262 190.882 474.08 190.519C473.898 190.152 473.807 189.69 473.807 189.134V184.975H474.813V189.065C474.813 189.543 474.946 189.923 475.213 190.208C475.483 190.492 475.827 190.634 476.245 190.634C476.495 190.634 476.749 190.57 477.007 190.442C477.269 190.314 477.488 190.118 477.664 189.854C477.843 189.59 477.932 189.253 477.932 188.844ZM481.786 187.583V191.52H480.78V184.975H481.751V185.997H481.837C481.99 185.665 482.223 185.398 482.536 185.196C482.848 184.992 483.251 184.889 483.746 184.889C484.189 184.889 484.577 184.98 484.909 185.162C485.241 185.341 485.5 185.614 485.685 185.98C485.869 186.344 485.962 186.804 485.962 187.361V191.52H484.956V187.429C484.956 186.915 484.822 186.514 484.555 186.227C484.288 185.938 483.922 185.793 483.456 185.793C483.135 185.793 482.848 185.862 482.595 186.002C482.345 186.141 482.148 186.344 482.003 186.611C481.858 186.878 481.786 187.202 481.786 187.583Z" fill="black"/>
<path d="M550.875 171V165" stroke="black"/>
<path d="M547.605 182.793H548.662V189.031C548.662 189.588 548.559 190.061 548.355 190.45C548.15 190.84 547.862 191.135 547.49 191.337C547.118 191.538 546.679 191.639 546.173 191.639C545.696 191.639 545.271 191.553 544.899 191.379C544.527 191.203 544.234 190.953 544.021 190.629C543.808 190.306 543.701 189.921 543.701 189.475H544.741C544.741 189.722 544.802 189.938 544.924 190.122C545.049 190.304 545.22 190.446 545.436 190.548C545.652 190.651 545.897 190.702 546.173 190.702C546.477 190.702 546.735 190.638 546.949 190.51C547.162 190.382 547.324 190.195 547.434 189.948C547.548 189.698 547.605 189.392 547.605 189.031V182.793ZM554.768 188.844V184.975H555.774V191.52H554.768V190.412H554.7C554.547 190.744 554.308 191.027 553.984 191.26C553.66 191.49 553.251 191.605 552.757 191.605C552.348 191.605 551.984 191.516 551.666 191.337C551.348 191.155 551.098 190.882 550.916 190.519C550.734 190.152 550.643 189.69 550.643 189.134V184.975H551.649V189.065C551.649 189.543 551.782 189.923 552.049 190.208C552.319 190.492 552.663 190.634 553.081 190.634C553.331 190.634 553.585 190.57 553.843 190.442C554.105 190.314 554.324 190.118 554.5 189.854C554.679 189.59 554.768 189.253 554.768 188.844ZM558.621 182.793V191.52H557.616V182.793H558.621Z" fill="black"/>
<path d="M625.625 171V165" stroke="black"/>
<path d="M615.843 191.52H614.735L617.939 182.793H619.03L622.235 191.52H621.127L618.519 184.173H618.45L615.843 191.52ZM616.252 188.111H620.718V189.048H616.252V188.111ZM627.583 188.844V184.975H628.588V191.52H627.583V190.412H627.514C627.361 190.744 627.122 191.027 626.798 191.26C626.475 191.49 626.066 191.605 625.571 191.605C625.162 191.605 624.798 191.516 624.48 191.337C624.162 191.155 623.912 190.882 623.73 190.519C623.548 190.152 623.458 189.69 623.458 189.134V184.975H624.463V189.065C624.463 189.543 624.597 189.923 624.864 190.208C625.134 190.492 625.477 190.634 625.895 190.634C626.145 190.634 626.399 190.57 626.658 190.442C626.919 190.314 627.138 190.118 627.314 189.854C627.493 189.59 627.583 189.253 627.583 188.844ZM633.072 194.111C632.586 194.111 632.169 194.048 631.819 193.923C631.47 193.801 631.179 193.639 630.946 193.438C630.716 193.239 630.532 193.026 630.396 192.798L631.197 192.236C631.288 192.355 631.403 192.492 631.542 192.645C631.682 192.801 631.872 192.936 632.113 193.05C632.358 193.166 632.677 193.225 633.072 193.225C633.601 193.225 634.037 193.097 634.381 192.841C634.724 192.585 634.896 192.185 634.896 191.639V190.31H634.811C634.737 190.429 634.632 190.577 634.496 190.753C634.362 190.926 634.169 191.081 633.916 191.217C633.666 191.351 633.328 191.418 632.902 191.418C632.373 191.418 631.899 191.293 631.479 191.043C631.061 190.793 630.73 190.429 630.486 189.952C630.244 189.475 630.123 188.895 630.123 188.213C630.123 187.543 630.241 186.959 630.477 186.462C630.713 185.962 631.041 185.575 631.461 185.303C631.882 185.027 632.368 184.889 632.919 184.889C633.345 184.889 633.683 184.96 633.933 185.102C634.186 185.242 634.379 185.401 634.513 185.58C634.649 185.756 634.754 185.901 634.828 186.014H634.93V184.975H635.902V191.708C635.902 192.27 635.774 192.727 635.518 193.08C635.265 193.435 634.925 193.695 634.496 193.86C634.069 194.027 633.595 194.111 633.072 194.111ZM633.038 190.514C633.442 190.514 633.782 190.422 634.061 190.237C634.339 190.053 634.551 189.787 634.696 189.44C634.841 189.094 634.913 188.679 634.913 188.196C634.913 187.725 634.842 187.308 634.7 186.948C634.558 186.587 634.348 186.304 634.069 186.1C633.791 185.895 633.447 185.793 633.038 185.793C632.612 185.793 632.257 185.901 631.973 186.117C631.692 186.333 631.48 186.622 631.338 186.986C631.199 187.35 631.129 187.753 631.129 188.196C631.129 188.651 631.2 189.053 631.342 189.402C631.487 189.749 631.7 190.021 631.981 190.22C632.265 190.416 632.618 190.514 633.038 190.514Z" fill="black"/>
<path d="M65 5V165" stroke="black"/>
<path d="M59 165H65" stroke="black"/>
<path d="M50.25 169.379C49.608 169.379 49.0611 169.205 48.6094 168.855C48.1577 168.503 47.8125 167.993 47.5739 167.325C47.3352 166.655 47.2159 165.845 47.2159 164.896C47.2159 163.953 47.3352 163.148 47.5739 162.48C47.8153 161.81 48.1619 161.298 48.6136 160.946C49.0682 160.591 49.6136 160.413 50.25 160.413C50.8864 160.413 51.4304 160.591 51.8821 160.946C52.3366 161.298 52.6832 161.81 52.9219 162.48C53.1634 163.148 53.2841 163.953 53.2841 164.896C53.2841 165.845 53.1648 166.655 52.9261 167.325C52.6875 167.993 52.3423 168.503 51.8906 168.855C51.4389 169.205 50.892 169.379 50.25 169.379ZM50.25 168.442C50.8864 168.442 51.3807 168.135 51.733 167.521C52.0852 166.908 52.2614 166.033 52.2614 164.896C52.2614 164.141 52.1804 163.497 52.0185 162.966C51.8594 162.435 51.6293 162.03 51.3281 161.751C51.0298 161.473 50.6705 161.334 50.25 161.334C49.6193 161.334 49.1264 161.645 48.7713 162.267C48.4162 162.886 48.2386 163.763 48.2386 164.896C48.2386 165.652 48.3182 166.294 48.4773 166.823C48.6364 167.351 48.8651 167.753 49.1634 168.028C49.4645 168.304 49.8267 168.442 50.25 168.442Z" fill="black"/>
<path d="M59 125H65" stroke="black"/>
<path d="M44.8935 120.533V129.26H43.8366V121.641H43.7855L41.6548 123.055V121.982L43.8366 120.533H44.8935ZM50.25 129.379C49.608 129.379 49.0611 129.205 48.6094 128.855C48.1577 128.503 47.8125 127.993 47.5739 127.325C47.3352 126.655 47.2159 125.845 47.2159 124.896C47.2159 123.953 47.3352 123.148 47.5739 122.48C47.8153 121.81 48.1619 121.298 48.6136 120.946C49.0682 120.591 49.6136 120.413 50.25 120.413C50.8864 120.413 51.4304 120.591 51.8821 120.946C52.3366 121.298 52.6832 121.81 52.9219 122.48C53.1634 123.148 53.2841 123.953 53.2841 124.896C53.2841 125.845 53.1648 126.655 52.9261 127.325C52.6875 127.993 52.3423 128.503 51.8906 128.855C51.4389 129.205 50.892 129.379 50.25 129.379ZM50.25 128.442C50.8864 128.442 51.3807 128.135 51.733 127.521C52.0852 126.908 52.2614 126.033 52.2614 124.896C52.2614 124.141 52.1804 123.497 52.0185 122.966C51.8594 122.435 51.6293 122.03 51.3281 121.751C51.0298 121.473 50.6705 121.334 50.25 121.334C49.6193 121.334 49.1264 121.645 48.7713 122.267C48.4162 122.886 48.2386 123.763 48.2386 124.896C48.2386 125.652 48.3182 126.294 48.4773 126.823C48.6364 127.351 48.8651 127.753 49.1634 128.028C49.4645 128.304 49.8267 128.442 50.25 128.442Z" fill="black"/>
<path d="M59 85H65" stroke="black"/>
<path d="M40.1378 89.26V88.493L43.0185 85.3396C43.3565 84.9702 43.6349 84.6492 43.8537 84.3765C44.0724 84.1009 44.2344 83.8424 44.3395 83.6009C44.4474 83.3566 44.5014 83.1009 44.5014 82.8339C44.5014 82.5271 44.4276 82.2614 44.2798 82.037C44.1349 81.8126 43.9361 81.6393 43.6832 81.5171C43.4304 81.395 43.1463 81.3339 42.831 81.3339C42.4957 81.3339 42.2031 81.4035 41.9531 81.5427C41.706 81.679 41.5142 81.8708 41.3778 82.118C41.2443 82.3651 41.1776 82.6549 41.1776 82.9873H40.1719C40.1719 82.4759 40.2898 82.0271 40.5256 81.6407C40.7614 81.2543 41.0824 80.9532 41.4886 80.7373C41.8977 80.5214 42.3565 80.4134 42.8651 80.4134C43.3764 80.4134 43.8295 80.5214 44.2244 80.7373C44.6193 80.9532 44.929 81.2444 45.1534 81.6109C45.3778 81.9773 45.4901 82.385 45.4901 82.8339C45.4901 83.1549 45.4318 83.4688 45.3153 83.7756C45.2017 84.0796 45.0028 84.4191 44.7188 84.7941C44.4375 85.1663 44.0469 85.6208 43.5469 86.1577L41.5866 88.2543V88.3225H45.6435V89.26H40.1378ZM50.25 89.3793C49.608 89.3793 49.0611 89.2046 48.6094 88.8552C48.1577 88.5029 47.8125 87.993 47.5739 87.3254C47.3352 86.6549 47.2159 85.8452 47.2159 84.8964C47.2159 83.9532 47.3352 83.1478 47.5739 82.4802C47.8153 81.8097 48.1619 81.2984 48.6136 80.9461C49.0682 80.591 49.6136 80.4134 50.25 80.4134C50.8864 80.4134 51.4304 80.591 51.8821 80.9461C52.3366 81.2984 52.6832 81.8097 52.9219 82.4802C53.1634 83.1478 53.2841 83.9532 53.2841 84.8964C53.2841 85.8452 53.1648 86.6549 52.9261 87.3254C52.6875 87.993 52.3423 88.5029 51.8906 88.8552C51.4389 89.2046 50.892 89.3793 50.25 89.3793ZM50.25 88.4418C50.8864 88.4418 51.3807 88.135 51.733 87.5214C52.0852 86.9077 52.2614 86.0327 52.2614 84.8964C52.2614 84.1407 52.1804 83.4972 52.0185 82.966C51.8594 82.4347 51.6293 82.0299 51.3281 81.7515C51.0298 81.4731 50.6705 81.3339 50.25 81.3339C49.6193 81.3339 49.1264 81.645 48.7713 82.2671C48.4162 82.8864 48.2386 83.7629 48.2386 84.8964C48.2386 85.6521 48.3182 86.2941 48.4773 86.8225C48.6364 87.3509 48.8651 87.7529 49.1634 88.0285C49.4645 88.304 49.8267 88.4418 50.25 88.4418Z" fill="black"/>
<path d="M59 45H65" stroke="black"/>
<path d="M42.7116 49.3793C42.1491 49.3793 41.6477 49.2827 41.2074 49.0896C40.7699 48.8964 40.4219 48.6279 40.1634 48.2842C39.9077 47.9376 39.7685 47.5356 39.7457 47.0782H40.8196C40.8423 47.3594 40.9389 47.6023 41.1094 47.8069C41.2798 48.0086 41.5028 48.1648 41.7784 48.2756C42.054 48.3864 42.3594 48.4418 42.6946 48.4418C43.0696 48.4418 43.402 48.3765 43.6918 48.2458C43.9815 48.1151 44.2088 47.9333 44.3736 47.7004C44.5384 47.4674 44.6207 47.1975 44.6207 46.8907C44.6207 46.5697 44.5412 46.287 44.3821 46.0427C44.223 45.7955 43.9901 45.6023 43.6832 45.4631C43.3764 45.3239 43.0014 45.2543 42.5582 45.2543H41.8594V44.3168H42.5582C42.9048 44.3168 43.2088 44.2543 43.4702 44.1293C43.7344 44.0043 43.9403 43.8282 44.0881 43.6009C44.2386 43.3736 44.3139 43.1066 44.3139 42.7998C44.3139 42.5043 44.2486 42.2472 44.1179 42.0285C43.9872 41.8097 43.8026 41.6393 43.5639 41.5171C43.3281 41.395 43.0497 41.3339 42.7287 41.3339C42.4276 41.3339 42.1435 41.3893 41.8764 41.5001C41.6122 41.608 41.3963 41.7657 41.2287 41.9731C41.0611 42.1776 40.9702 42.4248 40.956 42.7146H39.9332C39.9503 42.2572 40.0881 41.8566 40.3466 41.5129C40.6051 41.1663 40.9432 40.8964 41.3608 40.7032C41.7813 40.51 42.2429 40.4134 42.7457 40.4134C43.2855 40.4134 43.7486 40.5228 44.1349 40.7415C44.5213 40.9575 44.8182 41.243 45.0256 41.5981C45.233 41.9532 45.3366 42.3367 45.3366 42.7486C45.3366 43.2401 45.2074 43.6592 44.9489 44.0057C44.6932 44.3523 44.3452 44.5924 43.9048 44.7259V44.7941C44.456 44.885 44.8864 45.1194 45.196 45.4972C45.5057 45.8722 45.6605 46.3367 45.6605 46.8907C45.6605 47.3651 45.5313 47.7913 45.2727 48.1691C45.017 48.5441 44.6676 48.8396 44.2244 49.0555C43.7813 49.2714 43.277 49.3793 42.7116 49.3793ZM50.25 49.3793C49.608 49.3793 49.0611 49.2046 48.6094 48.8552C48.1577 48.5029 47.8125 47.993 47.5739 47.3254C47.3352 46.6549 47.2159 45.8452 47.2159 44.8964C47.2159 43.9532 47.3352 43.1478 47.5739 42.4802C47.8153 41.8097 48.1619 41.2984 48.6136 40.9461C49.0682 40.591 49.6136 40.4134 50.25 40.4134C50.8864 40.4134 51.4304 40.591 51.8821 40.9461C52.3366 41.2984 52.6832 41.8097 52.9219 42.4802C53.1634 43.1478 53.2841 43.9532 53.2841 44.8964C53.2841 45.8452 53.1648 46.6549 52.9261 47.3254C52.6875 47.993 52.3423 48.5029 51.8906 48.8552C51.4389 49.2046 50.892 49.3793 50.25 49.3793ZM50.25 48.4418C50.8864 48.4418 51.3807 48.135 51.733 47.5214C52.0852 46.9077 52.2614 46.0327 52.2614 44.8964C52.2614 44.1407 52.1804 43.4972 52.0185 42.966C51.8594 42.4347 51.6293 42.0299 51.3281 41.7515C51.0298 41.4731 50.6705 41.3339 50.25 41.3339C49.6193 41.3339 49.1264 41.645 48.7713 42.2671C48.4162 42.8864 48.2386 43.7629 48.2386 44.8964C48.2386 45.6521 48.3182 46.2941 48.4773 46.8225C48.6364 47.3509 48.8651 47.7529 49.1634 48.0285C49.4645 48.304 49.8267 48.4418 50.25 48.4418Z" fill="black"/>
<path d="M59 5H65" stroke="black"/>
<path d="M39.4996 11.6655V10.7962L43.3349 4.72805H43.9656V6.07464H43.5394L40.6417 10.6599V10.728H45.8065V11.6655H39.4996ZM43.6076 13.4553V11.4013V10.9965V4.72805H44.6133V13.4553H43.6076ZM50.25 13.5746C49.608 13.5746 49.0611 13.3999 48.6094 13.0505C48.1577 12.6982 47.8125 12.1883 47.5739 11.5207C47.3352 10.8502 47.2159 10.0405 47.2159 9.09169C47.2159 8.1485 47.3352 7.34311 47.5739 6.67549C47.8153 6.00504 48.1619 5.49367 48.6136 5.1414C49.0682 4.78629 49.6136 4.60873 50.25 4.60873C50.8864 4.60873 51.4304 4.78629 51.8821 5.1414C52.3366 5.49367 52.6832 6.00504 52.9219 6.67549C53.1634 7.34311 53.2841 8.1485 53.2841 9.09169C53.2841 10.0405 53.1648 10.8502 52.9261 11.5207C52.6875 12.1883 52.3423 12.6982 51.8906 13.0505C51.4389 13.3999 50.892 13.5746 50.25 13.5746ZM50.25 12.6371C50.8864 12.6371 51.3807 12.3303 51.733 11.7167C52.0852 11.103 52.2614 10.228 52.2614 9.09169C52.2614 8.336 52.1804 7.69254 52.0185 7.16129C51.8594 6.63004 51.6293 6.22521 51.3281 5.9468C51.0298 5.66839 50.6705 5.52919 50.25 5.52919C49.6193 5.52919 49.1264 5.84027 48.7713 6.46242C48.4162 7.08174 48.2386 7.95816 48.2386 9.09169C48.2386 9.84737 48.3182 10.4894 48.4773 11.0178C48.6364 11.5462 48.8651 11.9482 49.1634 12.2238C49.4645 12.4994 49.8267 12.6371 50.25 12.6371Z" fill="black"/>
<path d="M72.475 55.5599H131.475V165H72.475V55.5599Z" fill="#3396D3"/>
<path d="M147.225 34.9199H206.225V165H147.225V34.9199Z" fill="#3396D3"/>
<path d="M221.975 155.88H280.975V165H221.975V155.88Z" fill="#3396D3"/>
<path d="M296.725 27.88H355.725V165H296.725V27.88Z" fill="#3396D3"/>
<path d="M371.475 17.3199H430.475V165H371.475V17.3199Z" fill="#3396D3"/>
<path d="M446.225 75.72H505.225V165H446.225V75.72Z" fill="#3396D3"/>
<path d="M520.975 140.52H579.975V165H520.975V140.52Z" fill="#3396D3"/>
<path d="M595.725 85.6399H654.725V165H595.725V85.6399Z" fill="#3396D3"/>
</svg>
