<svg width="668" height="240" viewBox="0 0 668 240" fill="none" xmlns="http://www.w3.org/2000/svg">
<path d="M410 120C413.314 120 416.023 117.31 415.781 114.005C415.101 104.733 412.848 95.6279 409.104 87.0856C405.361 78.5433 400.193 70.716 393.836 63.9315C391.57 61.5135 387.756 61.6823 385.51 64.1188L367.211 83.9713C364.965 86.4078 365.158 90.1808 367.258 92.7437C369.741 95.7733 371.804 99.1352 373.384 102.74C374.964 106.345 376.037 110.14 376.582 114.019C377.043 117.301 379.686 120 383 120H410Z" fill="#653E9B" stroke="white"/>
<path d="M385.51 64.1188C387.756 61.6823 387.614 57.867 385.02 55.8052C371.335 44.9281 354.482 38.675 336.907 38.0515C319.333 37.428 302.079 42.4711 287.657 52.351C284.924 54.2238 284.512 58.0194 286.579 60.609L303.426 81.7084C305.494 84.2979 309.252 84.6793 312.104 82.9919C319.144 78.8267 327.267 76.734 335.525 77.027C343.782 77.3199 351.736 79.9829 358.463 84.6366C361.188 86.5219 364.965 86.4078 367.211 83.9713L385.51 64.1188Z" fill="#653E9B" stroke="white"/>
<path d="M286.579 60.609C284.512 58.0195 280.719 57.5808 278.288 59.8322C273.015 64.7144 268.407 70.2687 264.582 76.3519C262.818 79.1572 263.949 82.8034 266.876 84.3575L290.723 97.02C293.649 98.574 297.25 97.4298 299.196 94.7477C300.289 93.2414 301.478 91.8076 302.757 90.4554C305.034 88.0478 305.494 84.298 303.426 81.7085L286.579 60.609Z" fill="#653E9B" stroke="white"/>
<path d="M266.876 84.3575C263.949 82.8034 260.295 83.9087 258.959 86.9412C253.079 100.288 250.851 115 252.559 129.557C254.501 146.106 261.439 161.671 272.448 174.179C283.457 186.686 298.016 195.543 314.185 199.57C328.408 203.112 343.283 202.768 357.268 198.629C360.446 197.689 362.006 194.205 360.836 191.104L351.302 165.844C350.132 162.743 346.673 161.223 343.44 161.951C336.929 163.416 330.138 163.352 323.609 161.726C315.13 159.614 307.496 154.97 301.723 148.411C295.95 141.852 292.311 133.69 291.293 125.012C290.509 118.329 291.307 111.584 293.586 105.312C294.718 102.198 293.649 98.574 290.723 97.0199L266.876 84.3575Z" fill="#653E9B" stroke="white"/>
<path d="M360.836 191.104C362.006 194.205 365.479 195.789 368.486 194.396C373.828 191.919 378.889 188.874 383.579 185.314C386.219 183.31 386.445 179.499 384.254 177.013L366.401 156.759C364.21 154.273 360.437 154.074 357.67 155.899C356.683 156.55 355.669 157.16 354.631 157.727C351.724 159.317 350.132 162.743 351.302 165.844L360.836 191.104Z" fill="#653E9B" stroke="white"/>
<path d="M384.254 177.013C386.445 179.499 390.255 179.753 392.574 177.386C399.294 170.526 404.768 162.528 408.733 153.748C412.698 144.968 415.079 135.572 415.781 125.995C416.023 122.69 413.314 120 410 120H383C379.686 120 377.043 122.699 376.582 125.981C376.015 130.017 374.876 133.963 373.189 137.697C371.503 141.431 369.297 144.895 366.643 147.989C364.486 150.505 364.21 154.273 366.401 156.759L384.254 177.013Z" fill="#653E9B" stroke="white"/>
<path d="M409.104 87.0856L427.422 79.0577" stroke="#653E9B"/>
<path d="M434.206 70.3305H435.263V76.1089C435.263 76.7055 435.123 77.2381 434.841 77.7069C434.563 78.1728 434.17 78.5407 433.661 78.8106C433.152 79.0776 432.556 79.2111 431.871 79.2111C431.187 79.2111 430.59 79.0776 430.081 78.8106C429.573 78.5407 429.178 78.1728 428.897 77.7069C428.618 77.2381 428.479 76.7055 428.479 76.1089V70.3305H429.536V76.0236C429.536 76.4498 429.63 76.829 429.817 77.1614C430.005 77.491 430.272 77.7509 430.618 77.9413C430.968 78.1288 431.385 78.2225 431.871 78.2225C432.357 78.2225 432.775 78.1288 433.124 77.9413C433.474 77.7509 433.741 77.491 433.925 77.1614C434.113 76.829 434.206 76.4498 434.206 76.0236V70.3305ZM438.431 70.3305V79.0577H437.374V70.3305H438.431ZM443.498 69.9214L440.686 80.3702H439.765L442.578 69.9214H443.498ZM450.554 70.3305H451.611V76.1089C451.611 76.7055 451.47 77.2381 451.189 77.7069C450.911 78.1728 450.517 78.5407 450.009 78.8106C449.5 79.0776 448.904 79.2111 448.219 79.2111C447.534 79.2111 446.938 79.0776 446.429 78.8106C445.921 78.5407 445.526 78.1728 445.244 77.7069C444.966 77.2381 444.827 76.7055 444.827 76.1089V70.3305H445.884V76.0236C445.884 76.4498 445.977 76.829 446.165 77.1614C446.352 77.491 446.619 77.7509 446.966 77.9413C447.315 78.1288 447.733 78.2225 448.219 78.2225C448.705 78.2225 449.122 78.1288 449.472 77.9413C449.821 77.7509 450.088 77.491 450.273 77.1614C450.46 76.829 450.554 76.4498 450.554 76.0236V70.3305ZM454.233 70.3305L456.483 73.9611H456.551L458.801 70.3305H460.045L457.301 74.6941L460.045 79.0577H458.801L456.551 75.4952H456.483L454.233 79.0577H452.988L455.801 74.6941L452.988 70.3305H454.233ZM467.489 79.0577H464.796V70.3305H467.608C468.455 70.3305 469.179 70.5052 469.781 70.8546C470.384 71.2012 470.845 71.6998 471.166 72.3504C471.487 72.9981 471.648 73.7736 471.648 74.6771C471.648 75.5861 471.486 76.3688 471.162 77.0251C470.838 77.6785 470.367 78.1813 469.747 78.5336C469.128 78.883 468.375 79.0577 467.489 79.0577ZM465.852 78.1202H467.421C468.142 78.1202 468.74 77.981 469.215 77.7026C469.689 77.4242 470.043 77.0279 470.276 76.5137C470.509 75.9995 470.625 75.3873 470.625 74.6771C470.625 73.9725 470.51 73.366 470.28 72.8575C470.05 72.3461 469.706 71.954 469.249 71.6813C468.791 71.4058 468.222 71.268 467.54 71.268H465.852V78.1202ZM476.029 79.1941C475.398 79.1941 474.854 79.0549 474.396 78.7765C473.942 78.4952 473.591 78.1032 473.344 77.6004C473.1 77.0947 472.977 76.5066 472.977 75.8361C472.977 75.1657 473.1 74.5748 473.344 74.0634C473.591 73.5492 473.935 73.1486 474.375 72.8617C474.818 72.5719 475.335 72.4271 475.926 72.4271C476.267 72.4271 476.604 72.4839 476.936 72.5975C477.269 72.7111 477.571 72.8958 477.844 73.1515C478.117 73.4043 478.334 73.7396 478.496 74.1572C478.658 74.5748 478.739 75.089 478.739 75.6998V76.1259H473.693V75.2566H477.716C477.716 74.8873 477.642 74.5577 477.494 74.268C477.35 73.9782 477.142 73.7495 476.872 73.5819C476.605 73.4143 476.29 73.3305 475.926 73.3305C475.526 73.3305 475.179 73.4299 474.886 73.6288C474.597 73.8248 474.374 74.0805 474.217 74.3958C474.061 74.7111 473.983 75.0492 473.983 75.41V75.9896C473.983 76.4839 474.068 76.9029 474.239 77.2467C474.412 77.5876 474.652 77.8475 474.959 78.0265C475.266 78.2026 475.622 78.2907 476.029 78.2907C476.293 78.2907 476.531 78.2538 476.744 78.1799C476.96 78.1032 477.146 77.9896 477.303 77.839C477.459 77.6856 477.58 77.4952 477.665 77.268L478.636 77.5407C478.534 77.8702 478.362 78.16 478.121 78.41C477.879 78.6572 477.581 78.8504 477.226 78.9896C476.871 79.1259 476.472 79.1941 476.029 79.1941ZM484.905 73.9782L484.002 74.2339C483.945 74.0833 483.861 73.937 483.75 73.795C483.642 73.6501 483.494 73.5308 483.307 73.437C483.119 73.3433 482.879 73.2964 482.587 73.2964C482.186 73.2964 481.852 73.3887 481.585 73.5734C481.321 73.7552 481.189 73.9867 481.189 74.268C481.189 74.518 481.28 74.7154 481.462 74.8603C481.644 75.0052 481.928 75.1259 482.314 75.2225L483.286 75.4611C483.871 75.6032 484.307 75.8205 484.594 76.1131C484.881 76.4029 485.024 76.7765 485.024 77.2339C485.024 77.6089 484.916 77.9441 484.7 78.2396C484.487 78.535 484.189 78.768 483.806 78.9384C483.422 79.1089 482.976 79.1941 482.467 79.1941C481.8 79.1941 481.247 79.0492 480.81 78.7594C480.372 78.4697 480.095 78.0464 479.979 77.4896L480.933 77.2509C481.024 77.6032 481.196 77.8674 481.449 78.0435C481.705 78.2197 482.038 78.3077 482.45 78.3077C482.919 78.3077 483.291 78.2083 483.567 78.0094C483.845 77.8077 483.985 77.5663 483.985 77.285C483.985 77.0577 483.905 76.8674 483.746 76.714C483.587 76.5577 483.342 76.4413 483.013 76.3646L481.922 76.1089C481.323 75.9668 480.882 75.7467 480.601 75.4484C480.323 75.1472 480.183 74.7708 480.183 74.3191C480.183 73.9498 480.287 73.6231 480.494 73.339C480.705 73.0549 480.99 72.8319 481.351 72.67C481.715 72.508 482.127 72.4271 482.587 72.4271C483.235 72.4271 483.743 72.5691 484.112 72.8532C484.485 73.1373 484.749 73.5123 484.905 73.9782ZM486.538 79.0577V72.5123H487.544V79.0577H486.538ZM487.049 71.4214C486.853 71.4214 486.684 71.3546 486.542 71.2211C486.403 71.0876 486.334 70.9271 486.334 70.7396C486.334 70.5521 486.403 70.3915 486.542 70.258C486.684 70.1245 486.853 70.0577 487.049 70.0577C487.246 70.0577 487.413 70.1245 487.552 70.258C487.694 70.3915 487.765 70.5521 487.765 70.7396C487.765 70.9271 487.694 71.0876 487.552 71.2211C487.413 71.3546 487.246 71.4214 487.049 71.4214ZM492.028 81.6486C491.542 81.6486 491.124 81.5861 490.775 81.4611C490.426 81.339 490.134 81.1771 489.901 80.9754C489.671 80.7765 489.488 80.5634 489.352 80.3361L490.153 79.7736C490.244 79.893 490.359 80.0293 490.498 80.1827C490.637 80.339 490.828 80.4739 491.069 80.5876C491.313 80.704 491.633 80.7623 492.028 80.7623C492.556 80.7623 492.992 80.6344 493.336 80.3788C493.68 80.1231 493.852 79.7225 493.852 79.1771V77.8475H493.766C493.693 77.9668 493.587 78.1146 493.451 78.2907C493.318 78.464 493.124 78.6188 492.872 78.7552C492.622 78.8887 492.284 78.9555 491.857 78.9555C491.329 78.9555 490.855 78.8305 490.434 78.5805C490.016 78.3305 489.686 77.9668 489.441 77.4896C489.2 77.0123 489.079 76.4327 489.079 75.7509C489.079 75.0805 489.197 74.4967 489.433 73.9995C489.668 73.4995 489.997 73.1131 490.417 72.8404C490.837 72.5648 491.323 72.4271 491.874 72.4271C492.301 72.4271 492.639 72.4981 492.889 72.6401C493.141 72.7793 493.335 72.9384 493.468 73.1174C493.605 73.2935 493.71 73.4384 493.784 73.5521H493.886V72.5123H494.857V79.2452C494.857 79.8077 494.73 80.2651 494.474 80.6174C494.221 80.9725 493.88 81.2325 493.451 81.3972C493.025 81.5648 492.551 81.6486 492.028 81.6486ZM491.994 78.0521C492.397 78.0521 492.738 77.9597 493.016 77.7751C493.295 77.5904 493.507 77.3248 493.651 76.9782C493.796 76.6316 493.869 76.2168 493.869 75.7339C493.869 75.2623 493.798 74.8461 493.656 74.4853C493.514 74.1245 493.303 73.8418 493.025 73.6373C492.747 73.4327 492.403 73.3305 491.994 73.3305C491.568 73.3305 491.212 73.4384 490.928 73.6543C490.647 73.8702 490.436 74.16 490.293 74.5236C490.154 74.8873 490.085 75.2907 490.085 75.7339C490.085 76.1884 490.156 76.5904 490.298 76.9398C490.443 77.2864 490.656 77.5592 490.937 77.758C491.221 77.954 491.573 78.0521 491.994 78.0521ZM497.704 75.1202V79.0577H496.698V72.5123H497.67V73.535H497.755C497.909 73.2026 498.141 72.9356 498.454 72.7339C498.766 72.5293 499.17 72.4271 499.664 72.4271C500.107 72.4271 500.495 72.518 500.828 72.6998C501.16 72.8788 501.418 73.1515 501.603 73.518C501.788 73.8816 501.88 74.3418 501.88 74.8986V79.0577H500.874V74.9668C500.874 74.4526 500.741 74.0521 500.474 73.7651C500.207 73.4754 499.84 73.3305 499.374 73.3305C499.053 73.3305 498.766 73.4001 498.514 73.5393C498.264 73.6785 498.066 73.8816 497.921 74.1486C497.776 74.4157 497.704 74.7396 497.704 75.1202Z" fill="#653E9B"/>
<path d="M336.907 38.0515L337.616 18.0641" stroke="#653E9B"/>
<path d="M341.366 18.0641H338.673V9.33681H341.486C342.332 9.33681 343.057 9.51153 343.659 9.86096C344.261 10.2076 344.723 10.7061 345.044 11.3567C345.365 12.0044 345.526 12.78 345.526 13.6834C345.526 14.5925 345.364 15.3752 345.04 16.0314C344.716 16.6848 344.244 17.1877 343.625 17.5399C343.006 17.8894 342.253 18.0641 341.366 18.0641ZM339.73 17.1266H341.298C342.02 17.1266 342.618 16.9874 343.092 16.709C343.567 16.4306 343.92 16.0343 344.153 15.5201C344.386 15.0058 344.503 14.3936 344.503 13.6834C344.503 12.9789 344.388 12.3723 344.158 11.8638C343.928 11.3524 343.584 10.9604 343.126 10.6877C342.669 10.4121 342.099 10.2743 341.418 10.2743H339.73V17.1266ZM347.162 18.0641V11.5186H348.168V18.0641H347.162ZM347.673 10.4277C347.477 10.4277 347.308 10.361 347.166 10.2274C347.027 10.0939 346.957 9.93341 346.957 9.74591C346.957 9.55841 347.027 9.39789 347.166 9.26437C347.308 9.13085 347.477 9.06409 347.673 9.06409C347.869 9.06409 348.037 9.13085 348.176 9.26437C348.318 9.39789 348.389 9.55841 348.389 9.74591C348.389 9.93341 348.318 10.0939 348.176 10.2274C348.037 10.361 347.869 10.4277 347.673 10.4277ZM352.652 20.655C352.166 20.655 351.748 20.5925 351.399 20.4675C351.049 20.3453 350.758 20.1834 350.525 19.9817C350.295 19.7828 350.112 19.5698 349.975 19.3425L350.777 18.78C350.868 18.8993 350.983 19.0357 351.122 19.1891C351.261 19.3453 351.451 19.4803 351.693 19.5939C351.937 19.7104 352.257 19.7686 352.652 19.7686C353.18 19.7686 353.616 19.6408 353.96 19.3851C354.304 19.1294 354.475 18.7289 354.475 18.1834V16.8539H354.39C354.316 16.9732 354.211 17.1209 354.075 17.297C353.941 17.4703 353.748 17.6252 353.495 17.7615C353.245 17.8951 352.907 17.9618 352.481 17.9618C351.953 17.9618 351.478 17.8368 351.058 17.5868C350.64 17.3368 350.309 16.9732 350.065 16.4959C349.823 16.0186 349.703 15.4391 349.703 14.7573C349.703 14.0868 349.821 13.503 350.056 13.0058C350.292 12.5058 350.62 12.1195 351.041 11.8468C351.461 11.5712 351.947 11.4334 352.498 11.4334C352.924 11.4334 353.262 11.5044 353.512 11.6465C353.765 11.7857 353.958 11.9448 354.092 12.1237C354.228 12.2999 354.333 12.4448 354.407 12.5584H354.51V11.5186H355.481V18.2516C355.481 18.8141 355.353 19.2715 355.098 19.6237C354.845 19.9789 354.504 20.2388 354.075 20.4036C353.649 20.5712 353.174 20.655 352.652 20.655ZM352.618 17.0584C353.021 17.0584 353.362 16.9661 353.64 16.7814C353.919 16.5968 354.13 16.3311 354.275 15.9845C354.42 15.638 354.493 15.2232 354.493 14.7402C354.493 14.2686 354.421 13.8524 354.279 13.4916C354.137 13.1308 353.927 12.8482 353.649 12.6436C353.37 12.4391 353.027 12.3368 352.618 12.3368C352.191 12.3368 351.836 12.4448 351.552 12.6607C351.271 12.8766 351.059 13.1664 350.917 13.53C350.778 13.8936 350.708 14.297 350.708 14.7402C350.708 15.1948 350.779 15.5968 350.921 15.9462C351.066 16.2928 351.279 16.5655 351.561 16.7644C351.845 16.9604 352.197 17.0584 352.618 17.0584ZM357.322 18.0641V11.5186H358.328V18.0641H357.322ZM357.833 10.4277C357.637 10.4277 357.468 10.361 357.326 10.2274C357.187 10.0939 357.118 9.93341 357.118 9.74591C357.118 9.55841 357.187 9.39789 357.326 9.26437C357.468 9.13085 357.637 9.06409 357.833 9.06409C358.029 9.06409 358.197 9.13085 358.336 9.26437C358.478 9.39789 358.549 9.55841 358.549 9.74591C358.549 9.93341 358.478 10.0939 358.336 10.2274C358.197 10.361 358.029 10.4277 357.833 10.4277ZM363.016 11.5186V12.3709H359.624V11.5186H363.016ZM360.613 9.95045H361.619V16.1891C361.619 16.4732 361.66 16.6862 361.742 16.8283C361.827 16.9675 361.935 17.0612 362.066 17.1095C362.2 17.155 362.34 17.1777 362.488 17.1777C362.599 17.1777 362.69 17.172 362.761 17.1607C362.832 17.1465 362.888 17.1351 362.931 17.1266L363.136 18.03C363.067 18.0556 362.972 18.0811 362.85 18.1067C362.728 18.1351 362.573 18.1493 362.386 18.1493C362.102 18.1493 361.823 18.0882 361.55 17.9661C361.281 17.8439 361.056 17.6578 360.877 17.4078C360.701 17.1578 360.613 16.8425 360.613 16.4618V9.95045ZM366.455 18.2175C366.04 18.2175 365.664 18.1394 365.326 17.9831C364.988 17.824 364.719 17.5953 364.521 17.297C364.322 16.9959 364.222 16.6323 364.222 16.2061C364.222 15.8311 364.296 15.5272 364.444 15.2942C364.592 15.0584 364.789 14.8737 365.036 14.7402C365.283 14.6067 365.556 14.5073 365.854 14.4419C366.156 14.3737 366.458 14.3198 366.762 14.28C367.16 14.2289 367.482 14.1905 367.729 14.1649C367.979 14.1365 368.161 14.0897 368.275 14.0243C368.391 13.959 368.45 13.8453 368.45 13.6834V13.6493C368.45 13.2289 368.334 12.9022 368.104 12.6692C367.877 12.4362 367.532 12.3198 367.069 12.3198C366.589 12.3198 366.212 12.4249 365.94 12.6351C365.667 12.8453 365.475 13.0698 365.364 13.3084L364.41 12.9675C364.58 12.5698 364.808 12.2601 365.092 12.0385C365.379 11.8141 365.691 11.6578 366.029 11.5698C366.37 11.4789 366.705 11.4334 367.035 11.4334C367.245 11.4334 367.486 11.459 367.759 11.5101C368.035 11.5584 368.3 11.6593 368.556 11.8127C368.815 11.9661 369.029 12.1976 369.2 12.5073C369.37 12.8169 369.455 13.2317 369.455 13.7516V18.0641H368.45V17.1777H368.398C368.33 17.3198 368.217 17.4718 368.058 17.6337C367.898 17.7956 367.687 17.9334 367.423 18.047C367.158 18.1607 366.836 18.2175 366.455 18.2175ZM366.609 17.3141C367.006 17.3141 367.342 17.236 367.614 17.0797C367.89 16.9235 368.097 16.7218 368.236 16.4746C368.379 16.2274 368.45 15.9675 368.45 15.6948V14.7743C368.407 14.8255 368.313 14.8723 368.168 14.9149C368.026 14.9547 367.861 14.9902 367.674 15.0215C367.489 15.0499 367.309 15.0755 367.133 15.0982C366.959 15.1181 366.819 15.1351 366.711 15.1493C366.45 15.1834 366.205 15.2388 365.978 15.3155C365.754 15.3894 365.572 15.5016 365.433 15.6522C365.296 15.7999 365.228 16.0016 365.228 16.2573C365.228 16.6067 365.357 16.8709 365.616 17.0499C365.877 17.226 366.208 17.3141 366.609 17.3141ZM372.296 9.33681V18.0641H371.291V9.33681H372.296ZM377.65 9.33681H378.911L381.877 16.5811H381.979L384.945 9.33681H386.207V18.0641H385.218V11.4334H385.133L382.406 18.0641H381.451L378.724 11.4334H378.638V18.0641H377.65V9.33681ZM390.115 18.2175C389.701 18.2175 389.324 18.1394 388.986 17.9831C388.648 17.824 388.38 17.5953 388.181 17.297C387.982 16.9959 387.882 16.6323 387.882 16.2061C387.882 15.8311 387.956 15.5272 388.104 15.2942C388.252 15.0584 388.449 14.8737 388.696 14.7402C388.944 14.6067 389.216 14.5073 389.515 14.4419C389.816 14.3737 390.118 14.3198 390.422 14.28C390.82 14.2289 391.142 14.1905 391.39 14.1649C391.64 14.1365 391.821 14.0897 391.935 14.0243C392.051 13.959 392.11 13.8453 392.11 13.6834V13.6493C392.11 13.2289 391.995 12.9022 391.765 12.6692C391.537 12.4362 391.192 12.3198 390.729 12.3198C390.249 12.3198 389.872 12.4249 389.6 12.6351C389.327 12.8453 389.135 13.0698 389.024 13.3084L388.07 12.9675C388.24 12.5698 388.468 12.2601 388.752 12.0385C389.039 11.8141 389.351 11.6578 389.689 11.5698C390.03 11.4789 390.365 11.4334 390.695 11.4334C390.905 11.4334 391.147 11.459 391.419 11.5101C391.695 11.5584 391.961 11.6593 392.216 11.8127C392.475 11.9661 392.689 12.1976 392.86 12.5073C393.03 12.8169 393.115 13.2317 393.115 13.7516V18.0641H392.11V17.1777H392.059C391.99 17.3198 391.877 17.4718 391.718 17.6337C391.559 17.7956 391.347 17.9334 391.083 18.047C390.819 18.1607 390.496 18.2175 390.115 18.2175ZM390.269 17.3141C390.667 17.3141 391.002 17.236 391.274 17.0797C391.55 16.9235 391.757 16.7218 391.897 16.4746C392.039 16.2274 392.11 15.9675 392.11 15.6948V14.7743C392.067 14.8255 391.973 14.8723 391.828 14.9149C391.686 14.9547 391.522 14.9902 391.334 15.0215C391.149 15.0499 390.969 15.0755 390.793 15.0982C390.62 15.1181 390.479 15.1351 390.371 15.1493C390.11 15.1834 389.865 15.2388 389.638 15.3155C389.414 15.3894 389.232 15.5016 389.093 15.6522C388.956 15.7999 388.888 16.0016 388.888 16.2573C388.888 16.6067 389.017 16.8709 389.276 17.0499C389.537 17.226 389.868 17.3141 390.269 17.3141ZM394.951 18.0641V11.5186H395.923V12.5073H395.991C396.11 12.1834 396.326 11.9206 396.638 11.7189C396.951 11.5172 397.303 11.4164 397.695 11.4164C397.769 11.4164 397.861 11.4178 397.972 11.4206C398.083 11.4235 398.167 11.4277 398.224 11.4334V12.4561C398.19 12.4476 398.111 12.4348 397.989 12.4178C397.87 12.3979 397.744 12.388 397.61 12.388C397.292 12.388 397.008 12.4547 396.758 12.5882C396.511 12.7189 396.315 12.9007 396.17 13.1337C396.028 13.3638 395.957 13.6266 395.957 13.922V18.0641H394.951ZM400.353 15.6777L400.336 14.4334H400.541L403.404 11.5186H404.649L401.598 14.6039H401.512L400.353 15.6777ZM399.416 18.0641V9.33681H400.421V18.0641H399.416ZM403.575 18.0641L401.018 14.8255L401.734 14.1266L404.853 18.0641H403.575ZM408.418 18.2005C407.787 18.2005 407.243 18.0612 406.786 17.7828C406.331 17.5016 405.98 17.1095 405.733 16.6067C405.489 16.101 405.367 15.513 405.367 14.8425C405.367 14.172 405.489 13.5811 405.733 13.0698C405.98 12.5556 406.324 12.155 406.765 11.8681C407.208 11.5783 407.725 11.4334 408.316 11.4334C408.657 11.4334 408.993 11.4902 409.326 11.6039C409.658 11.7175 409.961 11.9022 410.233 12.1578C410.506 12.4107 410.723 12.7459 410.885 13.1635C411.047 13.5811 411.128 14.0953 411.128 14.7061V15.1323H406.083V14.263H410.105C410.105 13.8936 410.032 13.5641 409.884 13.2743C409.739 12.9845 409.532 12.7558 409.262 12.5882C408.995 12.4206 408.679 12.3368 408.316 12.3368C407.915 12.3368 407.569 12.4362 407.276 12.6351C406.986 12.8311 406.763 13.0868 406.607 13.4022C406.451 13.7175 406.372 14.0556 406.372 14.4164V14.9959C406.372 15.4902 406.458 15.9093 406.628 16.253C406.801 16.5939 407.042 16.8539 407.348 17.0328C407.655 17.209 408.012 17.297 408.418 17.297C408.682 17.297 408.921 17.2601 409.134 17.1862C409.35 17.1095 409.536 16.9959 409.692 16.8453C409.848 16.6919 409.969 16.5016 410.054 16.2743L411.026 16.547C410.924 16.8766 410.752 17.1664 410.51 17.4164C410.269 17.6635 409.971 17.8567 409.615 17.9959C409.26 18.1323 408.861 18.2005 408.418 18.2005ZM415.505 11.5186V12.3709H412.113V11.5186H415.505ZM413.101 9.95045H414.107V16.1891C414.107 16.4732 414.148 16.6862 414.23 16.8283C414.316 16.9675 414.424 17.0612 414.554 17.1095C414.688 17.155 414.828 17.1777 414.976 17.1777C415.087 17.1777 415.178 17.172 415.249 17.1607C415.32 17.1465 415.377 17.1351 415.419 17.1266L415.624 18.03C415.556 18.0556 415.461 18.0811 415.338 18.1067C415.216 18.1351 415.061 18.1493 414.874 18.1493C414.59 18.1493 414.311 18.0882 414.039 17.9661C413.769 17.8439 413.544 17.6578 413.365 17.4078C413.189 17.1578 413.101 16.8425 413.101 16.4618V9.95045ZM417.017 18.0641V11.5186H418.023V18.0641H417.017ZM417.529 10.4277C417.333 10.4277 417.164 10.361 417.022 10.2274C416.882 10.0939 416.813 9.93341 416.813 9.74591C416.813 9.55841 416.882 9.39789 417.022 9.26437C417.164 9.13085 417.333 9.06409 417.529 9.06409C417.725 9.06409 417.892 9.13085 418.032 9.26437C418.174 9.39789 418.245 9.55841 418.245 9.74591C418.245 9.93341 418.174 10.0939 418.032 10.2274C417.892 10.361 417.725 10.4277 417.529 10.4277ZM420.871 14.1266V18.0641H419.865V11.5186H420.837V12.5414H420.922C421.075 12.209 421.308 11.9419 421.621 11.7402C421.933 11.5357 422.337 11.4334 422.831 11.4334C423.274 11.4334 423.662 11.5243 423.994 11.7061C424.327 11.8851 424.585 12.1578 424.77 12.5243C424.955 12.888 425.047 13.3482 425.047 13.905V18.0641H424.041V13.9732C424.041 13.459 423.908 13.0584 423.641 12.7715C423.374 12.4817 423.007 12.3368 422.541 12.3368C422.22 12.3368 421.933 12.4064 421.68 12.5456C421.43 12.6848 421.233 12.888 421.088 13.155C420.943 13.422 420.871 13.7459 420.871 14.1266ZM429.527 20.655C429.041 20.655 428.623 20.5925 428.274 20.4675C427.924 20.3453 427.633 20.1834 427.4 19.9817C427.17 19.7828 426.987 19.5698 426.85 19.3425L427.652 18.78C427.743 18.8993 427.858 19.0357 427.997 19.1891C428.136 19.3453 428.326 19.4803 428.568 19.5939C428.812 19.7104 429.132 19.7686 429.527 19.7686C430.055 19.7686 430.491 19.6408 430.835 19.3851C431.179 19.1294 431.35 18.7289 431.35 18.1834V16.8539H431.265C431.191 16.9732 431.086 17.1209 430.95 17.297C430.816 17.4703 430.623 17.6252 430.37 17.7615C430.12 17.8951 429.782 17.9618 429.356 17.9618C428.828 17.9618 428.353 17.8368 427.933 17.5868C427.515 17.3368 427.184 16.9732 426.94 16.4959C426.698 16.0186 426.578 15.4391 426.578 14.7573C426.578 14.0868 426.696 13.503 426.931 13.0058C427.167 12.5058 427.495 12.1195 427.916 11.8468C428.336 11.5712 428.822 11.4334 429.373 11.4334C429.799 11.4334 430.137 11.5044 430.387 11.6465C430.64 11.7857 430.833 11.9448 430.967 12.1237C431.103 12.2999 431.208 12.4448 431.282 12.5584H431.385V11.5186H432.356V18.2516C432.356 18.8141 432.228 19.2715 431.973 19.6237C431.72 19.9789 431.379 20.2388 430.95 20.4036C430.524 20.5712 430.049 20.655 429.527 20.655ZM429.493 17.0584C429.896 17.0584 430.237 16.9661 430.515 16.7814C430.794 16.5968 431.005 16.3311 431.15 15.9845C431.295 15.638 431.368 15.2232 431.368 14.7402C431.368 14.2686 431.296 13.8524 431.154 13.4916C431.012 13.1308 430.802 12.8482 430.524 12.6436C430.245 12.4391 429.902 12.3368 429.493 12.3368C429.066 12.3368 428.711 12.4448 428.427 12.6607C428.146 12.8766 427.934 13.1664 427.792 13.53C427.653 13.8936 427.583 14.297 427.583 14.7402C427.583 15.1948 427.654 15.5968 427.796 15.9462C427.941 16.2928 428.154 16.5655 428.436 16.7644C428.72 16.9604 429.072 17.0584 429.493 17.0584Z" fill="#653E9B"/>
<path d="M270.892 67.6417L255.5 54.8713" stroke="#653E9B"/>
<path d="M127.065 54.8713V46.1441H132.298V47.0816H128.121V50.0304H131.905V50.9679H128.121V54.8713H127.065ZM133.901 54.8713V48.3259H134.872V49.3145H134.941C135.06 48.9907 135.276 48.7279 135.588 48.5262C135.901 48.3245 136.253 48.2236 136.645 48.2236C136.719 48.2236 136.811 48.225 136.922 48.2279C137.033 48.2307 137.117 48.235 137.174 48.2407V49.2634C137.139 49.2549 137.061 49.2421 136.939 49.225C136.82 49.2051 136.693 49.1952 136.56 49.1952C136.242 49.1952 135.958 49.262 135.708 49.3955C135.461 49.5262 135.264 49.708 135.12 49.9409C134.978 50.1711 134.907 50.4338 134.907 50.7293V54.8713H133.901ZM140.826 55.0077C140.235 55.0077 139.716 54.8671 139.27 54.5858C138.827 54.3046 138.48 53.9111 138.23 53.4054C137.983 52.8997 137.86 52.3088 137.86 51.6327C137.86 50.9509 137.983 50.3557 138.23 49.8472C138.48 49.3387 138.827 48.9438 139.27 48.6625C139.716 48.3813 140.235 48.2407 140.826 48.2407C141.416 48.2407 141.934 48.3813 142.377 48.6625C142.823 48.9438 143.169 49.3387 143.416 49.8472C143.666 50.3557 143.791 50.9509 143.791 51.6327C143.791 52.3088 143.666 52.8997 143.416 53.4054C143.169 53.9111 142.823 54.3046 142.377 54.5858C141.934 54.8671 141.416 55.0077 140.826 55.0077ZM140.826 54.1043C141.274 54.1043 141.644 53.9892 141.934 53.7591C142.223 53.529 142.438 53.2265 142.577 52.8515C142.716 52.4765 142.786 52.0702 142.786 51.6327C142.786 51.1952 142.716 50.7875 142.577 50.4097C142.438 50.0318 142.223 49.7265 141.934 49.4935C141.644 49.2605 141.274 49.1441 140.826 49.1441C140.377 49.1441 140.007 49.2605 139.718 49.4935C139.428 49.7265 139.213 50.0318 139.074 50.4097C138.935 50.7875 138.865 51.1952 138.865 51.6327C138.865 52.0702 138.935 52.4765 139.074 52.8515C139.213 53.2265 139.428 53.529 139.718 53.7591C140.007 53.9892 140.377 54.1043 140.826 54.1043ZM146.332 50.9338V54.8713H145.327V48.3259H146.298V49.3486H146.383C146.537 49.0162 146.77 48.7492 147.082 48.5475C147.395 48.3429 147.798 48.2407 148.293 48.2407C148.736 48.2407 149.124 48.3316 149.456 48.5134C149.788 48.6924 150.047 48.9651 150.231 49.3316C150.416 49.6952 150.508 50.1554 150.508 50.7122V54.8713H149.503V50.7804C149.503 50.2662 149.369 49.8657 149.102 49.5787C148.835 49.289 148.469 49.1441 148.003 49.1441C147.682 49.1441 147.395 49.2137 147.142 49.3529C146.892 49.4921 146.695 49.6952 146.55 49.9622C146.405 50.2293 146.332 50.5532 146.332 50.9338ZM155.193 48.3259V49.1782H151.801V48.3259H155.193ZM152.789 46.7577H153.795V52.9963C153.795 53.2804 153.836 53.4935 153.919 53.6355C154.004 53.7747 154.112 53.8685 154.242 53.9168C154.376 53.9622 154.517 53.985 154.664 53.985C154.775 53.985 154.866 53.9793 154.937 53.9679C155.008 53.9537 155.065 53.9424 155.108 53.9338L155.312 54.8372C155.244 54.8628 155.149 54.8884 155.027 54.914C154.904 54.9424 154.75 54.9566 154.562 54.9566C154.278 54.9566 154 54.8955 153.727 54.7733C153.457 54.6512 153.233 54.4651 153.054 54.2151C152.877 53.9651 152.789 53.6497 152.789 53.2691V46.7577ZM159.38 55.0077C158.749 55.0077 158.205 54.8685 157.747 54.5901C157.293 54.3088 156.942 53.9168 156.695 53.414C156.451 52.9083 156.328 52.3202 156.328 51.6497C156.328 50.9793 156.451 50.3884 156.695 49.877C156.942 49.3628 157.286 48.9622 157.726 48.6753C158.169 48.3855 158.686 48.2407 159.277 48.2407C159.618 48.2407 159.955 48.2975 160.287 48.4111C160.62 48.5247 160.922 48.7094 161.195 48.9651C161.468 49.2179 161.685 49.5532 161.847 49.9708C162.009 50.3884 162.09 50.9026 162.09 51.5134V51.9395H157.044V51.0702H161.067C161.067 50.7009 160.993 50.3713 160.845 50.0816C160.701 49.7918 160.493 49.5631 160.223 49.3955C159.956 49.2279 159.641 49.1441 159.277 49.1441C158.877 49.1441 158.53 49.2435 158.238 49.4424C157.948 49.6384 157.725 49.8941 157.568 50.2094C157.412 50.5247 157.334 50.8628 157.334 51.2236V51.8032C157.334 52.2975 157.419 52.7165 157.59 53.0603C157.763 53.4012 158.003 53.6611 158.31 53.8401C158.617 54.0162 158.973 54.1043 159.38 54.1043C159.644 54.1043 159.882 54.0674 160.095 53.9935C160.311 53.9168 160.497 53.8032 160.654 53.6526C160.81 53.4992 160.931 53.3088 161.016 53.0816L161.988 53.3543C161.885 53.6838 161.713 53.9736 161.472 54.2236C161.23 54.4708 160.932 54.664 160.577 54.8032C160.222 54.9395 159.823 55.0077 159.38 55.0077ZM164.625 50.9338V54.8713H163.62V48.3259H164.591V49.3486H164.676C164.83 49.0162 165.063 48.7492 165.375 48.5475C165.688 48.3429 166.091 48.2407 166.586 48.2407C167.029 48.2407 167.416 48.3316 167.749 48.5134C168.081 48.6924 168.34 48.9651 168.524 49.3316C168.709 49.6952 168.801 50.1554 168.801 50.7122V54.8713H167.796V50.7804C167.796 50.2662 167.662 49.8657 167.395 49.5787C167.128 49.289 166.762 49.1441 166.296 49.1441C165.975 49.1441 165.688 49.2137 165.435 49.3529C165.185 49.4921 164.988 49.6952 164.843 49.9622C164.698 50.2293 164.625 50.5532 164.625 50.9338ZM173.111 55.0077C172.565 55.0077 172.084 54.8699 171.666 54.5943C171.249 54.3159 170.922 53.9239 170.686 53.4182C170.45 52.9097 170.332 52.3088 170.332 51.6157C170.332 50.9282 170.45 50.3316 170.686 49.8259C170.922 49.3202 171.25 48.9296 171.67 48.654C172.091 48.3784 172.577 48.2407 173.128 48.2407C173.554 48.2407 173.891 48.3117 174.138 48.4537C174.388 48.5929 174.578 48.752 174.709 48.931C174.842 49.1071 174.946 49.252 175.02 49.3657H175.105V46.1441H176.111V54.8713H175.139V53.8657H175.02C174.946 53.985 174.841 54.1355 174.704 54.3174C174.568 54.4963 174.374 54.6568 174.121 54.7989C173.868 54.9381 173.531 55.0077 173.111 55.0077ZM173.247 54.1043C173.651 54.1043 173.991 53.9992 174.27 53.789C174.548 53.5759 174.76 53.2818 174.905 52.9068C175.05 52.529 175.122 52.0929 175.122 51.5986C175.122 51.11 175.051 50.6824 174.909 50.3159C174.767 49.9466 174.557 49.6597 174.278 49.4551C174 49.2478 173.656 49.1441 173.247 49.1441C172.821 49.1441 172.466 49.2534 172.182 49.4722C171.901 49.6881 171.689 49.9821 171.547 50.3543C171.408 50.7236 171.338 51.1384 171.338 51.5986C171.338 52.0645 171.409 52.4878 171.551 52.8685C171.696 53.2463 171.909 53.5475 172.19 53.7719C172.474 53.9935 172.827 54.1043 173.247 54.1043ZM184.297 54.8713H181.604V46.1441H184.416C185.263 46.1441 185.987 46.3188 186.589 46.6682C187.192 47.0148 187.653 47.5134 187.974 48.164C188.295 48.8117 188.456 49.5872 188.456 50.4907C188.456 51.3997 188.294 52.1824 187.97 52.8387C187.646 53.4921 187.175 53.9949 186.555 54.3472C185.936 54.6966 185.183 54.8713 184.297 54.8713ZM182.66 53.9338H184.229C184.95 53.9338 185.548 53.7946 186.023 53.5162C186.497 53.2378 186.851 52.8415 187.084 52.3273C187.317 51.8131 187.433 51.2009 187.433 50.4907C187.433 49.7861 187.318 49.1796 187.088 48.6711C186.858 48.1597 186.514 47.7676 186.057 47.4949C185.599 47.2193 185.03 47.0816 184.348 47.0816H182.66V53.9338ZM192.837 55.0077C192.206 55.0077 191.662 54.8685 191.204 54.5901C190.75 54.3088 190.399 53.9168 190.152 53.414C189.908 52.9083 189.785 52.3202 189.785 51.6497C189.785 50.9793 189.908 50.3884 190.152 49.877C190.399 49.3628 190.743 48.9622 191.183 48.6753C191.626 48.3855 192.143 48.2407 192.734 48.2407C193.075 48.2407 193.412 48.2975 193.744 48.4111C194.077 48.5247 194.379 48.7094 194.652 48.9651C194.925 49.2179 195.142 49.5532 195.304 49.9708C195.466 50.3884 195.547 50.9026 195.547 51.5134V51.9395H190.501V51.0702H194.524C194.524 50.7009 194.45 50.3713 194.302 50.0816C194.158 49.7918 193.95 49.5631 193.68 49.3955C193.413 49.2279 193.098 49.1441 192.734 49.1441C192.334 49.1441 191.987 49.2435 191.695 49.4424C191.405 49.6384 191.182 49.8941 191.026 50.2094C190.869 50.5247 190.791 50.8628 190.791 51.2236V51.8032C190.791 52.2975 190.876 52.7165 191.047 53.0603C191.22 53.4012 191.46 53.6611 191.767 53.8401C192.074 54.0162 192.43 54.1043 192.837 54.1043C193.101 54.1043 193.339 54.0674 193.552 53.9935C193.768 53.9168 193.954 53.8032 194.111 53.6526C194.267 53.4992 194.388 53.3088 194.473 53.0816L195.445 53.3543C195.342 53.6838 195.17 53.9736 194.929 54.2236C194.687 54.4708 194.389 54.664 194.034 54.8032C193.679 54.9395 193.28 55.0077 192.837 55.0077ZM202.23 48.3259L199.809 54.8713H198.787L196.366 48.3259H197.457L199.264 53.5418H199.332L201.139 48.3259H202.23ZM206.067 55.0077C205.436 55.0077 204.892 54.8685 204.435 54.5901C203.98 54.3088 203.63 53.9168 203.382 53.414C203.138 52.9083 203.016 52.3202 203.016 51.6497C203.016 50.9793 203.138 50.3884 203.382 49.877C203.63 49.3628 203.973 48.9622 204.414 48.6753C204.857 48.3855 205.374 48.2407 205.965 48.2407C206.306 48.2407 206.642 48.2975 206.975 48.4111C207.307 48.5247 207.61 48.7094 207.882 48.9651C208.155 49.2179 208.372 49.5532 208.534 49.9708C208.696 50.3884 208.777 50.9026 208.777 51.5134V51.9395H203.732V51.0702H207.755C207.755 50.7009 207.681 50.3713 207.533 50.0816C207.388 49.7918 207.181 49.5631 206.911 49.3955C206.644 49.2279 206.328 49.1441 205.965 49.1441C205.564 49.1441 205.218 49.2435 204.925 49.4424C204.635 49.6384 204.412 49.8941 204.256 50.2094C204.1 50.5247 204.022 50.8628 204.022 51.2236V51.8032C204.022 52.2975 204.107 52.7165 204.277 53.0603C204.451 53.4012 204.691 53.6611 204.997 53.8401C205.304 54.0162 205.661 54.1043 206.067 54.1043C206.331 54.1043 206.57 54.0674 206.783 53.9935C206.999 53.9168 207.185 53.8032 207.341 53.6526C207.497 53.4992 207.618 53.3088 207.703 53.0816L208.675 53.3543C208.573 53.6838 208.401 53.9736 208.159 54.2236C207.918 54.4708 207.62 54.664 207.264 54.8032C206.909 54.9395 206.51 55.0077 206.067 55.0077ZM211.313 46.1441V54.8713H210.307V46.1441H211.313ZM215.814 55.0077C215.223 55.0077 214.704 54.8671 214.258 54.5858C213.815 54.3046 213.469 53.9111 213.219 53.4054C212.972 52.8997 212.848 52.3088 212.848 51.6327C212.848 50.9509 212.972 50.3557 213.219 49.8472C213.469 49.3387 213.815 48.9438 214.258 48.6625C214.704 48.3813 215.223 48.2407 215.814 48.2407C216.405 48.2407 216.922 48.3813 217.365 48.6625C217.811 48.9438 218.158 49.3387 218.405 49.8472C218.655 50.3557 218.78 50.9509 218.78 51.6327C218.78 52.3088 218.655 52.8997 218.405 53.4054C218.158 53.9111 217.811 54.3046 217.365 54.5858C216.922 54.8671 216.405 55.0077 215.814 55.0077ZM215.814 54.1043C216.263 54.1043 216.632 53.9892 216.922 53.7591C217.212 53.529 217.426 53.2265 217.565 52.8515C217.704 52.4765 217.774 52.0702 217.774 51.6327C217.774 51.1952 217.704 50.7875 217.565 50.4097C217.426 50.0318 217.212 49.7265 216.922 49.4935C216.632 49.2605 216.263 49.1441 215.814 49.1441C215.365 49.1441 214.996 49.2605 214.706 49.4935C214.416 49.7265 214.202 50.0318 214.062 50.4097C213.923 50.7875 213.854 51.1952 213.854 51.6327C213.854 52.0702 213.923 52.4765 214.062 52.8515C214.202 53.2265 214.416 53.529 214.706 53.7591C214.996 53.9892 215.365 54.1043 215.814 54.1043ZM220.315 57.3259V48.3259H221.287V49.3657H221.406C221.48 49.252 221.582 49.1071 221.713 48.931C221.846 48.752 222.037 48.5929 222.284 48.4537C222.534 48.3117 222.872 48.2407 223.298 48.2407C223.849 48.2407 224.335 48.3784 224.755 48.654C225.176 48.9296 225.504 49.3202 225.74 49.8259C225.975 50.3316 226.093 50.9282 226.093 51.6157C226.093 52.3088 225.975 52.9097 225.74 53.4182C225.504 53.9239 225.177 54.3159 224.76 54.5943C224.342 54.8699 223.86 55.0077 223.315 55.0077C222.894 55.0077 222.558 54.9381 222.305 54.7989C222.052 54.6568 221.858 54.4963 221.721 54.3174C221.585 54.1355 221.48 53.985 221.406 53.8657H221.321V57.3259H220.315ZM221.304 51.5986C221.304 52.0929 221.376 52.529 221.521 52.9068C221.666 53.2818 221.877 53.5759 222.156 53.789C222.434 53.9992 222.775 54.1043 223.179 54.1043C223.599 54.1043 223.95 53.9935 224.231 53.7719C224.515 53.5475 224.728 53.2463 224.87 52.8685C225.015 52.4878 225.088 52.0645 225.088 51.5986C225.088 51.1384 225.017 50.7236 224.875 50.3543C224.735 49.9821 224.524 49.6881 224.24 49.4722C223.958 49.2534 223.605 49.1441 223.179 49.1441C222.769 49.1441 222.426 49.2478 222.147 49.4551C221.869 49.6597 221.659 49.9466 221.517 50.3159C221.375 50.6824 221.304 51.11 221.304 51.5986ZM227.627 54.8713V48.3259H228.599V49.3486H228.684C228.821 48.9992 229.041 48.7279 229.345 48.5347C229.649 48.3387 230.014 48.2407 230.44 48.2407C230.872 48.2407 231.231 48.3387 231.518 48.5347C231.808 48.7279 232.034 48.9992 232.196 49.3486H232.264C232.431 49.0105 232.683 48.7421 233.018 48.5432C233.353 48.3415 233.755 48.2407 234.224 48.2407C234.809 48.2407 235.288 48.4239 235.66 48.7904C236.032 49.154 236.218 49.7208 236.218 50.4907V54.8713H235.213V50.4907C235.213 50.0077 235.081 49.6625 234.816 49.4551C234.552 49.2478 234.241 49.1441 233.883 49.1441C233.423 49.1441 233.066 49.2833 232.814 49.5617C232.561 49.8372 232.434 50.1867 232.434 50.61V54.8713H231.412V50.3884C231.412 50.0162 231.291 49.7165 231.049 49.4892C230.808 49.2591 230.497 49.1441 230.116 49.1441C229.855 49.1441 229.61 49.2137 229.383 49.3529C229.159 49.4921 228.977 49.6853 228.838 49.9324C228.701 50.1767 228.633 50.4594 228.633 50.7804V54.8713H227.627ZM240.801 55.0077C240.171 55.0077 239.627 54.8685 239.169 54.5901C238.715 54.3088 238.364 53.9168 238.117 53.414C237.872 52.9083 237.75 52.3202 237.75 51.6497C237.75 50.9793 237.872 50.3884 238.117 49.877C238.364 49.3628 238.708 48.9622 239.148 48.6753C239.591 48.3855 240.108 48.2407 240.699 48.2407C241.04 48.2407 241.377 48.2975 241.709 48.4111C242.041 48.5247 242.344 48.7094 242.617 48.9651C242.889 49.2179 243.107 49.5532 243.269 49.9708C243.431 50.3884 243.512 50.9026 243.512 51.5134V51.9395H238.466V51.0702H242.489C242.489 50.7009 242.415 50.3713 242.267 50.0816C242.122 49.7918 241.915 49.5631 241.645 49.3955C241.378 49.2279 241.063 49.1441 240.699 49.1441C240.299 49.1441 239.952 49.2435 239.659 49.4424C239.37 49.6384 239.147 49.8941 238.99 50.2094C238.834 50.5247 238.756 50.8628 238.756 51.2236V51.8032C238.756 52.2975 238.841 52.7165 239.012 53.0603C239.185 53.4012 239.425 53.6611 239.732 53.8401C240.039 54.0162 240.395 54.1043 240.801 54.1043C241.066 54.1043 241.304 54.0674 241.517 53.9935C241.733 53.9168 241.919 53.8032 242.076 53.6526C242.232 53.4992 242.353 53.3088 242.438 53.0816L243.409 53.3543C243.307 53.6838 243.135 53.9736 242.894 54.2236C242.652 54.4708 242.354 54.664 241.999 54.8032C241.644 54.9395 241.245 55.0077 240.801 55.0077ZM246.047 50.9338V54.8713H245.041V48.3259H246.013V49.3486H246.098C246.252 49.0162 246.485 48.7492 246.797 48.5475C247.11 48.3429 247.513 48.2407 248.007 48.2407C248.451 48.2407 248.838 48.3316 249.171 48.5134C249.503 48.6924 249.762 48.9651 249.946 49.3316C250.131 49.6952 250.223 50.1554 250.223 50.7122V54.8713H249.218V50.7804C249.218 50.2662 249.084 49.8657 248.817 49.5787C248.55 49.289 248.184 49.1441 247.718 49.1441C247.397 49.1441 247.11 49.2137 246.857 49.3529C246.607 49.4921 246.409 49.6952 246.264 49.9622C246.12 50.2293 246.047 50.5532 246.047 50.9338ZM254.908 48.3259V49.1782H251.516V48.3259H254.908ZM252.504 46.7577H253.51V52.9963C253.51 53.2804 253.551 53.4935 253.633 53.6355C253.719 53.7747 253.827 53.8685 253.957 53.9168C254.091 53.9622 254.231 53.985 254.379 53.985C254.49 53.985 254.581 53.9793 254.652 53.9679C254.723 53.9537 254.78 53.9424 254.822 53.9338L255.027 54.8372C254.959 54.8628 254.864 54.8884 254.741 54.914C254.619 54.9424 254.464 54.9566 254.277 54.9566C253.993 54.9566 253.714 54.8955 253.442 54.7733C253.172 54.6512 252.947 54.4651 252.768 54.2151C252.592 53.9651 252.504 53.6497 252.504 53.2691V46.7577Z" fill="#653E9B"/>
<path d="M272.448 174.179L257.435 187.393" stroke="#653E9B"/>
<path d="M156.53 187.393L154.144 178.666H155.218L157.042 185.774H157.127L158.985 178.666H160.178L162.036 185.774H162.121L163.945 178.666H165.019L162.633 187.393H161.542L159.616 180.439H159.547L157.621 187.393H156.53ZM168.334 187.529C167.704 187.529 167.16 187.39 166.702 187.112C166.248 186.831 165.897 186.439 165.65 185.936C165.405 185.43 165.283 184.842 165.283 184.171C165.283 183.501 165.405 182.91 165.65 182.399C165.897 181.885 166.241 181.484 166.681 181.197C167.124 180.907 167.641 180.762 168.232 180.762C168.573 180.762 168.91 180.819 169.242 180.933C169.574 181.046 169.877 181.231 170.15 181.487C170.422 181.74 170.64 182.075 170.802 182.492C170.964 182.91 171.045 183.424 171.045 184.035V184.461H165.999V183.592H170.022C170.022 183.223 169.948 182.893 169.8 182.603C169.655 182.314 169.448 182.085 169.178 181.917C168.911 181.75 168.596 181.666 168.232 181.666C167.832 181.666 167.485 181.765 167.192 181.964C166.903 182.16 166.68 182.416 166.523 182.731C166.367 183.046 166.289 183.385 166.289 183.745V184.325C166.289 184.819 166.374 185.238 166.545 185.582C166.718 185.923 166.958 186.183 167.265 186.362C167.572 186.538 167.928 186.626 168.334 186.626C168.599 186.626 168.837 186.589 169.05 186.515C169.266 186.439 169.452 186.325 169.609 186.174C169.765 186.021 169.885 185.831 169.971 185.603L170.942 185.876C170.84 186.206 170.668 186.495 170.427 186.745C170.185 186.992 169.887 187.186 169.532 187.325C169.177 187.461 168.778 187.529 168.334 187.529ZM172.711 187.393V178.666H173.716V181.887H173.802C173.876 181.774 173.978 181.629 174.109 181.453C174.242 181.274 174.432 181.115 174.68 180.975C174.93 180.833 175.268 180.762 175.694 180.762C176.245 180.762 176.731 180.9 177.151 181.176C177.572 181.451 177.9 181.842 178.135 182.348C178.371 182.853 178.489 183.45 178.489 184.137C178.489 184.831 178.371 185.431 178.135 185.94C177.9 186.446 177.573 186.838 177.155 187.116C176.738 187.392 176.256 187.529 175.711 187.529C175.29 187.529 174.954 187.46 174.701 187.321C174.448 187.179 174.253 187.018 174.117 186.839C173.981 186.657 173.876 186.507 173.802 186.387H173.682V187.393H172.711ZM173.699 184.12C173.699 184.615 173.772 185.051 173.917 185.429C174.062 185.804 174.273 186.098 174.552 186.311C174.83 186.521 175.171 186.626 175.574 186.626C175.995 186.626 176.346 186.515 176.627 186.294C176.911 186.069 177.124 185.768 177.266 185.39C177.411 185.01 177.484 184.586 177.484 184.12C177.484 183.66 177.412 183.245 177.27 182.876C177.131 182.504 176.92 182.21 176.635 181.994C176.354 181.775 176.001 181.666 175.574 181.666C175.165 181.666 174.822 181.769 174.543 181.977C174.265 182.181 174.055 182.468 173.912 182.838C173.77 183.204 173.699 183.632 173.699 184.12ZM186.232 187.393H183.539V178.666H186.351C187.198 178.666 187.922 178.841 188.525 179.19C189.127 179.537 189.589 180.035 189.91 180.686C190.231 181.333 190.391 182.109 190.391 183.012C190.391 183.921 190.229 184.704 189.905 185.36C189.582 186.014 189.11 186.517 188.491 186.869C187.871 187.218 187.118 187.393 186.232 187.393ZM184.596 186.456H186.164C186.885 186.456 187.484 186.316 187.958 186.038C188.432 185.76 188.786 185.363 189.019 184.849C189.252 184.335 189.368 183.723 189.368 183.012C189.368 182.308 189.253 181.701 189.023 181.193C188.793 180.681 188.449 180.289 187.992 180.017C187.535 179.741 186.965 179.603 186.283 179.603H184.596V186.456ZM194.772 187.529C194.141 187.529 193.597 187.39 193.14 187.112C192.685 186.831 192.334 186.439 192.087 185.936C191.843 185.43 191.721 184.842 191.721 184.171C191.721 183.501 191.843 182.91 192.087 182.399C192.334 181.885 192.678 181.484 193.118 181.197C193.562 180.907 194.079 180.762 194.67 180.762C195.01 180.762 195.347 180.819 195.68 180.933C196.012 181.046 196.314 181.231 196.587 181.487C196.86 181.74 197.077 182.075 197.239 182.492C197.401 182.91 197.482 183.424 197.482 184.035V184.461H192.437V183.592H196.459C196.459 183.223 196.385 182.893 196.238 182.603C196.093 182.314 195.885 182.085 195.616 181.917C195.349 181.75 195.033 181.666 194.67 181.666C194.269 181.666 193.922 181.765 193.63 181.964C193.34 182.16 193.117 182.416 192.961 182.731C192.805 183.046 192.726 183.385 192.726 183.745V184.325C192.726 184.819 192.812 185.238 192.982 185.582C193.155 185.923 193.395 186.183 193.702 186.362C194.009 186.538 194.366 186.626 194.772 186.626C195.036 186.626 195.275 186.589 195.488 186.515C195.704 186.439 195.89 186.325 196.046 186.174C196.202 186.021 196.323 185.831 196.408 185.603L197.38 185.876C197.278 186.206 197.106 186.495 196.864 186.745C196.623 186.992 196.324 187.186 195.969 187.325C195.614 187.461 195.215 187.529 194.772 187.529ZM204.165 180.848L201.745 187.393H200.722L198.301 180.848H199.392L201.199 186.064H201.267L203.074 180.848H204.165ZM208.002 187.529C207.372 187.529 206.828 187.39 206.37 187.112C205.916 186.831 205.565 186.439 205.318 185.936C205.073 185.43 204.951 184.842 204.951 184.171C204.951 183.501 205.073 182.91 205.318 182.399C205.565 181.885 205.909 181.484 206.349 181.197C206.792 180.907 207.309 180.762 207.9 180.762C208.241 180.762 208.578 180.819 208.91 180.933C209.242 181.046 209.545 181.231 209.818 181.487C210.09 181.74 210.308 182.075 210.47 182.492C210.632 182.91 210.713 183.424 210.713 184.035V184.461H205.667V183.592H209.69C209.69 183.223 209.616 182.893 209.468 182.603C209.323 182.314 209.116 182.085 208.846 181.917C208.579 181.75 208.264 181.666 207.9 181.666C207.499 181.666 207.153 181.765 206.86 181.964C206.571 182.16 206.347 182.416 206.191 182.731C206.035 183.046 205.957 183.385 205.957 183.745V184.325C205.957 184.819 206.042 185.238 206.213 185.582C206.386 185.923 206.626 186.183 206.933 186.362C207.24 186.538 207.596 186.626 208.002 186.626C208.267 186.626 208.505 186.589 208.718 186.515C208.934 186.439 209.12 186.325 209.276 186.174C209.433 186.021 209.553 185.831 209.639 185.603L210.61 185.876C210.508 186.206 210.336 186.495 210.095 186.745C209.853 186.992 209.555 187.186 209.2 187.325C208.845 187.461 208.446 187.529 208.002 187.529ZM213.248 178.666V187.393H212.242V178.666H213.248ZM217.749 187.529C217.158 187.529 216.64 187.389 216.194 187.108C215.751 186.826 215.404 186.433 215.154 185.927C214.907 185.421 214.783 184.831 214.783 184.154C214.783 183.473 214.907 182.877 215.154 182.369C215.404 181.86 215.751 181.466 216.194 181.184C216.64 180.903 217.158 180.762 217.749 180.762C218.34 180.762 218.857 180.903 219.3 181.184C219.746 181.466 220.093 181.86 220.34 182.369C220.59 182.877 220.715 183.473 220.715 184.154C220.715 184.831 220.59 185.421 220.34 185.927C220.093 186.433 219.746 186.826 219.3 187.108C218.857 187.389 218.34 187.529 217.749 187.529ZM217.749 186.626C218.198 186.626 218.567 186.511 218.857 186.281C219.147 186.051 219.361 185.748 219.501 185.373C219.64 184.998 219.709 184.592 219.709 184.154C219.709 183.717 219.64 183.309 219.501 182.931C219.361 182.554 219.147 182.248 218.857 182.015C218.567 181.782 218.198 181.666 217.749 181.666C217.3 181.666 216.931 181.782 216.641 182.015C216.351 182.248 216.137 182.554 215.998 182.931C215.859 183.309 215.789 183.717 215.789 184.154C215.789 184.592 215.859 184.998 215.998 185.373C216.137 185.748 216.351 186.051 216.641 186.281C216.931 186.511 217.3 186.626 217.749 186.626ZM222.25 189.848V180.848H223.222V181.887H223.341C223.415 181.774 223.517 181.629 223.648 181.453C223.781 181.274 223.972 181.115 224.219 180.975C224.469 180.833 224.807 180.762 225.233 180.762C225.784 180.762 226.27 180.9 226.691 181.176C227.111 181.451 227.439 181.842 227.675 182.348C227.911 182.853 228.029 183.45 228.029 184.137C228.029 184.831 227.911 185.431 227.675 185.94C227.439 186.446 227.112 186.838 226.695 187.116C226.277 187.392 225.796 187.529 225.25 187.529C224.83 187.529 224.493 187.46 224.24 187.321C223.987 187.179 223.793 187.018 223.656 186.839C223.52 186.657 223.415 186.507 223.341 186.387H223.256V189.848H222.25ZM223.239 184.12C223.239 184.615 223.311 185.051 223.456 185.429C223.601 185.804 223.813 186.098 224.091 186.311C224.37 186.521 224.71 186.626 225.114 186.626C225.534 186.626 225.885 186.515 226.166 186.294C226.45 186.069 226.664 185.768 226.806 185.39C226.95 185.01 227.023 184.586 227.023 184.12C227.023 183.66 226.952 183.245 226.81 182.876C226.671 182.504 226.459 182.21 226.175 181.994C225.894 181.775 225.54 181.666 225.114 181.666C224.705 181.666 224.361 181.769 224.083 181.977C223.804 182.181 223.594 182.468 223.452 182.838C223.31 183.204 223.239 183.632 223.239 184.12ZM229.563 187.393V180.848H230.534V181.87H230.62C230.756 181.521 230.976 181.25 231.28 181.056C231.584 180.86 231.949 180.762 232.375 180.762C232.807 180.762 233.166 180.86 233.453 181.056C233.743 181.25 233.969 181.521 234.131 181.87H234.199C234.367 181.532 234.618 181.264 234.953 181.065C235.289 180.863 235.691 180.762 236.159 180.762C236.745 180.762 237.223 180.946 237.595 181.312C237.968 181.676 238.154 182.242 238.154 183.012V187.393H237.148V183.012C237.148 182.529 237.016 182.184 236.752 181.977C236.487 181.769 236.176 181.666 235.818 181.666C235.358 181.666 235.002 181.805 234.749 182.083C234.496 182.359 234.37 182.708 234.37 183.132V187.393H233.347V182.91C233.347 182.538 233.226 182.238 232.985 182.011C232.743 181.781 232.432 181.666 232.051 181.666C231.79 181.666 231.546 181.735 231.318 181.875C231.094 182.014 230.912 182.207 230.773 182.454C230.637 182.698 230.568 182.981 230.568 183.302V187.393H229.563ZM242.737 187.529C242.106 187.529 241.562 187.39 241.105 187.112C240.65 186.831 240.299 186.439 240.052 185.936C239.808 185.43 239.686 184.842 239.686 184.171C239.686 183.501 239.808 182.91 240.052 182.399C240.299 181.885 240.643 181.484 241.083 181.197C241.526 180.907 242.044 180.762 242.634 180.762C242.975 180.762 243.312 180.819 243.644 180.933C243.977 181.046 244.279 181.231 244.552 181.487C244.825 181.74 245.042 182.075 245.204 182.492C245.366 182.91 245.447 183.424 245.447 184.035V184.461H240.401V183.592H244.424C244.424 183.223 244.35 182.893 244.203 182.603C244.058 182.314 243.85 182.085 243.58 181.917C243.313 181.75 242.998 181.666 242.634 181.666C242.234 181.666 241.887 181.765 241.595 181.964C241.305 182.16 241.082 182.416 240.926 182.731C240.769 183.046 240.691 183.385 240.691 183.745V184.325C240.691 184.819 240.776 185.238 240.947 185.582C241.12 185.923 241.36 186.183 241.667 186.362C241.974 186.538 242.33 186.626 242.737 186.626C243.001 186.626 243.24 186.589 243.453 186.515C243.669 186.439 243.855 186.325 244.011 186.174C244.167 186.021 244.288 185.831 244.373 185.603L245.345 185.876C245.242 186.206 245.071 186.495 244.829 186.745C244.588 186.992 244.289 187.186 243.934 187.325C243.579 187.461 243.18 187.529 242.737 187.529ZM247.982 183.456V187.393H246.977V180.848H247.948V181.87H248.034C248.187 181.538 248.42 181.271 248.732 181.069C249.045 180.865 249.448 180.762 249.943 180.762C250.386 180.762 250.774 180.853 251.106 181.035C251.438 181.214 251.697 181.487 251.882 181.853C252.066 182.217 252.159 182.677 252.159 183.234V187.393H251.153V183.302C251.153 182.788 251.019 182.387 250.752 182.1C250.485 181.811 250.119 181.666 249.653 181.666C249.332 181.666 249.045 181.735 248.792 181.875C248.542 182.014 248.345 182.217 248.2 182.484C248.055 182.751 247.982 183.075 247.982 183.456ZM256.843 180.848V181.7H253.451V180.848H256.843ZM254.439 179.279H255.445V185.518C255.445 185.802 255.486 186.015 255.569 186.157C255.654 186.296 255.762 186.39 255.893 186.439C256.026 186.484 256.167 186.507 256.314 186.507C256.425 186.507 256.516 186.501 256.587 186.49C256.658 186.475 256.715 186.464 256.758 186.456L256.962 187.359C256.894 187.385 256.799 187.41 256.677 187.436C256.555 187.464 256.4 187.478 256.212 187.478C255.928 187.478 255.65 187.417 255.377 187.295C255.107 187.173 254.883 186.987 254.704 186.737C254.528 186.487 254.439 186.171 254.439 185.791V179.279Z" fill="#653E9B"/>
<path d="M376.277 190.261L386.589 207.398" stroke="#653E9B"/>
<path d="M393.611 201.398C393.518 201.111 393.394 200.854 393.241 200.627C393.09 200.397 392.91 200.201 392.699 200.039C392.492 199.877 392.256 199.753 391.992 199.668C391.728 199.583 391.438 199.54 391.123 199.54C390.606 199.54 390.135 199.674 389.712 199.941C389.289 200.208 388.952 200.601 388.702 201.121C388.452 201.641 388.327 202.279 388.327 203.035C388.327 203.79 388.454 204.428 388.707 204.948C388.959 205.468 389.302 205.861 389.734 206.128C390.165 206.395 390.651 206.529 391.191 206.529C391.691 206.529 392.131 206.422 392.512 206.209C392.895 205.993 393.194 205.689 393.407 205.297C393.623 204.902 393.731 204.438 393.731 203.904L394.055 203.972H391.43V203.035H394.753V203.972C394.753 204.691 394.6 205.316 394.293 205.847C393.989 206.378 393.569 206.79 393.032 207.083C392.498 207.373 391.884 207.518 391.191 207.518C390.418 207.518 389.739 207.336 389.154 206.972C388.572 206.608 388.117 206.091 387.79 205.421C387.466 204.75 387.305 203.955 387.305 203.035C387.305 202.344 387.397 201.723 387.582 201.172C387.769 200.618 388.033 200.147 388.374 199.758C388.715 199.368 389.118 199.07 389.584 198.863C390.05 198.655 390.563 198.552 391.123 198.552C391.583 198.552 392.012 198.621 392.41 198.76C392.81 198.897 393.167 199.091 393.479 199.344C393.795 199.594 394.057 199.894 394.268 200.243C394.478 200.59 394.623 200.975 394.702 201.398H393.611ZM396.427 207.398V200.853H397.399V201.841H397.467C397.586 201.518 397.802 201.255 398.115 201.053C398.427 200.851 398.779 200.75 399.171 200.75C399.245 200.75 399.338 200.752 399.448 200.755C399.559 200.758 399.643 200.762 399.7 200.768V201.79C399.666 201.782 399.588 201.769 399.465 201.752C399.346 201.732 399.22 201.722 399.086 201.722C398.768 201.722 398.484 201.789 398.234 201.922C397.987 202.053 397.791 202.235 397.646 202.468C397.504 202.698 397.433 202.961 397.433 203.256V207.398H396.427ZM402.818 207.552C402.403 207.552 402.027 207.473 401.689 207.317C401.351 207.158 401.082 206.929 400.883 206.631C400.685 206.33 400.585 205.966 400.585 205.54C400.585 205.165 400.659 204.861 400.807 204.628C400.954 204.393 401.152 204.208 401.399 204.074C401.646 203.941 401.919 203.841 402.217 203.776C402.518 203.708 402.821 203.654 403.125 203.614C403.523 203.563 403.845 203.525 404.092 203.499C404.342 203.471 404.524 203.424 404.638 203.358C404.754 203.293 404.812 203.179 404.812 203.018V202.983C404.812 202.563 404.697 202.236 404.467 202.003C404.24 201.77 403.895 201.654 403.432 201.654C402.952 201.654 402.575 201.759 402.302 201.969C402.03 202.179 401.838 202.404 401.727 202.643L400.773 202.302C400.943 201.904 401.17 201.594 401.454 201.373C401.741 201.148 402.054 200.992 402.392 200.904C402.733 200.813 403.068 200.768 403.398 200.768C403.608 200.768 403.849 200.793 404.122 200.844C404.398 200.893 404.663 200.993 404.919 201.147C405.177 201.3 405.392 201.532 405.562 201.841C405.733 202.151 405.818 202.566 405.818 203.086V207.398H404.812V206.512H404.761C404.693 206.654 404.579 206.806 404.42 206.968C404.261 207.13 404.05 207.268 403.785 207.381C403.521 207.495 403.199 207.552 402.818 207.552ZM402.971 206.648C403.369 206.648 403.704 206.57 403.977 206.414C404.253 206.258 404.46 206.056 404.599 205.809C404.741 205.562 404.812 205.302 404.812 205.029V204.108C404.77 204.16 404.676 204.206 404.531 204.249C404.389 204.289 404.224 204.324 404.037 204.356C403.852 204.384 403.672 204.41 403.496 204.432C403.322 204.452 403.182 204.469 403.074 204.483C402.812 204.518 402.568 204.573 402.341 204.65C402.116 204.723 401.935 204.836 401.795 204.986C401.659 205.134 401.591 205.336 401.591 205.591C401.591 205.941 401.72 206.205 401.979 206.384C402.24 206.56 402.571 206.648 402.971 206.648ZM407.654 209.853V200.853H408.625V201.893H408.745C408.818 201.779 408.921 201.634 409.051 201.458C409.185 201.279 409.375 201.12 409.622 200.981C409.872 200.839 410.21 200.768 410.637 200.768C411.188 200.768 411.673 200.905 412.094 201.181C412.514 201.456 412.843 201.847 413.078 202.353C413.314 202.858 413.432 203.455 413.432 204.143C413.432 204.836 413.314 205.437 413.078 205.945C412.843 206.451 412.516 206.843 412.098 207.121C411.681 207.397 411.199 207.535 410.654 207.535C410.233 207.535 409.897 207.465 409.644 207.326C409.391 207.184 409.196 207.023 409.06 206.844C408.923 206.662 408.818 206.512 408.745 206.393H408.659V209.853H407.654ZM408.642 204.125C408.642 204.62 408.715 205.056 408.86 205.434C409.004 205.809 409.216 206.103 409.495 206.316C409.773 206.526 410.114 206.631 410.517 206.631C410.938 206.631 411.289 206.52 411.57 206.299C411.854 206.074 412.067 205.773 412.209 205.395C412.354 205.015 412.426 204.591 412.426 204.125C412.426 203.665 412.355 203.25 412.213 202.881C412.074 202.509 411.862 202.215 411.578 201.999C411.297 201.78 410.943 201.671 410.517 201.671C410.108 201.671 409.764 201.775 409.486 201.982C409.208 202.187 408.997 202.473 408.855 202.843C408.713 203.209 408.642 203.637 408.642 204.125ZM415.972 203.461V207.398H414.966V198.671H415.972V201.875H416.057C416.21 201.537 416.441 201.269 416.747 201.07C417.057 200.868 417.469 200.768 417.983 200.768C418.429 200.768 418.82 200.857 419.155 201.036C419.49 201.212 419.75 201.483 419.935 201.85C420.122 202.214 420.216 202.677 420.216 203.239V207.398H419.21V203.307C419.21 202.787 419.075 202.385 418.806 202.101C418.539 201.814 418.168 201.671 417.693 201.671C417.364 201.671 417.068 201.741 416.807 201.88C416.548 202.019 416.344 202.222 416.193 202.489C416.046 202.756 415.972 203.08 415.972 203.461ZM422.056 207.398V200.853H423.062V207.398H422.056ZM422.567 199.762C422.371 199.762 422.202 199.695 422.06 199.562C421.921 199.428 421.851 199.268 421.851 199.08C421.851 198.893 421.921 198.732 422.06 198.598C422.202 198.465 422.371 198.398 422.567 198.398C422.763 198.398 422.931 198.465 423.07 198.598C423.212 198.732 423.283 198.893 423.283 199.08C423.283 199.268 423.212 199.428 423.07 199.562C422.931 199.695 422.763 199.762 422.567 199.762ZM427.563 207.535C426.949 207.535 426.421 207.39 425.977 207.1C425.534 206.81 425.193 206.411 424.955 205.902C424.716 205.394 424.597 204.813 424.597 204.16C424.597 203.495 424.719 202.908 424.963 202.4C425.21 201.888 425.554 201.489 425.995 201.202C426.438 200.912 426.955 200.768 427.546 200.768C428.006 200.768 428.421 200.853 428.79 201.023C429.159 201.194 429.462 201.432 429.698 201.739C429.933 202.046 430.08 202.404 430.137 202.813H429.131C429.054 202.515 428.884 202.25 428.62 202.02C428.358 201.787 428.006 201.671 427.563 201.671C427.171 201.671 426.827 201.773 426.531 201.978C426.239 202.179 426.01 202.465 425.845 202.834C425.683 203.201 425.602 203.631 425.602 204.125C425.602 204.631 425.682 205.071 425.841 205.446C426.003 205.821 426.23 206.113 426.523 206.32C426.818 206.527 427.165 206.631 427.563 206.631C427.824 206.631 428.061 206.586 428.274 206.495C428.487 206.404 428.668 206.273 428.816 206.103C428.963 205.932 429.068 205.728 429.131 205.489H430.137C430.08 205.875 429.939 206.223 429.715 206.533C429.493 206.84 429.199 207.084 428.833 207.266C428.469 207.445 428.046 207.535 427.563 207.535ZM437.811 207.398H435.118V198.671H437.931C438.777 198.671 439.502 198.846 440.104 199.195C440.706 199.542 441.168 200.04 441.489 200.691C441.81 201.339 441.97 202.114 441.97 203.018C441.97 203.927 441.808 204.709 441.485 205.366C441.161 206.019 440.689 206.522 440.07 206.874C439.45 207.223 438.698 207.398 437.811 207.398ZM436.175 206.461H437.743C438.465 206.461 439.063 206.321 439.537 206.043C440.012 205.765 440.365 205.368 440.598 204.854C440.831 204.34 440.948 203.728 440.948 203.018C440.948 202.313 440.833 201.706 440.602 201.198C440.372 200.687 440.029 200.294 439.571 200.022C439.114 199.746 438.544 199.608 437.862 199.608H436.175V206.461ZM446.351 207.535C445.72 207.535 445.176 207.395 444.719 207.117C444.264 206.836 443.914 206.444 443.666 205.941C443.422 205.435 443.3 204.847 443.3 204.177C443.3 203.506 443.422 202.915 443.666 202.404C443.914 201.89 444.257 201.489 444.698 201.202C445.141 200.912 445.658 200.768 446.249 200.768C446.59 200.768 446.926 200.824 447.259 200.938C447.591 201.052 447.894 201.236 448.166 201.492C448.439 201.745 448.656 202.08 448.818 202.498C448.98 202.915 449.061 203.429 449.061 204.04V204.466H444.016V203.597H448.039C448.039 203.228 447.965 202.898 447.817 202.608C447.672 202.319 447.465 202.09 447.195 201.922C446.928 201.755 446.612 201.671 446.249 201.671C445.848 201.671 445.502 201.77 445.209 201.969C444.919 202.165 444.696 202.421 444.54 202.736C444.384 203.052 444.306 203.39 444.306 203.75V204.33C444.306 204.824 444.391 205.243 444.561 205.587C444.735 205.928 444.975 206.188 445.281 206.367C445.588 206.543 445.945 206.631 446.351 206.631C446.615 206.631 446.854 206.594 447.067 206.52C447.283 206.444 447.469 206.33 447.625 206.179C447.781 206.026 447.902 205.836 447.987 205.608L448.959 205.881C448.857 206.211 448.685 206.5 448.443 206.75C448.202 206.998 447.904 207.191 447.548 207.33C447.193 207.466 446.794 207.535 446.351 207.535ZM455.227 202.319L454.324 202.574C454.267 202.424 454.183 202.277 454.073 202.135C453.965 201.991 453.817 201.871 453.629 201.777C453.442 201.684 453.202 201.637 452.909 201.637C452.509 201.637 452.175 201.729 451.908 201.914C451.644 202.096 451.512 202.327 451.512 202.608C451.512 202.858 451.602 203.056 451.784 203.201C451.966 203.346 452.25 203.466 452.637 203.563L453.608 203.802C454.193 203.944 454.629 204.161 454.916 204.454C455.203 204.743 455.347 205.117 455.347 205.574C455.347 205.949 455.239 206.285 455.023 206.58C454.81 206.875 454.512 207.108 454.128 207.279C453.745 207.449 453.298 207.535 452.79 207.535C452.122 207.535 451.57 207.39 451.132 207.1C450.695 206.81 450.418 206.387 450.301 205.83L451.256 205.591C451.347 205.944 451.519 206.208 451.772 206.384C452.027 206.56 452.361 206.648 452.773 206.648C453.242 206.648 453.614 206.549 453.889 206.35C454.168 206.148 454.307 205.907 454.307 205.625C454.307 205.398 454.227 205.208 454.068 205.054C453.909 204.898 453.665 204.782 453.335 204.705L452.245 204.449C451.645 204.307 451.205 204.087 450.923 203.789C450.645 203.488 450.506 203.111 450.506 202.66C450.506 202.29 450.61 201.964 450.817 201.679C451.027 201.395 451.313 201.172 451.673 201.01C452.037 200.848 452.449 200.768 452.909 200.768C453.557 200.768 454.066 200.91 454.435 201.194C454.807 201.478 455.071 201.853 455.227 202.319ZM456.861 207.398V200.853H457.866V207.398H456.861ZM457.372 199.762C457.176 199.762 457.007 199.695 456.865 199.562C456.726 199.428 456.656 199.268 456.656 199.08C456.656 198.893 456.726 198.732 456.865 198.598C457.007 198.465 457.176 198.398 457.372 198.398C457.568 198.398 457.736 198.465 457.875 198.598C458.017 198.732 458.088 198.893 458.088 199.08C458.088 199.268 458.017 199.428 457.875 199.562C457.736 199.695 457.568 199.762 457.372 199.762ZM462.35 209.989C461.865 209.989 461.447 209.927 461.098 209.802C460.748 209.679 460.457 209.518 460.224 209.316C459.994 209.117 459.811 208.904 459.674 208.677L460.475 208.114C460.566 208.233 460.681 208.37 460.821 208.523C460.96 208.679 461.15 208.814 461.392 208.928C461.636 209.045 461.955 209.103 462.35 209.103C462.879 209.103 463.315 208.975 463.659 208.719C464.002 208.464 464.174 208.063 464.174 207.518V206.188H464.089C464.015 206.307 463.91 206.455 463.774 206.631C463.64 206.804 463.447 206.959 463.194 207.096C462.944 207.229 462.606 207.296 462.18 207.296C461.651 207.296 461.177 207.171 460.757 206.921C460.339 206.671 460.008 206.307 459.764 205.83C459.522 205.353 459.401 204.773 459.401 204.091C459.401 203.421 459.519 202.837 459.755 202.34C459.991 201.84 460.319 201.454 460.74 201.181C461.16 200.905 461.646 200.768 462.197 200.768C462.623 200.768 462.961 200.839 463.211 200.981C463.464 201.12 463.657 201.279 463.791 201.458C463.927 201.634 464.032 201.779 464.106 201.893H464.208V200.853H465.18V207.586C465.18 208.148 465.052 208.606 464.796 208.958C464.544 209.313 464.203 209.573 463.774 209.738C463.348 209.905 462.873 209.989 462.35 209.989ZM462.316 206.393C462.72 206.393 463.061 206.3 463.339 206.116C463.617 205.931 463.829 205.665 463.974 205.319C464.119 204.972 464.191 204.557 464.191 204.074C464.191 203.603 464.12 203.187 463.978 202.826C463.836 202.465 463.626 202.182 463.348 201.978C463.069 201.773 462.725 201.671 462.316 201.671C461.89 201.671 461.535 201.779 461.251 201.995C460.97 202.211 460.758 202.5 460.616 202.864C460.477 203.228 460.407 203.631 460.407 204.074C460.407 204.529 460.478 204.931 460.62 205.28C460.765 205.627 460.978 205.9 461.259 206.098C461.544 206.295 461.896 206.393 462.316 206.393ZM468.026 203.461V207.398H467.021V200.853H467.992V201.875H468.078C468.231 201.543 468.464 201.276 468.776 201.074C469.089 200.87 469.492 200.768 469.987 200.768C470.43 200.768 470.818 200.858 471.15 201.04C471.482 201.219 471.741 201.492 471.926 201.858C472.11 202.222 472.203 202.682 472.203 203.239V207.398H471.197V203.307C471.197 202.793 471.063 202.393 470.796 202.106C470.529 201.816 470.163 201.671 469.697 201.671C469.376 201.671 469.089 201.741 468.836 201.88C468.586 202.019 468.389 202.222 468.244 202.489C468.099 202.756 468.026 203.08 468.026 203.461Z" fill="#653E9B"/>
<path d="M408.733 153.748L426.961 161.979" stroke="#653E9B"/>
<path d="M435.041 155.979H433.984C433.921 155.675 433.812 155.408 433.656 155.178C433.502 154.948 433.315 154.755 433.093 154.598C432.874 154.439 432.632 154.32 432.364 154.24C432.097 154.161 431.819 154.121 431.529 154.121C431.001 154.121 430.522 154.255 430.093 154.522C429.667 154.789 429.328 155.182 429.075 155.702C428.825 156.222 428.7 156.86 428.7 157.615C428.7 158.371 428.825 159.009 429.075 159.529C429.328 160.049 429.667 160.442 430.093 160.709C430.522 160.976 431.001 161.11 431.529 161.11C431.819 161.11 432.097 161.07 432.364 160.99C432.632 160.911 432.874 160.793 433.093 160.637C433.315 160.478 433.502 160.283 433.656 160.053C433.812 159.82 433.921 159.553 433.984 159.252H435.041C434.961 159.698 434.816 160.097 434.606 160.449C434.396 160.801 434.134 161.101 433.822 161.348C433.509 161.593 433.159 161.779 432.769 161.907C432.383 162.034 431.97 162.098 431.529 162.098C430.785 162.098 430.123 161.917 429.543 161.553C428.964 161.189 428.508 160.672 428.176 160.002C427.843 159.331 427.677 158.536 427.677 157.615C427.677 156.695 427.843 155.899 428.176 155.229C428.508 154.559 428.964 154.042 429.543 153.678C430.123 153.314 430.785 153.132 431.529 153.132C431.97 153.132 432.383 153.196 432.769 153.324C433.159 153.452 433.509 153.64 433.822 153.887C434.134 154.131 434.396 154.429 434.606 154.782C434.816 155.131 434.961 155.53 435.041 155.979ZM439.271 162.115C438.68 162.115 438.162 161.975 437.716 161.693C437.272 161.412 436.926 161.019 436.676 160.513C436.429 160.007 436.305 159.417 436.305 158.74C436.305 158.059 436.429 157.463 436.676 156.955C436.926 156.446 437.272 156.051 437.716 155.77C438.162 155.489 438.68 155.348 439.271 155.348C439.862 155.348 440.379 155.489 440.822 155.77C441.268 156.051 441.615 156.446 441.862 156.955C442.112 157.463 442.237 158.059 442.237 158.74C442.237 159.417 442.112 160.007 441.862 160.513C441.615 161.019 441.268 161.412 440.822 161.693C440.379 161.975 439.862 162.115 439.271 162.115ZM439.271 161.212C439.72 161.212 440.089 161.097 440.379 160.867C440.669 160.637 440.883 160.334 441.022 159.959C441.162 159.584 441.231 159.178 441.231 158.74C441.231 158.303 441.162 157.895 441.022 157.517C440.883 157.14 440.669 156.834 440.379 156.601C440.089 156.368 439.72 156.252 439.271 156.252C438.822 156.252 438.453 156.368 438.163 156.601C437.873 156.834 437.659 157.14 437.52 157.517C437.38 157.895 437.311 158.303 437.311 158.74C437.311 159.178 437.38 159.584 437.52 159.959C437.659 160.334 437.873 160.637 438.163 160.867C438.453 161.097 438.822 161.212 439.271 161.212ZM444.778 158.042V161.979H443.772V155.434H444.744V156.456H444.829C444.982 156.124 445.215 155.857 445.528 155.655C445.84 155.451 446.244 155.348 446.738 155.348C447.181 155.348 447.569 155.439 447.901 155.621C448.234 155.8 448.492 156.073 448.677 156.439C448.862 156.803 448.954 157.263 448.954 157.82V161.979H447.948V157.888C447.948 157.374 447.815 156.973 447.548 156.686C447.281 156.397 446.914 156.252 446.448 156.252C446.127 156.252 445.84 156.321 445.587 156.461C445.337 156.6 445.14 156.803 444.995 157.07C444.85 157.337 444.778 157.661 444.778 158.042ZM453.638 155.434V156.286H450.246V155.434H453.638ZM451.235 153.865H452.241V160.104C452.241 160.388 452.282 160.601 452.364 160.743C452.449 160.882 452.557 160.976 452.688 161.024C452.822 161.07 452.962 161.093 453.11 161.093C453.221 161.093 453.312 161.087 453.383 161.076C453.454 161.061 453.51 161.05 453.553 161.042L453.758 161.945C453.689 161.97 453.594 161.996 453.472 162.022C453.35 162.05 453.195 162.064 453.008 162.064C452.723 162.064 452.445 162.003 452.172 161.881C451.902 161.759 451.678 161.573 451.499 161.323C451.323 161.073 451.235 160.757 451.235 160.377V153.865ZM457.825 162.115C457.194 162.115 456.65 161.976 456.193 161.698C455.738 161.417 455.388 161.024 455.14 160.522C454.896 160.016 454.774 159.428 454.774 158.757C454.774 158.087 454.896 157.496 455.14 156.985C455.388 156.47 455.731 156.07 456.172 155.783C456.615 155.493 457.132 155.348 457.723 155.348C458.064 155.348 458.4 155.405 458.733 155.519C459.065 155.632 459.368 155.817 459.64 156.073C459.913 156.326 460.13 156.661 460.292 157.078C460.454 157.496 460.535 158.01 460.535 158.621V159.047H455.49V158.178H459.513C459.513 157.809 459.439 157.479 459.291 157.189C459.146 156.899 458.939 156.671 458.669 156.503C458.402 156.336 458.086 156.252 457.723 156.252C457.322 156.252 456.976 156.351 456.683 156.55C456.393 156.746 456.17 157.002 456.014 157.317C455.858 157.632 455.78 157.97 455.78 158.331V158.911C455.78 159.405 455.865 159.824 456.035 160.168C456.209 160.509 456.449 160.769 456.755 160.948C457.062 161.124 457.419 161.212 457.825 161.212C458.089 161.212 458.328 161.175 458.541 161.101C458.757 161.024 458.943 160.911 459.099 160.76C459.255 160.607 459.376 160.417 459.461 160.189L460.433 160.462C460.331 160.792 460.159 161.081 459.917 161.331C459.676 161.578 459.378 161.772 459.022 161.911C458.667 162.047 458.268 162.115 457.825 162.115ZM463.071 158.042V161.979H462.065V155.434H463.037V156.456H463.122C463.275 156.124 463.508 155.857 463.821 155.655C464.133 155.451 464.537 155.348 465.031 155.348C465.474 155.348 465.862 155.439 466.194 155.621C466.527 155.8 466.785 156.073 466.97 156.439C467.155 156.803 467.247 157.263 467.247 157.82V161.979H466.241V157.888C466.241 157.374 466.108 156.973 465.841 156.686C465.574 156.397 465.207 156.252 464.741 156.252C464.42 156.252 464.133 156.321 463.88 156.461C463.63 156.6 463.433 156.803 463.288 157.07C463.143 157.337 463.071 157.661 463.071 158.042ZM471.931 155.434V156.286H468.539V155.434H471.931ZM469.528 153.865H470.534V160.104C470.534 160.388 470.575 160.601 470.657 160.743C470.742 160.882 470.85 160.976 470.981 161.024C471.114 161.07 471.255 161.093 471.403 161.093C471.514 161.093 471.605 161.087 471.676 161.076C471.747 161.061 471.803 161.05 471.846 161.042L472.051 161.945C471.982 161.97 471.887 161.996 471.765 162.022C471.643 162.05 471.488 162.064 471.301 162.064C471.016 162.064 470.738 162.003 470.465 161.881C470.195 161.759 469.971 161.573 469.792 161.323C469.616 161.073 469.528 160.757 469.528 160.377V153.865ZM483.978 155.979H482.921C482.859 155.675 482.749 155.408 482.593 155.178C482.44 154.948 482.252 154.755 482.031 154.598C481.812 154.439 481.569 154.32 481.302 154.24C481.035 154.161 480.757 154.121 480.467 154.121C479.938 154.121 479.46 154.255 479.031 154.522C478.605 154.789 478.265 155.182 478.012 155.702C477.762 156.222 477.637 156.86 477.637 157.615C477.637 158.371 477.762 159.009 478.012 159.529C478.265 160.049 478.605 160.442 479.031 160.709C479.46 160.976 479.938 161.11 480.467 161.11C480.757 161.11 481.035 161.07 481.302 160.99C481.569 160.911 481.812 160.793 482.031 160.637C482.252 160.478 482.44 160.283 482.593 160.053C482.749 159.82 482.859 159.553 482.921 159.252H483.978C483.899 159.698 483.754 160.097 483.543 160.449C483.333 160.801 483.072 161.101 482.759 161.348C482.447 161.593 482.096 161.779 481.707 161.907C481.32 162.034 480.907 162.098 480.467 162.098C479.722 162.098 479.06 161.917 478.481 161.553C477.901 161.189 477.445 160.672 477.113 160.002C476.781 159.331 476.614 158.536 476.614 157.615C476.614 156.695 476.781 155.899 477.113 155.229C477.445 154.559 477.901 154.042 478.481 153.678C479.06 153.314 479.722 153.132 480.467 153.132C480.907 153.132 481.32 153.196 481.707 153.324C482.096 153.452 482.447 153.64 482.759 153.887C483.072 154.131 483.333 154.429 483.543 154.782C483.754 155.131 483.899 155.53 483.978 155.979ZM485.549 161.979V155.434H486.521V156.422H486.589C486.709 156.098 486.924 155.836 487.237 155.634C487.549 155.432 487.902 155.331 488.294 155.331C488.368 155.331 488.46 155.333 488.571 155.336C488.682 155.338 488.765 155.343 488.822 155.348V156.371C488.788 156.363 488.71 156.35 488.588 156.333C488.469 156.313 488.342 156.303 488.209 156.303C487.89 156.303 487.606 156.37 487.356 156.503C487.109 156.634 486.913 156.816 486.768 157.049C486.626 157.279 486.555 157.542 486.555 157.837V161.979H485.549ZM492.559 162.115C491.929 162.115 491.385 161.976 490.927 161.698C490.473 161.417 490.122 161.024 489.875 160.522C489.63 160.016 489.508 159.428 489.508 158.757C489.508 158.087 489.63 157.496 489.875 156.985C490.122 156.47 490.466 156.07 490.906 155.783C491.349 155.493 491.866 155.348 492.457 155.348C492.798 155.348 493.135 155.405 493.467 155.519C493.799 155.632 494.102 155.817 494.375 156.073C494.647 156.326 494.865 156.661 495.027 157.078C495.189 157.496 495.27 158.01 495.27 158.621V159.047H490.224V158.178H494.247C494.247 157.809 494.173 157.479 494.025 157.189C493.88 156.899 493.673 156.671 493.403 156.503C493.136 156.336 492.821 156.252 492.457 156.252C492.057 156.252 491.71 156.351 491.417 156.55C491.128 156.746 490.905 157.002 490.748 157.317C490.592 157.632 490.514 157.97 490.514 158.331V158.911C490.514 159.405 490.599 159.824 490.77 160.168C490.943 160.509 491.183 160.769 491.49 160.948C491.797 161.124 492.153 161.212 492.559 161.212C492.824 161.212 493.062 161.175 493.275 161.101C493.491 161.024 493.677 160.911 493.834 160.76C493.99 160.607 494.111 160.417 494.196 160.189L495.167 160.462C495.065 160.792 494.893 161.081 494.652 161.331C494.41 161.578 494.112 161.772 493.757 161.911C493.402 162.047 493.003 162.115 492.559 162.115ZM498.726 162.132C498.311 162.132 497.934 162.054 497.596 161.898C497.258 161.739 496.99 161.51 496.791 161.212C496.592 160.911 496.493 160.547 496.493 160.121C496.493 159.746 496.567 159.442 496.714 159.209C496.862 158.973 497.059 158.789 497.307 158.655C497.554 158.522 497.826 158.422 498.125 158.357C498.426 158.289 498.728 158.235 499.032 158.195C499.43 158.144 499.753 158.105 500 158.08C500.25 158.051 500.432 158.005 500.545 157.939C500.662 157.874 500.72 157.76 500.72 157.598V157.564C500.72 157.144 500.605 156.817 500.375 156.584C500.147 156.351 499.802 156.235 499.339 156.235C498.859 156.235 498.483 156.34 498.21 156.55C497.937 156.76 497.746 156.985 497.635 157.223L496.68 156.882C496.851 156.485 497.078 156.175 497.362 155.953C497.649 155.729 497.961 155.573 498.299 155.485C498.64 155.394 498.976 155.348 499.305 155.348C499.515 155.348 499.757 155.374 500.03 155.425C500.305 155.473 500.571 155.574 500.826 155.728C501.085 155.881 501.299 156.113 501.47 156.422C501.64 156.732 501.726 157.147 501.726 157.667V161.979H500.72V161.093H500.669C500.601 161.235 500.487 161.387 500.328 161.549C500.169 161.711 499.957 161.848 499.693 161.962C499.429 162.076 499.106 162.132 498.726 162.132ZM498.879 161.229C499.277 161.229 499.612 161.151 499.885 160.995C500.16 160.838 500.368 160.637 500.507 160.39C500.649 160.142 500.72 159.882 500.72 159.61V158.689C500.677 158.74 500.584 158.787 500.439 158.83C500.297 158.87 500.132 158.905 499.944 158.936C499.76 158.965 499.579 158.99 499.403 159.013C499.23 159.033 499.089 159.05 498.981 159.064C498.72 159.098 498.476 159.154 498.248 159.23C498.024 159.304 497.842 159.417 497.703 159.567C497.567 159.715 497.498 159.917 497.498 160.172C497.498 160.522 497.628 160.786 497.886 160.965C498.147 161.141 498.478 161.229 498.879 161.229ZM506.408 155.434V156.286H503.016V155.434H506.408ZM504.004 153.865H505.01V160.104C505.01 160.388 505.051 160.601 505.134 160.743C505.219 160.882 505.327 160.976 505.458 161.024C505.591 161.07 505.732 161.093 505.879 161.093C505.99 161.093 506.081 161.087 506.152 161.076C506.223 161.061 506.28 161.05 506.323 161.042L506.527 161.945C506.459 161.97 506.364 161.996 506.242 162.022C506.119 162.05 505.965 162.064 505.777 162.064C505.493 162.064 505.215 162.003 504.942 161.881C504.672 161.759 504.448 161.573 504.269 161.323C504.092 161.073 504.004 160.757 504.004 160.377V153.865ZM507.921 161.979V155.434H508.926V161.979H507.921ZM508.432 154.343C508.236 154.343 508.067 154.276 507.925 154.142C507.786 154.009 507.716 153.848 507.716 153.661C507.716 153.473 507.786 153.313 507.925 153.179C508.067 153.046 508.236 152.979 508.432 152.979C508.628 152.979 508.796 153.046 508.935 153.179C509.077 153.313 509.148 153.473 509.148 153.661C509.148 153.848 509.077 154.009 508.935 154.142C508.796 154.276 508.628 154.343 508.432 154.343ZM513.427 162.115C512.836 162.115 512.318 161.975 511.872 161.693C511.429 161.412 511.082 161.019 510.832 160.513C510.585 160.007 510.461 159.417 510.461 158.74C510.461 158.059 510.585 157.463 510.832 156.955C511.082 156.446 511.429 156.051 511.872 155.77C512.318 155.489 512.836 155.348 513.427 155.348C514.018 155.348 514.535 155.489 514.978 155.77C515.424 156.051 515.771 156.446 516.018 156.955C516.268 157.463 516.393 158.059 516.393 158.74C516.393 159.417 516.268 160.007 516.018 160.513C515.771 161.019 515.424 161.412 514.978 161.693C514.535 161.975 514.018 162.115 513.427 162.115ZM513.427 161.212C513.876 161.212 514.246 161.097 514.535 160.867C514.825 160.637 515.04 160.334 515.179 159.959C515.318 159.584 515.388 159.178 515.388 158.74C515.388 158.303 515.318 157.895 515.179 157.517C515.04 157.14 514.825 156.834 514.535 156.601C514.246 156.368 513.876 156.252 513.427 156.252C512.978 156.252 512.609 156.368 512.319 156.601C512.03 156.834 511.815 157.14 511.676 157.517C511.537 157.895 511.467 158.303 511.467 158.74C511.467 159.178 511.537 159.584 511.676 159.959C511.815 160.334 512.03 160.637 512.319 160.867C512.609 161.097 512.978 161.212 513.427 161.212ZM518.934 158.042V161.979H517.928V155.434H518.9V156.456H518.985C519.139 156.124 519.372 155.857 519.684 155.655C519.997 155.451 520.4 155.348 520.894 155.348C521.337 155.348 521.725 155.439 522.058 155.621C522.39 155.8 522.649 156.073 522.833 156.439C523.018 156.803 523.11 157.263 523.11 157.82V161.979H522.105V157.888C522.105 157.374 521.971 156.973 521.704 156.686C521.437 156.397 521.07 156.252 520.605 156.252C520.284 156.252 519.997 156.321 519.744 156.461C519.494 156.6 519.296 156.803 519.151 157.07C519.007 157.337 518.934 157.661 518.934 158.042Z" fill="#653E9B"/>
</svg>
