<svg width="59" height="11" viewBox="0 0 59 11" fill="none" xmlns="http://www.w3.org/2000/svg">
<path d="M3.852 9.472C3.852 9.944 3.392 10.18 2.472 10.18C2.272 10.18 2.152 10.08 2.112 9.88C2.08 9.672 2.064 9.416 2.064 9.112C2.064 8.808 2.084 8.484 2.124 8.14C2.172 7.788 2.232 7.408 2.304 7C2.44 6.216 2.632 5.372 2.88 4.468C3.136 3.556 3.388 2.852 3.636 2.356C3.132 2.388 2.632 2.48 2.136 2.632C1.64 2.776 1.288 2.88 1.08 2.944C0.872 3 0.7 3.028 0.564 3.028C0.428 3.028 0.36 2.984 0.36 2.896C0.36 2.792 0.44 2.64 0.6 2.44C0.76 2.232 0.988 2.024 1.284 1.816C2.036 1.304 2.872 1.044 3.792 1.036L7.74 1.072C7.956 1.072 8.064 1.156 8.064 1.324C8.064 1.372 8.032 1.46 7.968 1.588C7.904 1.708 7.848 1.84 7.8 1.984C7.696 2.272 7.476 2.416 7.14 2.416C6.812 2.416 6.024 2.392 4.776 2.344C4.744 2.696 4.68 3.148 4.584 3.7C4.488 4.244 4.384 4.84 4.272 5.488C4 7.144 3.86 8.472 3.852 9.472ZM9.17944 8.692C9.80344 8.692 10.4074 8.444 10.9914 7.948C11.2074 7.764 11.3834 7.596 11.5194 7.444C11.6554 7.284 11.7594 7.204 11.8314 7.204C11.9434 7.204 11.9994 7.316 11.9994 7.54C11.9994 7.764 11.9394 8.016 11.8194 8.296C11.6994 8.568 11.4994 8.836 11.2194 9.1C10.5314 9.748 9.58744 10.072 8.38744 10.072C7.43544 10.072 6.78744 9.728 6.44344 9.04C6.32344 8.8 6.26344 8.456 6.26344 8.008C6.26344 7.56 6.35144 7.096 6.52744 6.616C6.70344 6.128 6.93544 5.708 7.22344 5.356C7.51944 5.004 7.85944 4.732 8.24344 4.54C8.62744 4.34 9.03544 4.24 9.46744 4.24C9.90744 4.24 10.2434 4.348 10.4754 4.564C10.7154 4.78 10.8354 5.06 10.8354 5.404C10.8354 5.748 10.7474 6.032 10.5714 6.256C10.4034 6.472 10.1834 6.656 9.91144 6.808C9.63944 6.952 9.33544 7.084 8.99944 7.204C8.67144 7.316 8.34744 7.444 8.02744 7.588V7.888C8.03544 8.176 8.15544 8.38 8.38744 8.5C8.61944 8.62 8.88344 8.684 9.17944 8.692ZM8.97544 5.308C8.55944 5.308 8.27144 5.792 8.11144 6.76C8.27944 6.648 8.43544 6.548 8.57944 6.46C8.73144 6.372 8.86344 6.288 8.97544 6.208C9.21544 6.032 9.33944 5.832 9.34744 5.608C9.34744 5.408 9.22344 5.308 8.97544 5.308ZM16.1631 7.168C16.3071 7.168 16.3791 7.292 16.3791 7.54C16.3791 7.78 16.3151 8.04 16.1871 8.32C16.0671 8.6 15.8791 8.872 15.6231 9.136C15.3751 9.392 15.0551 9.612 14.6631 9.796C14.2711 9.98 13.8071 10.072 13.2711 10.072C12.7431 10.072 12.2791 9.916 11.8791 9.604C11.4791 9.284 11.2791 8.828 11.2791 8.236C11.2791 7.636 11.3711 7.096 11.5551 6.616C11.7471 6.128 11.9951 5.708 12.2991 5.356C12.6111 5.004 12.9631 4.732 13.3551 4.54C13.7471 4.34 14.1191 4.24 14.4711 4.24C15.0871 4.24 15.3951 4.484 15.3951 4.972C15.3951 5.252 15.3351 5.476 15.2151 5.644C15.1031 5.812 14.9871 5.896 14.8671 5.896C14.7071 5.896 14.5671 5.84 14.4471 5.728C14.3271 5.616 14.1951 5.56 14.0511 5.56C13.9071 5.552 13.7671 5.62 13.6311 5.764C13.5031 5.908 13.3951 6.092 13.3071 6.316C13.1311 6.764 13.0431 7.288 13.0431 7.888C13.0511 8.176 13.1831 8.392 13.4391 8.536C13.6151 8.632 13.8231 8.684 14.0631 8.692C14.3031 8.692 14.5311 8.612 14.7471 8.452C14.9711 8.292 15.1751 8.12 15.3591 7.936C15.5431 7.744 15.7031 7.568 15.8391 7.408C15.9831 7.248 16.0911 7.168 16.1631 7.168ZM19.7779 5.968C19.7779 5.68 19.6059 5.536 19.2619 5.536C18.9259 5.536 18.5939 5.8 18.2659 6.328C17.9379 6.848 17.7339 7.38 17.6539 7.924C17.6699 8.108 17.6859 8.292 17.7019 8.476C17.7179 8.66 17.7259 8.84 17.7259 9.016C17.7259 9.44 17.5859 9.728 17.3059 9.88C17.1779 9.952 17.0539 10.02 16.9339 10.084C16.8219 10.148 16.6899 10.18 16.5379 10.18C16.3859 10.18 16.2499 10.08 16.1299 9.88C16.0179 9.672 15.9619 9.352 15.9619 8.92C15.9619 7.712 16.0499 6.664 16.2259 5.776C16.4979 4.4 17.0379 2.928 17.8459 1.36C17.9579 1.144 18.1219 1.04 18.3379 1.048C18.5539 1.048 18.7299 1.196 18.8659 1.492C19.0019 1.788 19.0659 2.036 19.0579 2.236C19.0579 2.436 19.0259 2.632 18.9619 2.824C18.9059 3.008 18.8299 3.192 18.7339 3.376C18.6459 3.552 18.5419 3.736 18.4219 3.928C18.3099 4.112 18.1979 4.312 18.0859 4.528L17.9059 5.392C18.2179 4.872 18.6379 4.524 19.1659 4.348C19.3579 4.284 19.5699 4.252 19.8019 4.252C20.3459 4.252 20.7579 4.376 21.0379 4.624C21.3179 4.864 21.4579 5.208 21.4579 5.656C21.4579 6.096 21.3979 6.544 21.2779 7C21.1659 7.456 21.0819 7.784 21.0259 7.984C20.9779 8.176 20.9539 8.336 20.9539 8.464C20.9539 8.592 20.9979 8.656 21.0859 8.656C21.2059 8.656 21.3539 8.58 21.5299 8.428C21.7059 8.276 21.8819 8.112 22.0579 7.936C22.2339 7.752 22.3939 7.584 22.5379 7.432C22.6899 7.28 22.7939 7.204 22.8499 7.204C22.9619 7.204 23.0179 7.34 23.0179 7.612C23.0179 8.172 22.7419 8.712 22.1899 9.232C21.2619 9.776 20.6699 10.048 20.4139 10.048C20.3899 10.048 20.3739 10.044 20.3659 10.036C19.7259 10.036 19.4059 9.524 19.4059 8.5C19.4059 8.06 19.4459 7.656 19.5259 7.288C19.6139 6.92 19.6779 6.652 19.7179 6.484C19.7579 6.316 19.7779 6.144 19.7779 5.968ZM26.9507 5.788C26.1747 5.788 25.7947 5.592 25.8107 5.2C25.8107 4.832 26.1827 4.648 26.9267 4.648C27.1027 4.648 27.2707 4.668 27.4307 4.708C27.6947 4.444 27.8267 4.044 27.8267 3.508C27.8267 2.58 27.2067 2.116 25.9667 2.116C25.3187 2.116 24.7027 2.256 24.1187 2.536C23.9027 2.64 23.7067 2.736 23.5307 2.824C23.3627 2.912 23.2067 2.956 23.0627 2.956C22.9187 2.956 22.8467 2.912 22.8467 2.824C22.8467 2.72 22.9267 2.568 23.0867 2.368C23.2467 2.16 23.4707 1.952 23.7587 1.744C24.4947 1.232 25.3307 0.972 26.2667 0.964C27.4907 0.964 28.3907 1.208 28.9667 1.696C29.4627 2.104 29.7107 2.66 29.7107 3.364C29.7107 4.18 29.3107 4.804 28.5107 5.236C29.2787 5.676 29.7347 6.216 29.8787 6.856C29.9267 7.08 29.9507 7.376 29.9507 7.744C29.9507 8.112 29.8507 8.46 29.6507 8.788C29.4507 9.116 29.1827 9.392 28.8467 9.616C28.1747 10.048 27.3147 10.264 26.2667 10.264C25.5227 10.264 24.6947 10.096 23.7827 9.76C23.1747 9.536 22.7267 9.268 22.4387 8.956C22.2947 8.804 22.2227 8.652 22.2227 8.5C22.2307 8.348 22.3067 8.272 22.4507 8.272C22.6027 8.272 22.8867 8.324 23.3027 8.428V8.416C23.3027 7.792 23.3747 7.152 23.5187 6.496C23.7667 5.352 24.0547 4.456 24.3827 3.808C24.7347 3.088 25.0987 2.728 25.4747 2.728C25.5787 2.728 25.6307 2.908 25.6307 3.268C25.6307 3.628 25.5947 3.996 25.5227 4.372C25.4587 4.748 25.3867 5.12 25.3067 5.488C25.2347 5.848 25.1627 6.176 25.0907 6.472C25.0267 6.768 24.9947 6.98 24.9947 7.108L24.8747 8.92C25.3467 9.048 25.7467 9.112 26.0747 9.112C26.4027 9.112 26.6987 9.056 26.9627 8.944C27.6267 8.664 27.9587 8.176 27.9587 7.48C27.9587 7.064 27.9187 6.72 27.8387 6.448C27.7587 6.176 27.6147 5.936 27.4067 5.728C27.2227 5.768 27.0707 5.788 26.9507 5.788ZM33.5868 10.036C32.4428 10.044 31.6628 9.616 31.2468 8.752C31.1028 8.448 31.0308 8.068 31.0308 7.612C31.0308 7.148 31.0708 6.656 31.1508 6.136C31.3108 5.096 31.6188 4.136 32.0748 3.256C32.3068 2.808 32.5668 2.424 32.8548 2.104C33.4868 1.4 34.1908 1.052 34.9668 1.06C35.3108 1.06 35.5788 1.156 35.7708 1.348C35.9708 1.532 36.0708 1.8 36.0708 2.152C36.0708 2.504 35.9668 2.86 35.7588 3.22C35.5508 3.572 35.2828 3.94 34.9548 4.324C34.6348 4.7 34.2788 5.096 33.8868 5.512C33.4948 5.928 33.1108 6.38 32.7348 6.868V7.348C32.7348 7.796 32.8308 8.124 33.0228 8.332C33.2148 8.54 33.4388 8.644 33.6948 8.644C34.3828 8.644 34.9908 8.304 35.5188 7.624C35.7348 7.344 35.8988 7.204 36.0108 7.204C36.1228 7.204 36.1788 7.34 36.1788 7.612C36.1788 7.884 36.1028 8.164 35.9508 8.452C35.8068 8.732 35.6148 8.992 35.3748 9.232C35.1348 9.464 34.8588 9.656 34.5468 9.808C34.2348 9.96 33.9148 10.036 33.5868 10.036ZM34.2348 3.592C34.4028 3.384 34.5348 3.196 34.6308 3.028C34.7268 2.86 34.7748 2.688 34.7748 2.512C34.7748 2.328 34.7108 2.236 34.5828 2.236C34.3028 2.236 33.9908 2.524 33.6468 3.1C33.3108 3.676 33.0588 4.432 32.8908 5.368C33.1628 4.952 33.4108 4.604 33.6348 4.324C33.8668 4.044 34.0668 3.8 34.2348 3.592ZM40.3174 8.98C39.6854 9.724 38.9254 10.096 38.0374 10.096C37.1574 10.096 36.4974 9.872 36.0574 9.424C35.6174 8.968 35.4014 8.404 35.4094 7.732C35.4014 6.78 35.7014 5.96 36.3094 5.272C36.9174 4.584 37.7134 4.24 38.6974 4.24C39.1454 4.24 39.5054 4.296 39.7774 4.408C40.2494 4.6 40.4854 4.78 40.4854 4.948C40.4854 5.076 40.1534 5.144 39.4894 5.152C38.8334 5.152 38.2814 5.38 37.8334 5.836C37.3934 6.284 37.1734 6.852 37.1734 7.54C37.1734 7.9 37.2774 8.204 37.4854 8.452C37.7014 8.692 38.0014 8.812 38.3854 8.812C38.7774 8.812 39.1014 8.732 39.3574 8.572C38.7894 8.188 38.5054 7.632 38.5054 6.904C38.4974 6.52 38.6334 6.172 38.9134 5.86C39.2014 5.54 39.5654 5.38 40.0054 5.38C40.4534 5.372 40.7734 5.492 40.9654 5.74C41.1574 5.988 41.2534 6.308 41.2534 6.7C41.2534 7.084 41.1614 7.492 40.9774 7.924H41.0494C41.4014 7.916 41.7054 7.792 41.9614 7.552C42.0574 7.456 42.1374 7.372 42.2014 7.3C42.2734 7.228 42.3454 7.192 42.4174 7.192C42.5294 7.192 42.5854 7.324 42.5854 7.588C42.5854 8.076 42.4414 8.444 42.1534 8.692C41.8654 8.932 41.5454 9.052 41.1934 9.052C40.8494 9.052 40.5574 9.028 40.3174 8.98ZM40.2094 7.588C40.3454 7.3 40.4134 7.02 40.4134 6.748C40.4134 6.476 40.3254 6.34 40.1494 6.34C40.0774 6.34 40.0174 6.392 39.9694 6.496C39.9214 6.6 39.8974 6.7 39.8974 6.796C39.8974 7.116 40.0014 7.38 40.2094 7.588ZM46.833 8.98C46.201 9.724 45.441 10.096 44.553 10.096C43.673 10.096 43.013 9.872 42.573 9.424C42.133 8.968 41.917 8.404 41.925 7.732C41.917 6.78 42.217 5.96 42.825 5.272C43.433 4.584 44.229 4.24 45.213 4.24C45.661 4.24 46.021 4.296 46.293 4.408C46.765 4.6 47.001 4.78 47.001 4.948C47.001 5.076 46.669 5.144 46.005 5.152C45.349 5.152 44.797 5.38 44.349 5.836C43.909 6.284 43.689 6.852 43.689 7.54C43.689 7.9 43.793 8.204 44.001 8.452C44.217 8.692 44.517 8.812 44.901 8.812C45.293 8.812 45.617 8.732 45.873 8.572C45.305 8.188 45.021 7.632 45.021 6.904C45.013 6.52 45.149 6.172 45.429 5.86C45.717 5.54 46.081 5.38 46.521 5.38C46.969 5.372 47.289 5.492 47.481 5.74C47.673 5.988 47.769 6.308 47.769 6.7C47.769 7.084 47.677 7.492 47.493 7.924H47.565C47.917 7.916 48.221 7.792 48.477 7.552C48.573 7.456 48.653 7.372 48.717 7.3C48.789 7.228 48.861 7.192 48.933 7.192C49.045 7.192 49.101 7.324 49.101 7.588C49.101 8.076 48.957 8.444 48.669 8.692C48.381 8.932 48.061 9.052 47.709 9.052C47.365 9.052 47.073 9.028 46.833 8.98ZM46.725 7.588C46.861 7.3 46.929 7.02 46.929 6.748C46.929 6.476 46.841 6.34 46.665 6.34C46.593 6.34 46.533 6.392 46.485 6.496C46.437 6.6 46.413 6.7 46.413 6.796C46.413 7.116 46.517 7.38 46.725 7.588ZM55.0766 6.352C55.0766 6.088 54.9246 5.956 54.6206 5.956C54.4126 5.956 54.1806 6.16 53.9246 6.568C53.6686 6.968 53.4846 7.4 53.3726 7.864V7.888C53.3726 8.16 53.4126 8.44 53.4926 8.728C53.5806 9.016 53.6246 9.216 53.6246 9.328C53.6246 9.6 53.2846 9.868 52.6046 10.132C52.5006 10.172 52.4086 10.192 52.3286 10.192C52.1286 10.192 51.9886 10.088 51.9086 9.88C51.8366 9.672 51.8006 9.392 51.8006 9.04C51.8006 8.68 51.8086 8.344 51.8246 8.032C51.8486 7.712 51.8686 7.42 51.8846 7.156C51.9086 6.884 51.9286 6.648 51.9446 6.448C51.9686 6.24 51.9806 6.072 51.9806 5.944C51.9806 5.672 51.8566 5.536 51.6086 5.536C51.3606 5.536 51.0726 5.828 50.7446 6.412C50.4166 6.988 50.2526 7.448 50.2526 7.792C50.2526 8.128 50.2926 8.44 50.3726 8.728C50.4606 9.016 50.5046 9.216 50.5046 9.328C50.5046 9.6 50.1646 9.868 49.4846 10.132C49.3806 10.172 49.2886 10.192 49.2086 10.192C49.0086 10.192 48.8686 10.088 48.7886 9.88C48.7166 9.672 48.6806 9.352 48.6806 8.92C48.6806 7.784 48.7246 6.964 48.8126 6.46C48.9326 5.716 49.2046 5.012 49.6286 4.348C49.7726 4.124 49.9286 4.012 50.0966 4.012C50.3606 4.012 50.6046 4.228 50.8286 4.66C50.8926 4.772 50.9406 4.876 50.9726 4.972C51.3566 4.492 51.8086 4.252 52.3286 4.252C52.6726 4.252 52.9806 4.368 53.2526 4.6C53.5246 4.824 53.6606 5.108 53.6606 5.452V5.584C54.1486 4.976 54.7446 4.672 55.4486 4.672C55.8806 4.672 56.2086 4.784 56.4326 5.008C56.6566 5.232 56.7686 5.508 56.7686 5.836C56.7686 6.164 56.7446 6.46 56.6966 6.724C56.6486 6.988 56.5926 7.236 56.5286 7.468C56.4726 7.7 56.4206 7.908 56.3726 8.092C56.3246 8.268 56.3006 8.408 56.3006 8.512C56.3006 8.608 56.3326 8.656 56.3966 8.656C56.5166 8.656 56.6646 8.58 56.8406 8.428C57.0166 8.276 57.1926 8.112 57.3686 7.936C57.5446 7.752 57.7046 7.584 57.8486 7.432C58.0006 7.28 58.1046 7.204 58.1606 7.204C58.2726 7.204 58.3286 7.34 58.3286 7.612C58.3286 8.172 58.0446 8.716 57.4766 9.244C56.9166 9.772 56.3166 10.036 55.6766 10.036C55.1006 10.036 54.8126 9.512 54.8126 8.464C54.8126 8.2 54.8566 7.836 54.9446 7.372C55.0326 6.908 55.0766 6.568 55.0766 6.352Z" fill="#3396D3"/>
</svg>
