<svg width="1533" height="1620" viewBox="0 0 1533 1620" fill="none" xmlns="http://www.w3.org/2000/svg">
<path d="M911.16 928.36C911.44 928.613 911.707 928.88 911.96 929.16L914.24 931.52L923.04 940.84L956.24 976.4L1073.88 1103.24H1072.52L1205.96 950.4L1206.88 949.36L1207.64 950.52L1217.36 965.16L1318.32 1117.16L1316.92 1116.92L1413.96 1039.4L1414.52 1038.96L1415 1039.48L1489.08 1123.48L1509.08 1146.4L1514.28 1152.4C1515.44 1153.76 1516 1154.48 1516 1154.48C1516 1154.48 1515.32 1153.84 1514.12 1152.56L1508.84 1146.4L1488.44 1123.76L1413.88 1040.36H1414.92L1318.12 1118.4L1317.32 1119.04L1316.72 1118.16L1215.64 966.4L1205.88 951.72H1207.52C1158.96 1007.32 1113.28 1059.52 1073.92 1104.56L1073.24 1105.32L1072.56 1104.56C1024.24 1052 983.8 1008.08 955.44 977.2L922.64 941.2L914.04 931.68C913.12 930.6 912.4 929.8 911.84 929.2C911.28 928.6 911.12 928.4 911.16 928.36Z" fill="#E6E6E6"/>
<path d="M1060.08 1104.28C1060.06 1107.06 1060.86 1109.78 1062.39 1112.1C1063.92 1114.42 1066.1 1116.24 1068.67 1117.31C1071.23 1118.39 1074.05 1118.67 1076.78 1118.14C1079.51 1117.6 1082.01 1116.26 1083.98 1114.3C1085.94 1112.33 1087.28 1109.83 1087.82 1107.1C1088.35 1104.37 1088.07 1101.55 1086.99 1098.99C1085.92 1096.42 1084.1 1094.24 1081.78 1092.71C1079.46 1091.18 1076.74 1090.38 1073.96 1090.4C1070.29 1090.42 1066.77 1091.89 1064.17 1094.49C1061.57 1097.09 1060.1 1100.61 1060.08 1104.28Z" fill="#E0E0E0"/>
<path d="M1305.16 1120.96C1305.18 1123.73 1306.01 1126.43 1307.57 1128.73C1309.12 1131.02 1311.32 1132.8 1313.89 1133.85C1316.45 1134.89 1319.27 1135.15 1321.98 1134.59C1324.7 1134.03 1327.18 1132.68 1329.13 1130.71C1331.07 1128.74 1332.39 1126.23 1332.91 1123.51C1333.43 1120.79 1333.13 1117.97 1332.05 1115.42C1330.97 1112.87 1329.16 1110.7 1326.84 1109.18C1324.53 1107.66 1321.81 1106.86 1319.04 1106.88C1315.33 1106.91 1311.79 1108.41 1309.19 1111.05C1306.59 1113.69 1305.14 1117.25 1305.16 1120.96Z" fill="#E0E0E0"/>
<path d="M1400.48 1043.88C1400.5 1046.64 1401.35 1049.33 1402.9 1051.62C1404.45 1053.9 1406.65 1055.67 1409.21 1056.7C1411.77 1057.74 1414.58 1057.99 1417.28 1057.43C1419.98 1056.87 1422.46 1055.51 1424.39 1053.55C1426.33 1051.58 1427.64 1049.08 1428.15 1046.37C1428.67 1043.65 1428.37 1040.85 1427.29 1038.31C1426.21 1035.77 1424.4 1033.6 1422.1 1032.09C1419.79 1030.57 1417.08 1029.78 1414.32 1029.8C1410.62 1029.84 1407.09 1031.35 1404.5 1033.99C1401.9 1036.62 1400.46 1040.18 1400.48 1043.88Z" fill="#E0E0E0"/>
<path d="M1192.76 952.28C1192.78 955.05 1193.61 957.754 1195.17 960.048C1196.72 962.342 1198.92 964.124 1201.49 965.168C1204.05 966.211 1206.87 966.47 1209.58 965.911C1212.3 965.352 1214.78 964.001 1216.73 962.028C1218.67 960.055 1219.99 957.549 1220.51 954.827C1221.03 952.106 1220.73 949.291 1219.65 946.74C1218.57 944.189 1216.76 942.015 1214.44 940.495C1212.13 938.975 1209.41 938.176 1206.64 938.2C1202.93 938.231 1199.39 939.731 1196.79 942.371C1194.19 945.01 1192.74 948.574 1192.76 952.28Z" fill="#E0E0E0"/>
<path d="M1504.96 1154.88C1504.98 1157.65 1505.81 1160.35 1507.37 1162.65C1508.92 1164.94 1511.12 1166.72 1513.69 1167.77C1516.25 1168.81 1519.07 1169.07 1521.78 1168.51C1524.5 1167.95 1526.98 1166.6 1528.93 1164.63C1530.88 1162.66 1532.19 1160.15 1532.71 1157.43C1533.23 1154.71 1532.93 1151.89 1531.85 1149.34C1530.77 1146.79 1528.96 1144.62 1526.64 1143.1C1524.33 1141.58 1521.61 1140.78 1518.84 1140.8C1515.13 1140.83 1511.59 1142.33 1508.99 1144.97C1506.39 1147.61 1504.94 1151.17 1504.96 1154.88Z" fill="#E0E0E0"/>
<path d="M278.8 95.5996H188.92V453.08H278.8V95.5996Z" fill="#E6E6E6"/>
<path d="M411 173.56H321.12V453.04H411V173.56Z" fill="#E6E6E6"/>
<path d="M545.24 237.4H455.36V453.04H545.24V237.4Z" fill="#E6E6E6"/>
<path d="M669.52 325H579.64V453.08H669.52V325Z" fill="#E6E6E6"/>
<path d="M597.56 6.40039C597.56 6.40039 596.72 7.48039 595.08 9.40039L587.6 18.0004L559.16 50.4004L456.6 166.4L456.04 167L455.4 166.52L388.48 115.24H389.84L296.24 233.88L295.12 235.32L294.44 236.2L293.6 235.44L167.56 124.12H168.96C119.48 189.08 77.56 244.56 47.56 283.8L12.64 329.44L3.32001 341.44L0.880005 344.52C0.607666 344.884 0.313804 345.232 0 345.56C0.227219 345.17 0.481167 344.796 0.76001 344.44L3.07999 341.24L12.16 328.96L46.6 283L167.4 122.76L168.04 121.92L168.8 122.6L295 233.64H293.48L294.6 232.2L388.32 113.64L388.92 112.88L389.68 113.48L456.48 164.72H455.28L558.36 49.6404C570.8 35.8404 580.56 25.0004 587.24 17.6404L594.88 9.24039C596.64 7.24039 597.56 6.40039 597.56 6.40039Z" fill="#E6E6E6"/>
<path d="M582.72 89.32C582.688 88.7131 582.755 88.105 582.92 87.52L583.92 82.4C584.96 77.64 586.36 71.32 587.92 63.6C591.48 47.6 596.52 25.76 602.32 1.28L603.6 2.48L599.08 3.87999C574 11.6 551.28 18.44 534.8 23.32L515.24 28.96L509.88 30.4C509.265 30.6292 508.616 30.751 507.96 30.76C508.534 30.4483 509.136 30.1937 509.76 30L515 28.2L534.36 21.92C550.72 16.68 573.4 9.6 598.36 1.92L602.88 0.559998L604.64 0L604.2 1.79999C598.64 26.4 593.56 48.16 589.56 63.96C587.6 71.6 586 77.88 584.84 82.6C584.28 84.56 583.8 86.24 583.44 87.6C583.286 88.2056 583.043 88.7852 582.72 89.32Z" fill="#E6E6E6"/>
<path d="M1291.76 610.84C1309.62 610.55 1327.17 615.562 1342.18 625.243C1357.19 634.923 1368.99 648.838 1376.1 665.227C1383.2 681.616 1385.29 699.744 1382.09 717.318C1378.89 734.892 1370.55 751.123 1358.13 763.959C1345.71 776.795 1329.76 785.659 1312.3 789.431C1294.84 793.203 1276.65 791.714 1260.04 785.15C1243.43 778.587 1229.13 767.245 1218.97 752.558C1208.8 737.872 1203.21 720.5 1202.92 702.64C1202.56 678.694 1211.7 655.581 1228.36 638.372C1245.01 621.162 1267.81 611.261 1291.76 610.84ZM1293.92 744.36C1302.46 744.201 1310.76 741.514 1317.77 736.64C1324.78 731.765 1330.19 724.922 1333.32 716.974C1336.44 709.026 1337.14 700.33 1335.33 691.985C1333.51 683.64 1329.26 676.02 1323.12 670.088C1316.98 664.157 1309.21 660.179 1300.81 658.658C1292.4 657.137 1283.74 658.141 1275.9 661.543C1268.07 664.945 1261.42 670.593 1256.8 677.772C1252.17 684.952 1249.78 693.341 1249.92 701.88C1250.02 707.559 1251.24 713.162 1253.5 718.371C1255.77 723.579 1259.03 728.29 1263.12 732.235C1267.21 736.18 1272.03 739.281 1277.31 741.361C1282.6 743.442 1288.24 744.461 1293.92 744.36Z" fill="#E0E0E0"/>
<path d="M1291.6 599.6C1318.53 599.215 1344.52 609.525 1363.87 628.271C1383.21 647.016 1394.34 672.667 1394.8 699.6L1333.2 701.2C1332.8 674.44 1314.68 663.56 1293.2 662.2C1287.92 661.885 1282.63 662.665 1277.67 664.492C1272.71 666.319 1268.18 669.153 1264.37 672.817C1260.55 676.48 1257.54 680.893 1255.51 685.777C1253.49 690.662 1252.5 695.913 1252.6 701.2L1191.64 702.84C1191.22 675.899 1201.52 649.894 1220.26 630.537C1239 611.18 1264.66 600.053 1291.6 599.6Z" fill="#F0F0F0"/>
<path d="M560.4 1008.84C591.495 976.21 634.156 957.091 679.204 955.595C724.253 954.099 768.088 970.345 801.28 1000.84C817.585 1015.87 830.745 1033.98 839.997 1054.13C849.249 1074.28 854.41 1096.07 855.18 1118.23C855.951 1140.39 852.315 1162.48 844.484 1183.23C836.653 1203.97 824.782 1222.96 809.56 1239.08C778.465 1271.71 735.804 1290.83 690.755 1292.32C645.707 1293.82 601.872 1277.57 568.68 1247.08C552.375 1232.05 539.215 1213.94 529.963 1193.79C520.71 1173.64 515.55 1151.85 514.779 1129.69C514.009 1107.53 517.645 1085.44 525.476 1064.69C533.307 1043.95 545.178 1024.96 560.4 1008.84ZM744.4 1179C751.697 1171.29 757.389 1162.21 761.143 1152.29C764.897 1142.36 766.639 1131.79 766.267 1121.18C765.894 1110.58 763.416 1100.15 758.975 1090.51C754.534 1080.87 748.22 1072.21 740.4 1065.04C724.512 1050.48 703.541 1042.73 682.002 1043.48C660.462 1044.23 640.078 1053.41 625.24 1069.04C617.942 1076.74 612.251 1085.82 608.496 1095.75C604.742 1105.68 603.001 1116.25 603.373 1126.86C603.745 1137.46 606.224 1147.89 610.665 1157.53C615.106 1167.17 621.42 1175.83 629.24 1183C645.127 1197.6 666.118 1205.36 687.679 1204.61C709.241 1203.86 729.644 1194.66 744.48 1179H744.4Z" fill="#F5F5F5"/>
<path d="M560.4 1008.84C591.495 976.21 634.156 957.091 679.205 955.595C724.253 954.099 768.088 970.345 801.28 1000.84L740.56 1065.16C724.673 1050.6 703.701 1042.85 682.162 1043.6C660.623 1044.35 640.239 1053.53 625.4 1069.16C618.103 1076.86 612.411 1085.94 608.657 1095.87C604.903 1105.8 603.161 1116.37 603.533 1126.98C603.905 1137.58 606.384 1148.01 610.825 1157.65C615.266 1167.29 621.58 1175.94 629.4 1183.12L568.6 1247.2C552.283 1232.17 539.114 1214.04 529.858 1193.87C520.602 1173.71 515.442 1151.91 514.68 1129.73C513.917 1107.56 517.566 1085.45 525.414 1064.7C533.263 1043.95 545.155 1024.96 560.4 1008.84Z" fill="#E0E0E0"/>
<path d="M794.32 973.2C878.32 1050.92 888.52 1177.2 809.92 1260.56L724.6 1187C762.16 1147.2 770.32 1094.04 730.12 1056.88L794.32 973.2Z" fill="#EBEBEB"/>
<path d="M715.72 1192.28L766.4 1292.52C787.356 1284.84 806.24 1272.39 821.56 1256.16L730.52 1182.64L715.72 1192.28Z" fill="#E0E0E0"/>
<path d="M906.92 267C906.181 222.069 918.786 177.928 943.139 140.162C967.492 102.395 1002.5 72.7005 1043.73 54.8338C1084.97 36.9672 1130.57 31.7315 1174.78 39.7891C1218.99 47.8468 1259.82 68.8357 1292.09 100.101C1324.37 131.366 1346.65 171.502 1356.12 215.431C1365.58 259.361 1361.8 305.111 1345.26 346.892C1328.71 388.674 1300.15 424.611 1263.18 450.155C1226.21 475.7 1182.49 489.706 1137.56 490.4C1077.38 491.257 1019.32 468.225 976.085 426.351C932.854 384.478 907.983 327.176 906.92 267ZM1242.64 261.6C1242.29 240.125 1235.58 219.237 1223.36 201.575C1211.13 183.914 1193.95 170.274 1173.98 162.378C1154 154.483 1132.14 152.688 1111.14 157.219C1090.15 161.751 1070.97 172.406 1056.03 187.837C1041.09 203.268 1031.06 222.783 1027.21 243.913C1023.36 265.043 1025.87 286.84 1034.4 306.548C1042.94 326.255 1057.13 342.989 1075.18 354.632C1093.23 366.275 1114.32 372.306 1135.8 371.96C1164.59 371.466 1192.01 359.568 1212.04 338.877C1232.08 318.187 1243.08 290.395 1242.64 261.6Z" fill="#FAFAFA"/>
<path d="M906.92 267C906.011 206.781 929.032 148.66 970.931 105.397C1012.83 62.1331 1070.18 37.2612 1130.4 36.2402L1132.32 154.76C1103.52 155.222 1076.08 167.106 1056.04 187.799C1036 208.492 1025 236.298 1025.46 265.1C1025.92 293.903 1037.81 321.342 1058.5 341.382C1079.19 361.423 1107 372.422 1135.8 371.96L1137.56 490.4C1077.37 491.278 1019.3 468.253 976.062 426.375C932.827 384.497 907.962 327.183 906.92 267Z" fill="#E0E0E0"/>
<path d="M1110 18.0001C1256.52 15.6401 1373.44 128.84 1375.76 275.36L1237.08 277.6C1235.96 207.52 1182.4 163.4 1112.36 164.56L1110 18.0001Z" fill="#F0F0F0"/>
<path d="M1377.56 1618.12C1377.56 1618.68 1078.48 1619.16 709.56 1619.16C340.64 1619.16 41.5601 1618.68 41.5601 1618.12C41.5601 1617.56 340.56 1617.04 709.56 1617.04C1078.56 1617.04 1377.56 1617.52 1377.56 1618.12Z" fill="#263238"/>
<path d="M451.44 1063.48L1192.64 1058.16V1068.56L451.44 1075.2V1063.48Z" fill="#263238"/>
<path d="M435.28 309.919L452.16 1069.68L1192.64 1063.92V297.159L435.28 309.919Z" fill="white"/>
<path d="M435.28 309.919L1192.64 296.279H1193.56V297.199C1193.56 516.679 1193.56 775.679 1193.56 1052V1065H1192.52L452.04 1070.64H451.16V1069.76C441.6 614.399 435.36 317.759 435.16 309.959C435.16 317.639 442.28 614.399 452.92 1069.68L452.04 1068.8L1192.52 1062.92L1191.48 1063.96V1051.96C1191.48 775.639 1191.48 516.639 1191.48 297.159L1192.4 298.079L435.28 309.919Z" fill="#263238"/>
<path d="M432.32 315L1195.88 310.64L1196.84 278.6L432.32 283.36V315Z" fill="#263238"/>
<path d="M797.84 1090.4C796.56 1090.4 795.2 1084.44 794.84 1077C794.48 1069.56 795.28 1063.48 796.56 1063.4C797.84 1063.32 799.2 1069.32 799.56 1076.76C799.92 1084.2 799.16 1090.4 797.84 1090.4Z" fill="#263238"/>
<path d="M797.56 1084.92C797.56 1084.64 798.84 1084.56 800.84 1085.36C802.047 1085.87 803.178 1086.54 804.2 1087.36C805.576 1088.47 806.73 1089.82 807.6 1091.36C808.787 1093.48 809.383 1095.89 809.326 1098.32C809.27 1100.76 808.563 1103.13 807.28 1105.2C806.51 1106.45 805.537 1107.55 804.4 1108.48C803.213 1109.43 801.856 1110.15 800.4 1110.6C797.308 1111.45 794.015 1111.21 791.08 1109.92C789.595 1109.26 788.241 1108.34 787.08 1107.2C785.926 1106.06 785.014 1104.7 784.4 1103.2C783.292 1100.47 783.055 1097.47 783.72 1094.6C784.212 1092.21 785.365 1090 787.048 1088.24C788.731 1086.47 790.876 1085.21 793.24 1084.6C796.265 1083.77 799.486 1084.06 802.32 1085.4C804.24 1086.36 804.96 1087.36 804.8 1087.6C804.64 1087.84 803.56 1087.6 801.72 1087.12C799.215 1086.65 796.629 1086.87 794.24 1087.76C792.701 1088.36 791.329 1089.32 790.24 1090.56C788.991 1092.02 788.176 1093.8 787.886 1095.71C787.596 1097.61 787.844 1099.55 788.6 1101.32C789.471 1103.22 791.029 1104.72 792.96 1105.52C794.883 1106.38 797.04 1106.56 799.08 1106.04C800.956 1105.55 802.583 1104.38 803.64 1102.76C804.682 1101.23 805.303 1099.45 805.44 1097.6C805.561 1096.76 805.561 1095.91 805.44 1095.08C805.31 1094.29 805.081 1093.53 804.76 1092.8C803.734 1090.45 802.123 1088.39 800.08 1086.84C798.6 1085.8 797.56 1085.24 797.56 1084.92Z" fill="#263238"/>
<path d="M907.72 725.68C907.72 725.68 907.72 725.68 907.24 725.68H905.88L900.6 725.92L880.24 726.8L805.36 729.6C742.12 731.92 654.72 735 558.24 738.32L525.04 739.44H524.28V738.68C517.56 650.4 511.48 571.28 507.28 514.4C505.2 486 503.56 463.16 502.4 447.44C501.88 439.44 501.44 433.48 501.16 429.36C501.16 427.28 500.92 425.72 500.88 424.64C500.84 423.56 500.88 423.72 500.88 423.44C500.88 423.16 500.88 423.04 500.88 423.04C500.899 423.173 500.899 423.307 500.88 423.44C500.88 423.72 500.88 424.12 500.88 424.64C500.88 425.16 501.12 427.28 501.32 429.32C501.64 433.32 502.16 439.52 502.84 447.4C504.08 463.12 505.92 485.96 508.2 514.28C512.68 571 518.84 649.92 525.64 738.56L524.84 737.84L558.04 736.68C654.52 733.4 742.04 730.48 805.16 728.48L880.08 726.16L900.44 725.6H905.72H907.56L907.72 725.68Z" fill="#455A64"/>
<path d="M639.6 398.44V408.64L745.12 403.6V395.04L639.6 398.44Z" fill="#263238"/>
<path d="M559.72 716.959H596.4L590.64 617.399H554.68L559.72 716.959Z" fill="#3396D3"/>
<path d="M626.2 717H662.84L657.12 577.84H621.16L626.2 717Z" fill="#3396D3"/>
<path d="M688.44 712.559H725.12L719.36 530.359H683.44L688.44 712.559Z" fill="#3396D3"/>
<path d="M831.24 705.479H867.88L862.16 457.159H826.2L831.24 705.479Z" fill="#3396D3"/>
<path d="M761.76 706.32H798.4L792.64 492.64H756.72L761.76 706.32Z" fill="#3396D3"/>
<path d="M536.68 591.6C535.72 590.12 601.24 546.44 682.96 494.04C764.68 441.64 831.8 400.36 832.76 402.04C833.72 403.72 768.2 447.2 686.44 499.6C604.68 552 537.56 593.08 536.68 591.6Z" fill="#3396D3"/>
<path d="M796.48 401.879C796.16 400.119 819.88 394.199 849.56 388.599L857.08 387.199L852.8 393.559L852.56 393.919C835.6 419.119 820.56 438.759 819.16 437.919C817.76 437.079 830.28 415.719 847.16 390.479L847.4 390.119L850.68 395.079C821.04 400.479 796.8 403.599 796.48 401.879Z" fill="#3396D3"/>
<path d="M554.68 750.6H593L594.2 757.4H554.68V750.6Z" fill="#263238"/>
<path d="M622.52 747.8H660.84L662.04 754.6H622.52V747.8Z" fill="#263238"/>
<path d="M692.36 745.8H730.68L731.88 752.6H692.36V745.8Z" fill="#263238"/>
<path d="M757.8 744.159H796.12L797.32 750.999H757.8V744.159Z" fill="#263238"/>
<path d="M838.88 741.76H877.2L878.4 748.6H838.88V741.76Z" fill="#263238"/>
<path d="M1010.76 1012.88C1078.32 1012.88 1133.08 958.115 1133.08 890.559C1133.08 823.004 1078.32 768.239 1010.76 768.239C943.204 768.239 888.44 823.004 888.44 890.559C888.44 958.115 943.204 1012.88 1010.76 1012.88Z" fill="#3396D3"/>
<path opacity="0.3" d="M1010.76 1012.88C1078.32 1012.88 1133.08 958.115 1133.08 890.559C1133.08 823.004 1078.32 768.239 1010.76 768.239C943.204 768.239 888.44 823.004 888.44 890.559C888.44 958.115 943.204 1012.88 1010.76 1012.88Z" fill="black"/>
<path d="M1010.76 890.4L891.44 917.24C872.24 829.24 943.2 768.08 1010.76 768.08" fill="#3396D3"/>
<path d="M1010.92 890.4L1010.12 768.08C1100.2 768.08 1144.84 850.44 1130.44 916.44L1010.92 890.4Z" fill="#3396D3"/>
<path d="M1010.92 890.4L1010.12 768.08C1100.2 768.08 1144.84 850.44 1130.44 916.44L1010.92 890.4Z" fill="#3396D3"/>
<path opacity="0.1" d="M1010.92 890.4L1010.12 768.08C1100.2 768.08 1144.84 850.44 1130.44 916.44L1010.92 890.4Z" fill="black"/>
<path d="M1136.24 600.92C1133.86 599.331 1131.33 597.991 1128.68 596.92C1121.29 594.66 1113.37 594.885 1106.12 597.56C1096.76 600.48 1087.48 607.92 1078.48 617.24C1069.48 626.56 1059.84 637.84 1045.76 644.44C1038.97 647.816 1031.32 649.083 1023.8 648.08C1017.02 646.672 1010.46 644.33 1004.32 641.12C998.914 638.305 993.137 636.272 987.16 635.08C981.961 634.264 976.638 634.929 971.8 637C964.681 640.022 958.858 645.462 955.36 652.36C954.236 654.952 953.313 657.626 952.6 660.36C952.725 657.466 953.418 654.626 954.64 652C957.989 644.716 963.876 638.901 971.2 635.64C976.217 633.406 981.758 632.617 987.2 633.36C993.375 634.506 999.355 636.526 1004.96 639.36C1010.94 642.463 1017.32 644.724 1023.92 646.08C1031.04 646.965 1038.25 645.741 1044.68 642.56C1058.2 636.24 1067.68 625.04 1076.92 615.88C1086.16 606.72 1095.72 599 1105.44 596.16C1112.99 593.526 1121.21 593.526 1128.76 596.16C1130.77 596.936 1132.67 597.986 1134.4 599.28C1135.08 599.749 1135.7 600.3 1136.24 600.92Z" fill="#263238"/>
<path d="M1146.6 679.96C1146.6 680.56 1103.16 681 1049.6 681C996.04 681 952.6 680.56 952.6 679.96C952.6 679.36 996.04 678.92 1049.6 678.92C1103.16 678.92 1146.6 679.4 1146.6 679.96Z" fill="#263238"/>
<path d="M1135.8 679.96C1135.24 679.96 1134.76 655.24 1134.76 624.72C1134.76 594.2 1135.24 569.52 1135.8 569.52C1136.36 569.52 1136.84 594.24 1136.84 624.72C1136.84 655.2 1136.4 679.96 1135.8 679.96Z" fill="#263238"/>
<path d="M972.16 633.44C972.16 633.44 971.88 633.04 972.16 632.32C972.344 631.815 972.636 631.356 973.016 630.976C973.396 630.596 973.855 630.304 974.36 630.12C975.121 629.784 975.959 629.662 976.784 629.767C977.609 629.873 978.389 630.203 979.04 630.72C979.745 631.511 980.161 632.517 980.22 633.575C980.279 634.633 979.977 635.679 979.364 636.543C978.751 637.407 977.862 638.037 976.845 638.331C975.827 638.625 974.739 638.564 973.76 638.16C973.071 637.748 972.505 637.161 972.118 636.458C971.731 635.755 971.539 634.962 971.56 634.16C971.552 633.627 971.65 633.097 971.849 632.603C972.049 632.108 972.345 631.658 972.72 631.28C973.32 630.8 973.76 630.8 973.8 630.88C973.84 630.96 972.72 632.04 973 634.08C973.056 634.605 973.233 635.109 973.518 635.553C973.803 635.998 974.187 636.37 974.64 636.64C975.201 636.781 975.792 636.75 976.335 636.551C976.879 636.352 977.349 635.994 977.686 635.523C978.023 635.053 978.21 634.491 978.223 633.913C978.236 633.334 978.075 632.765 977.76 632.28C977.359 631.95 976.883 631.724 976.374 631.619C975.866 631.515 975.339 631.535 974.84 631.68C972.8 632 972.44 633.52 972.16 633.44Z" fill="#263238"/>
<path d="M1102.96 593.319C1102.96 593.319 1102.96 592.839 1103.68 592.439C1104.61 591.972 1105.69 591.886 1106.68 592.199C1107.47 592.414 1108.18 592.84 1108.75 593.433C1109.31 594.025 1109.7 594.76 1109.88 595.559C1109.94 596.591 1109.65 597.613 1109.06 598.461C1108.47 599.309 1107.61 599.934 1106.62 600.234C1105.64 600.534 1104.58 600.493 1103.61 600.117C1102.65 599.74 1101.84 599.051 1101.32 598.159C1101.03 597.388 1100.96 596.553 1101.11 595.743C1101.25 594.934 1101.62 594.179 1102.16 593.559C1102.84 592.76 1103.8 592.257 1104.84 592.159C1105.56 592.159 1105.92 592.399 1105.88 592.519C1105.84 592.639 1104.36 592.719 1103.36 594.439C1103.08 594.868 1102.91 595.355 1102.85 595.861C1102.8 596.368 1102.86 596.881 1103.04 597.359C1103.39 597.791 1103.86 598.108 1104.4 598.27C1104.93 598.432 1105.5 598.431 1106.03 598.268C1106.56 598.105 1107.04 597.787 1107.39 597.354C1107.74 596.921 1107.95 596.394 1108 595.839C1107.89 595.341 1107.67 594.876 1107.35 594.479C1107.03 594.083 1106.62 593.768 1106.16 593.559C1104.4 592.679 1103.16 593.599 1102.96 593.319Z" fill="#263238"/>
<path d="M1132.36 462.399C1132.36 462.959 1090.28 463.439 1038.4 463.439C986.52 463.439 944.44 462.959 944.44 462.399C944.44 461.839 986.48 461.359 1038.4 461.359C1090.32 461.359 1132.36 461.919 1132.36 462.399Z" fill="#263238"/>
<path d="M1132.36 488.6C1132.36 489.2 1090.28 489.64 1038.4 489.64C986.52 489.64 944.44 489.2 944.44 488.6C944.44 488 986.48 487.56 1038.4 487.56C1090.32 487.56 1132.36 488.04 1132.36 488.6Z" fill="#263238"/>
<path d="M1132.36 514.72C1132.36 515.28 1090.28 515.76 1038.4 515.76C986.52 515.76 944.44 515.28 944.44 514.72C944.44 514.16 986.48 513.68 1038.4 513.68C1090.32 513.68 1132.36 514.12 1132.36 514.72Z" fill="#263238"/>
<path d="M1132.36 540.8C1132.36 541.4 1090.28 541.84 1038.4 541.84C986.52 541.84 944.44 541.4 944.44 540.8C944.44 540.2 986.48 539.76 1038.4 539.76C1090.32 539.76 1132.36 540.24 1132.36 540.8Z" fill="#263238"/>
<path d="M1044.44 414.76H944.44V423.2H1044.44V414.76Z" fill="#263238"/>
<path d="M631.64 833.8H531.64V842.24H631.64V833.8Z" fill="#263238"/>
<path d="M805.28 882.72C805.28 883.32 744.6 883.76 669.76 883.76C594.92 883.76 534.2 883.32 534.2 882.72C534.2 882.12 594.88 881.68 669.76 881.68C744.64 881.68 805.28 882.16 805.28 882.72Z" fill="#263238"/>
<path d="M806.88 906.399C806.88 906.959 745.12 907.439 668.96 907.439C592.8 907.439 531.04 906.959 531.04 906.399C531.04 905.839 592.76 905.359 668.96 905.359C745.16 905.359 806.88 905.919 806.88 906.399Z" fill="#263238"/>
<path d="M810.04 928.72C810.04 929.28 747.92 929.76 671.32 929.76C594.72 929.76 532.6 929.28 532.6 928.72C532.6 928.16 594.72 927.68 671.32 927.68C747.92 927.68 810.04 928.12 810.04 928.72Z" fill="#263238"/>
<path d="M676.88 952.479C676.88 953.039 644.88 953.519 605.52 953.519C566.16 953.519 534.2 953.039 534.2 952.479C534.2 951.919 566.2 951.439 605.52 951.439C644.84 951.439 676.88 951.919 676.88 952.479Z" fill="#263238"/>
<path d="M241.28 1600V1564L173.56 1563.4L173 1616.32L177 1616.6C195.68 1617.76 272.04 1621.16 284.56 1617.48C298.72 1613.32 241.28 1600 241.28 1600Z" fill="#3396D3"/>
<path d="M286.36 1614.16C286.36 1614.8 261.04 1615.32 229.8 1615.32C198.56 1615.32 173.2 1614.8 173.2 1614.16C173.2 1613.52 198.56 1613 229.8 1613C261.04 1613 286.36 1613.52 286.36 1614.16Z" fill="#263238"/>
<path d="M242.48 1607.4C241.92 1607.08 242.48 1605.12 243.84 1603.4C245.2 1601.68 247.08 1600.56 247.48 1601C247.88 1601.44 247 1603.08 245.68 1605C244.36 1606.92 243.04 1607.72 242.48 1607.4Z" fill="#263238"/>
<path d="M246.8 1609.76C246.2 1609.52 246.52 1607.36 247.84 1605.12C249.16 1602.88 250.92 1601.52 251.4 1601.92C251.88 1602.32 251.08 1604.2 249.84 1606.28C248.6 1608.36 247.4 1610 246.8 1609.76Z" fill="#263238"/>
<path d="M193.56 1613.92C193.28 1614.12 192.24 1613.16 190.76 1611.56C188.958 1609.47 186.963 1607.55 184.8 1605.84C182.643 1604.26 180.129 1603.23 177.48 1602.84C175.44 1602.56 174.12 1602.84 174 1602.52C173.88 1602.2 175.16 1601.36 177.52 1601.2C180.63 1601.11 183.678 1602.09 186.16 1603.96C188.526 1605.77 190.534 1608.01 192.08 1610.56C193.32 1612.44 193.88 1613.72 193.56 1613.92Z" fill="#263238"/>
<path d="M242.68 1600.6C243 1601.12 241.8 1602.4 239.88 1603.08C237.96 1603.76 236.24 1603.52 236.16 1602.88C236.08 1602.24 237.4 1601.52 239.12 1600.92C240.84 1600.32 242.32 1600.04 242.68 1600.6Z" fill="#263238"/>
<path d="M241.56 1597.08C241.56 1597.72 239.8 1598.28 237.56 1598.32C235.32 1598.36 233.56 1597.84 233.56 1597.2C233.56 1596.56 235.4 1596.04 237.56 1596C239.72 1595.96 241.56 1596.44 241.56 1597.08Z" fill="#3396D3"/>
<path d="M286.36 1614.16C286.36 1614.8 261.04 1615.32 229.8 1615.32C198.56 1615.32 173.2 1614.8 173.2 1614.16C173.2 1613.52 198.56 1613 229.8 1613C261.04 1613 286.36 1613.52 286.36 1614.16Z" fill="#263238"/>
<path d="M242.48 1607.4C241.92 1607.08 242.48 1605.12 243.84 1603.4C245.2 1601.68 247.08 1600.56 247.48 1601C247.88 1601.44 247 1603.08 245.68 1605C244.36 1606.92 243.04 1607.72 242.48 1607.4Z" fill="#263238"/>
<path d="M246.8 1609.76C246.2 1609.52 246.52 1607.36 247.84 1605.12C249.16 1602.88 250.92 1601.52 251.4 1601.92C251.88 1602.32 251.08 1604.2 249.84 1606.28C248.6 1608.36 247.4 1610 246.8 1609.76Z" fill="#263238"/>
<path d="M193.56 1613.92C193.28 1614.12 192.24 1613.16 190.76 1611.56C188.958 1609.47 186.963 1607.55 184.8 1605.84C182.643 1604.26 180.129 1603.23 177.48 1602.84C175.44 1602.56 174.12 1602.84 174 1602.52C173.88 1602.2 175.16 1601.36 177.52 1601.2C180.63 1601.11 183.678 1602.09 186.16 1603.96C188.526 1605.77 190.534 1608.01 192.08 1610.56C193.32 1612.44 193.88 1613.72 193.56 1613.92Z" fill="#263238"/>
<path d="M242.68 1600.6C243 1601.12 241.8 1602.4 239.88 1603.08C237.96 1603.76 236.24 1603.52 236.16 1602.88C236.08 1602.24 237.4 1601.52 239.12 1600.92C240.84 1600.32 242.32 1600.04 242.68 1600.6Z" fill="#263238"/>
<path d="M241.56 1597.08C241.56 1597.72 239.8 1598.28 237.56 1598.32C235.32 1598.36 233.56 1597.84 233.56 1597.2C233.56 1596.56 235.4 1596.04 237.56 1596C239.72 1595.96 241.56 1596.44 241.56 1597.08Z" fill="#263238"/>
<path d="M312.72 1587.2L323.4 1552.68L258.84 1532.2L242.84 1582.56L246.84 1584.08C264.32 1590.72 336.28 1616.56 349.32 1616.76C363.64 1616.92 312.72 1587.2 312.72 1587.2Z" fill="#3396D3"/>
<path d="M351.6 1614.04C351.6 1614.68 327.04 1607.68 297.2 1598.4C267.36 1589.12 243.32 1581.16 243.52 1580.56C243.72 1579.96 268.04 1586.96 297.92 1596.2C327.8 1605.44 351.8 1613.44 351.6 1614.04Z" fill="#263238"/>
<path d="M311.68 1594.6C311.24 1594.12 312.28 1592.44 314.2 1591.04C316.12 1589.64 318.2 1589.28 318.4 1589.84C318.6 1590.4 317.32 1591.68 315.56 1592.96C313.8 1594.24 312.12 1595.04 311.68 1594.6Z" fill="#263238"/>
<path d="M315.08 1598.16C314.6 1597.76 315.52 1595.76 317.48 1594.16C319.44 1592.56 321.48 1591.64 321.84 1592.16C322.2 1592.68 320.84 1594.24 319.04 1595.88C317.24 1597.52 315.6 1598.4 315.08 1598.16Z" fill="#263238"/>
<path d="M263.08 1586.4C262.76 1586.4 262.08 1585.32 261.16 1583.32C260.061 1580.8 258.721 1578.39 257.16 1576.12C255.572 1573.97 253.485 1572.24 251.08 1571.08C249.2 1570.24 247.84 1570.08 247.84 1569.76C247.84 1569.44 249.28 1568.96 251.6 1569.52C254.583 1570.37 257.192 1572.2 259 1574.72C260.713 1577.14 261.973 1579.85 262.72 1582.72C263.24 1584.88 263.36 1586.4 263.08 1586.4Z" fill="#455A64"/>
<path d="M313.88 1588.16C313.88 1588.76 312.52 1589.64 310.48 1589.72C308.44 1589.8 306.84 1589.04 306.96 1588.4C307.08 1587.76 308.6 1587.48 310.4 1587.4C312.2 1587.32 313.56 1587.52 313.88 1588.16Z" fill="#263238"/>
<path d="M313.88 1584.52C313.88 1585.12 311.88 1585.12 309.68 1584.52C307.48 1583.92 305.92 1582.84 306.12 1582.24C306.32 1581.64 308.24 1581.68 310.32 1582.24C312.4 1582.8 314.04 1583.88 313.88 1584.52Z" fill="#263238"/>
<path d="M358.68 884.92L269.8 878.08L135.16 867.16L150.2 1590.4L267.12 1588.88C267.12 1588.88 267.12 1580.88 266.84 1566.72L335.4 1585.48C335.4 1585.48 402.2 1359.8 424.96 1267.2C443.96 1190.04 358.68 884.92 358.68 884.92ZM265.56 1454.4C263.8 1287.44 261.76 1003.52 264.2 968.8C264.2 968.8 329.32 1218.76 329.92 1238.48C330.32 1250.4 294.04 1365.76 265.56 1454.4Z" fill="#455A64"/>
<path d="M267.76 1561.48C267.76 1562.12 241.6 1562.64 209.36 1562.64C177.12 1562.64 150.92 1562.12 150.92 1561.48C150.92 1560.84 177.08 1560.32 209.36 1560.32C241.64 1560.32 267.76 1560.84 267.76 1561.48Z" fill="#455A64"/>
<path d="M266.72 1535.48C270.377 1536.35 273.961 1537.5 277.44 1538.92L304.2 1548.24L330.96 1557.6C334.744 1558.68 338.415 1560.13 341.92 1561.92C338.012 1561.38 334.167 1560.45 330.44 1559.16C323.48 1557.12 313.92 1554.08 303.44 1550.44C292.96 1546.8 283.44 1543.2 276.88 1540.44C273.28 1539.27 269.861 1537.6 266.72 1535.48Z" fill="#455A64"/>
<path d="M373.84 1236.24C366.608 1237.93 359.223 1238.86 351.8 1239.04C344.438 1239.98 336.998 1240.15 329.6 1239.56C336.827 1237.85 344.214 1236.89 351.64 1236.72C359.003 1235.78 366.444 1235.62 373.84 1236.24Z" fill="#455A64"/>
<path d="M366.2 1249.36C360.45 1248.88 354.788 1247.64 349.36 1245.68C343.71 1244.45 338.249 1242.47 333.12 1239.8C338.886 1240.24 344.566 1241.46 350 1243.44C359.12 1246.08 366.4 1248.72 366.2 1249.36Z" fill="#455A64"/>
<path d="M274.96 879C275.497 883.566 275.698 888.165 275.56 892.76C275.56 901.28 275.56 913.04 275.56 926.04C275.56 932.48 275.56 938.64 275.32 944.32C275.466 949.437 274.511 954.525 272.52 959.24C271.101 962.453 268.833 965.219 265.96 967.24C264.98 968.052 263.81 968.603 262.56 968.84C262.56 968.84 263.68 968.12 265.48 966.6C268.006 964.435 269.968 961.69 271.2 958.6C272.868 954.018 273.615 949.152 273.4 944.28C273.4 938.56 273.4 932.28 273.4 925.96C273.4 912.96 273.72 901.2 273.96 892.72C273.947 888.128 274.281 883.542 274.96 879Z" fill="#455A64"/>
<path d="M208.04 874.92C208.083 875.506 208.083 876.094 208.04 876.68C208.04 877.96 208.04 879.68 208.04 881.88C208.04 886.52 207.68 893.24 207.4 901.88C206.84 919.28 206.04 944.28 205.04 975.12C203.16 1036.96 201.24 1122.44 200.76 1216.8C200.28 1311.16 201.36 1396.8 202.6 1458.6C203.28 1489.44 203.8 1514.6 204.2 1531.84C204.2 1540.44 204.52 1547.12 204.64 1551.84C204.64 1554.04 204.64 1555.84 204.64 1557.04C204.683 1557.63 204.683 1558.21 204.64 1558.8C204.597 1558.21 204.597 1557.63 204.64 1557.04C204.64 1555.8 204.64 1554.08 204.36 1551.88C204.36 1547.2 203.92 1540.52 203.56 1531.88C202.88 1514.6 202.08 1489.56 201.28 1458.64C199.64 1396.76 198.36 1311.28 198.84 1216.8C199.32 1122.32 201.48 1036.8 203.72 975.08C204.84 944.16 205.88 919.08 206.76 901.84C207.2 893.28 207.56 886.6 207.8 881.84C207.8 879.64 208.04 877.84 208.12 876.64C208.052 876.069 208.025 875.494 208.04 874.92Z" fill="#455A64"/>
<path d="M329.56 893.12C329.803 893.65 330.003 894.199 330.16 894.76C330.52 895.96 331.04 897.56 331.68 899.64C332.96 903.92 335 910.24 337.24 918.48C341.84 934.92 348.04 958.8 354.96 988.52C361.88 1018.24 369.56 1053.68 377.56 1093.2C385.56 1132.72 394 1176.24 401.56 1222.16C402.52 1227.92 403.4 1233.64 404.16 1239.36C404.16 1240.88 404.44 1242.44 404.44 1243.92L403.72 1248.16C403.2 1251 402.8 1253.84 402.16 1256.6C399.88 1267.72 397.32 1278.6 394.56 1289.24C389.12 1310.52 383.36 1330.88 377.68 1350.24C366.4 1388.96 355.52 1423.6 346.28 1452.68C337.04 1481.76 329.32 1505.16 323.88 1521.32L317.56 1539.92L315.84 1544.76C315.691 1545.32 315.476 1545.85 315.2 1546.36C315.304 1545.79 315.452 1545.23 315.64 1544.68C316.04 1543.48 316.52 1541.88 317.16 1539.8L323.12 1521.08L344.88 1452.24C353.92 1423.12 364.64 1388.44 375.84 1349.72C381.44 1330.36 387.16 1309.96 392.6 1288.72C395.32 1278.12 397.88 1267.28 400.16 1256.2C400.8 1253.44 401.16 1250.64 401.64 1247.84L402.36 1243.64C402.36 1242.28 402.16 1240.96 402.08 1239.64C401.32 1234 400.48 1228.28 399.52 1222.56C391.92 1176.68 383.52 1133.16 375.52 1093.64C367.52 1054.12 360.28 1018.4 353.56 988.84C346.84 959.28 340.8 935.16 336.44 918.68C334.36 910.44 332.44 904.08 331.28 899.76L329.96 894.84C329.764 894.283 329.629 893.706 329.56 893.12Z" fill="#455A64"/>
<path d="M265.2 1439.72C265.522 1441.58 265.643 1443.47 265.56 1445.36C265.56 1449.36 265.56 1454.6 265.76 1460.8C265.76 1474.2 266.24 1492 266.52 1511.64C266.8 1531.28 267.56 1549.08 267.92 1562.48C267.92 1568.68 268.24 1573.88 268.36 1577.92C268.541 1579.8 268.541 1581.69 268.36 1583.56C267.919 1581.73 267.677 1579.85 267.64 1577.96C267.32 1574.32 266.96 1569.08 266.56 1562.56C265.76 1549.56 265 1531.56 264.56 1511.68C264.12 1491.8 264.2 1473.8 264.56 1460.8C264.56 1454.28 264.84 1448.8 265 1445.36C264.919 1443.48 264.986 1441.59 265.2 1439.72Z" fill="#455A64"/>
<path d="M358.68 884.92L269.8 878.08L135.16 867.16L150.2 1590.4L267.12 1588.88C267.12 1588.88 267.12 1580.88 266.84 1566.72L335.4 1585.48C335.4 1585.48 402.2 1359.8 424.96 1267.2C443.96 1190.04 358.68 884.92 358.68 884.92ZM265.56 1454.4C263.8 1287.44 261.76 1003.52 264.2 968.8C264.2 968.8 329.32 1218.76 329.92 1238.48C330.32 1250.4 294.04 1365.76 265.56 1454.4Z" fill="#263238"/>
<path d="M267.76 1561.48C267.76 1562.12 241.6 1562.64 209.36 1562.64C177.12 1562.64 150.92 1562.12 150.92 1561.48C150.92 1560.84 177.08 1560.32 209.36 1560.32C241.64 1560.32 267.76 1560.84 267.76 1561.48Z" fill="#455A64"/>
<path d="M266.72 1535.48C270.377 1536.35 273.961 1537.5 277.44 1538.92L304.2 1548.24L330.96 1557.6C334.744 1558.68 338.415 1560.13 341.92 1561.92C338.012 1561.38 334.167 1560.45 330.44 1559.16C323.48 1557.12 313.92 1554.08 303.44 1550.44C292.96 1546.8 283.44 1543.2 276.88 1540.44C273.28 1539.27 269.861 1537.6 266.72 1535.48Z" fill="#455A64"/>
<path d="M373.84 1236.24C366.608 1237.93 359.223 1238.86 351.8 1239.04C344.438 1239.98 336.998 1240.15 329.6 1239.56C336.827 1237.85 344.214 1236.89 351.64 1236.72C359.003 1235.78 366.444 1235.62 373.84 1236.24Z" fill="#455A64"/>
<path d="M366.2 1249.36C360.45 1248.88 354.788 1247.64 349.36 1245.68C343.71 1244.45 338.249 1242.47 333.12 1239.8C338.886 1240.24 344.566 1241.46 350 1243.44C359.12 1246.08 366.4 1248.72 366.2 1249.36Z" fill="#455A64"/>
<path d="M274.96 879C275.497 883.566 275.698 888.165 275.56 892.76C275.56 901.28 275.56 913.04 275.56 926.04C275.56 932.48 275.56 938.64 275.32 944.32C275.466 949.437 274.511 954.525 272.52 959.24C271.101 962.453 268.833 965.219 265.96 967.24C264.98 968.052 263.81 968.603 262.56 968.84C262.56 968.84 263.68 968.12 265.48 966.6C268.006 964.435 269.968 961.69 271.2 958.6C272.868 954.018 273.615 949.152 273.4 944.28C273.4 938.56 273.4 932.28 273.4 925.96C273.4 912.96 273.72 901.2 273.96 892.72C273.947 888.128 274.281 883.542 274.96 879Z" fill="#455A64"/>
<path d="M208.04 874.92C208.083 875.506 208.083 876.094 208.04 876.68C208.04 877.96 208.04 879.68 208.04 881.88C208.04 886.52 207.68 893.24 207.4 901.88C206.84 919.28 206.04 944.28 205.04 975.12C203.16 1036.96 201.24 1122.44 200.76 1216.8C200.28 1311.16 201.36 1396.8 202.6 1458.6C203.28 1489.44 203.8 1514.6 204.2 1531.84C204.2 1540.44 204.52 1547.12 204.64 1551.84C204.64 1554.04 204.64 1555.84 204.64 1557.04C204.683 1557.63 204.683 1558.21 204.64 1558.8C204.597 1558.21 204.597 1557.63 204.64 1557.04C204.64 1555.8 204.64 1554.08 204.36 1551.88C204.36 1547.2 203.92 1540.52 203.56 1531.88C202.88 1514.6 202.08 1489.56 201.28 1458.64C199.64 1396.76 198.36 1311.28 198.84 1216.8C199.32 1122.32 201.48 1036.8 203.72 975.08C204.84 944.16 205.88 919.08 206.76 901.84C207.2 893.28 207.56 886.6 207.8 881.84C207.8 879.64 208.04 877.84 208.12 876.64C208.052 876.069 208.025 875.494 208.04 874.92Z" fill="#455A64"/>
<path d="M329.56 893.12C329.803 893.65 330.003 894.199 330.16 894.76C330.52 895.96 331.04 897.56 331.68 899.64C332.96 903.92 335 910.24 337.24 918.48C341.84 934.92 348.04 958.8 354.96 988.52C361.88 1018.24 369.56 1053.68 377.56 1093.2C385.56 1132.72 394 1176.24 401.56 1222.16C402.52 1227.92 403.4 1233.64 404.16 1239.36C404.16 1240.88 404.44 1242.44 404.44 1243.92L403.72 1248.16C403.2 1251 402.8 1253.84 402.16 1256.6C399.88 1267.72 397.32 1278.6 394.56 1289.24C389.12 1310.52 383.36 1330.88 377.68 1350.24C366.4 1388.96 355.52 1423.6 346.28 1452.68C337.04 1481.76 329.32 1505.16 323.88 1521.32L317.56 1539.92L315.84 1544.76C315.691 1545.32 315.476 1545.85 315.2 1546.36C315.304 1545.79 315.452 1545.23 315.64 1544.68C316.04 1543.48 316.52 1541.88 317.16 1539.8L323.12 1521.08L344.88 1452.24C353.92 1423.12 364.64 1388.44 375.84 1349.72C381.44 1330.36 387.16 1309.96 392.6 1288.72C395.32 1278.12 397.88 1267.28 400.16 1256.2C400.8 1253.44 401.16 1250.64 401.64 1247.84L402.36 1243.64C402.36 1242.28 402.16 1240.96 402.08 1239.64C401.32 1234 400.48 1228.28 399.52 1222.56C391.92 1176.68 383.52 1133.16 375.52 1093.64C367.52 1054.12 360.28 1018.4 353.56 988.84C346.84 959.28 340.8 935.16 336.44 918.68C334.36 910.44 332.44 904.08 331.28 899.76L329.96 894.84C329.764 894.283 329.629 893.706 329.56 893.12Z" fill="#455A64"/>
<path d="M265.2 1439.72C265.522 1441.58 265.643 1443.47 265.56 1445.36C265.56 1449.36 265.56 1454.6 265.76 1460.8C265.76 1474.2 266.24 1492 266.52 1511.64C266.8 1531.28 267.56 1549.08 267.92 1562.48C267.92 1568.68 268.24 1573.88 268.36 1577.92C268.541 1579.8 268.541 1581.69 268.36 1583.56C267.919 1581.73 267.677 1579.85 267.64 1577.96C267.32 1574.32 266.96 1569.08 266.56 1562.56C265.76 1549.56 265 1531.56 264.56 1511.68C264.12 1491.8 264.2 1473.8 264.56 1460.8C264.56 1454.28 264.84 1448.8 265 1445.36C264.919 1443.48 264.986 1441.59 265.2 1439.72Z" fill="#455A64"/>
<path d="M205.56 537.8L273.56 542.84C274.48 534.84 275.8 504.4 275.8 504.4C275.8 504.4 304.16 501.8 306.24 473.72C308.32 445.64 307.44 380.8 307.44 380.8C291.893 372.943 274.53 369.382 257.145 370.486C239.761 371.59 222.987 377.319 208.56 387.08L204.2 390.04L205.56 537.8Z" fill="#E5BAAB"/>
<path d="M297.76 428.681C297.221 428.114 296.86 427.401 296.723 426.631C296.585 425.86 296.676 425.067 296.984 424.348C297.293 423.629 297.806 423.016 298.459 422.586C299.112 422.155 299.877 421.926 300.66 421.926C301.442 421.926 302.208 422.155 302.861 422.586C303.514 423.016 304.027 423.629 304.335 424.348C304.644 425.067 304.735 425.86 304.597 426.631C304.459 427.401 304.099 428.114 303.56 428.681C303.186 429.074 302.736 429.387 302.238 429.601C301.739 429.815 301.202 429.926 300.66 429.926C300.117 429.926 299.58 429.815 299.082 429.601C298.583 429.387 298.134 429.074 297.76 428.681Z" fill="#263238"/>
<path d="M304.96 422.681C304.48 423.161 301.88 420.881 298 420.601C294.12 420.321 291.2 422.161 290.8 421.641C290.4 421.121 291.08 420.561 292.4 419.721C294.102 418.603 296.132 418.095 298.16 418.281C300.203 418.403 302.146 419.205 303.68 420.561C304.84 421.561 305.2 422.401 304.96 422.681Z" fill="#263238"/>
<path d="M260.16 423.321C260.793 423.783 261.277 424.422 261.55 425.157C261.823 425.893 261.874 426.692 261.697 427.456C261.519 428.22 261.121 428.915 260.551 429.455C259.982 429.994 259.267 430.354 258.494 430.49C257.722 430.626 256.926 430.532 256.207 430.219C255.487 429.907 254.876 429.39 254.448 428.732C254.02 428.075 253.795 427.306 253.801 426.522C253.806 425.737 254.043 424.972 254.48 424.321C254.78 423.874 255.168 423.492 255.619 423.198C256.07 422.904 256.577 422.705 257.107 422.611C257.637 422.518 258.181 422.533 258.706 422.655C259.23 422.776 259.725 423.003 260.16 423.321Z" fill="#263238"/>
<path d="M262.72 423.521C262.24 423.961 259.64 421.681 255.76 421.401C251.88 421.121 248.96 423.001 248.56 422.481C248.16 421.961 248.84 421.361 250.12 420.521C251.854 419.444 253.883 418.94 255.92 419.081C257.957 419.229 259.892 420.028 261.44 421.361C262.6 422.401 262.96 423.321 262.72 423.521Z" fill="#263238"/>
<path d="M276.28 456.401C278.326 455.768 280.458 455.458 282.6 455.481C283.64 455.481 284.48 455.281 284.6 454.721C284.701 453.688 284.507 452.647 284.04 451.721L281.48 443.721C279.017 436.881 277.209 429.822 276.08 422.641C279.179 429.208 281.657 436.051 283.48 443.081L285.88 451.081C286.457 452.404 286.57 453.885 286.2 455.281C286.032 455.655 285.777 455.984 285.458 456.242C285.138 456.499 284.762 456.677 284.36 456.761C283.789 456.835 283.211 456.835 282.64 456.761C280.514 456.981 278.367 456.86 276.28 456.401Z" fill="#263238"/>
<path d="M263.44 459.88C259.44 457.24 274.16 466.48 282.08 466.6C280.641 468.55 278.583 469.952 276.242 470.577C273.902 471.202 271.419 471.013 269.2 470.04C260.96 466.4 263.44 459.88 263.44 459.88Z" fill="white"/>
<path d="M275.64 504C262.652 503.452 250.12 499.052 239.64 491.36C239.64 491.36 247.04 512.12 275.24 511.36L275.64 504Z" fill="#D78776"/>
<path d="M209.56 414.96C208.92 414.72 188.68 412.08 190.6 436C192.52 459.92 216.04 450.04 216 449.36C215.96 448.68 209.56 414.96 209.56 414.96Z" fill="#E5BAAB"/>
<path d="M207.8 441.56C207.8 441.56 207.44 441.88 206.76 442.28C205.797 442.774 204.683 442.888 203.64 442.6C202.02 441.736 200.657 440.46 199.688 438.901C198.719 437.342 198.178 435.555 198.12 433.72C197.899 431.679 198.146 429.613 198.84 427.68C199 426.915 199.341 426.2 199.836 425.594C200.33 424.989 200.962 424.511 201.68 424.2C202.152 424.048 202.662 424.06 203.127 424.235C203.592 424.409 203.984 424.735 204.24 425.16C204.6 425.8 204.52 426.28 204.64 426.32C204.76 426.36 205.12 425.88 204.64 424.92C204.473 424.333 204.105 423.823 203.6 423.48C202.89 423.058 202.049 422.916 201.24 423.08C200.287 423.35 199.419 423.86 198.719 424.56C198.019 425.26 197.51 426.128 197.24 427.08C196.377 429.223 196.061 431.546 196.32 433.84C196.364 435.977 197.042 438.053 198.266 439.805C199.491 441.556 201.208 442.905 203.2 443.68C203.856 443.818 204.534 443.807 205.184 443.648C205.835 443.488 206.442 443.185 206.96 442.76C207.8 442.16 207.92 441.6 207.8 441.56Z" fill="#D78776"/>
<path d="M309.24 370.68C310.859 370.637 312.446 370.222 313.879 369.467C315.312 368.712 316.552 367.638 317.503 366.328C318.455 365.017 319.092 363.505 319.366 361.909C319.639 360.313 319.542 358.675 319.082 357.122C318.621 355.569 317.81 354.143 316.71 352.954C315.611 351.765 314.252 350.845 312.74 350.265C311.228 349.685 309.603 349.46 307.99 349.609C306.378 349.757 304.821 350.274 303.44 351.12C306.785 348.344 309.51 344.896 311.44 341C312.373 339.036 312.682 336.832 312.324 334.686C311.966 332.541 310.96 330.556 309.44 329C307.68 327.836 305.643 327.156 303.536 327.029C301.43 326.903 299.327 327.334 297.44 328.28C291.48 330.84 286.76 335.88 280.64 338C274.52 340.12 267.68 339.08 261.12 339.36C253.759 339.492 246.63 341.957 240.76 346.4C235.758 350.33 232.521 356.085 231.76 362.4C230.974 361.321 230.104 360.304 229.16 359.36C226.049 355.648 221.852 353.003 217.16 351.8C216.88 352.32 222.36 355.36 227.6 360.8C229.026 362.165 230.362 363.622 231.6 365.16C222.48 364.04 212.44 363.96 205.24 369.64C202.323 372.24 200.018 375.454 198.489 379.05C196.961 382.646 196.247 386.536 196.4 390.44C196.4 398.2 199.6 405.6 201.88 413.04C202.431 415.148 203.382 417.131 204.68 418.88L208.12 438.88L220.64 438.64L219.84 396.68C219.84 396.68 218.56 379 233.76 380.68C248.96 382.36 269.76 399.36 299.28 395.04C304.124 394.77 308.842 393.403 313.08 391.04C315.131 389.741 316.798 387.918 317.909 385.759C319.02 383.601 319.535 381.184 319.4 378.76C319.109 376.348 317.879 374.148 315.978 372.636C314.076 371.123 311.655 370.421 309.24 370.68Z" fill="#263238"/>
<path d="M563.64 577.76L565.48 565.04C567.36 558.082 568.54 550.953 569 543.76C569.301 540.185 568.977 536.584 568.04 533.12C567.097 528.76 565.534 524.558 563.4 520.64C561.08 517.24 564.12 512.64 567.4 514.04C570.68 515.44 577.52 524.48 579.72 537.52C581.92 550.56 592.2 532.48 596.04 525.96C599.88 519.44 612.8 499.8 615.76 499.4C620.08 498.8 621.52 503.4 617.48 509.76C613.44 516.12 602.8 536.32 606.36 538.16C609.025 537.734 611.75 537.871 614.36 538.56C614.781 538.684 615.153 538.935 615.425 539.279C615.697 539.622 615.856 540.042 615.88 540.48C615.865 542.498 616.08 544.511 616.52 546.48C616.52 546.48 621.76 545.28 622.84 547.56C623.57 549.902 623.908 552.348 623.84 554.8C623.84 554.8 627.84 553.44 629.76 554.8C633.76 558.04 628.64 563.6 628.64 563.6C616.862 577.65 604.21 590.943 590.76 603.4L563.2 576.84" fill="#E5BAAB"/>
<path d="M614.92 547.36C613.744 549.833 612.162 552.091 610.24 554.04C608.64 555.96 606.64 558.04 604.28 560.56C603.049 561.87 601.711 563.074 600.28 564.16C599.398 564.861 598.334 565.294 597.214 565.407C596.093 565.521 594.964 565.31 593.96 564.8C593.412 564.479 592.949 564.033 592.608 563.497C592.267 562.962 592.059 562.353 592 561.72C591.919 560.593 592.169 559.467 592.72 558.48C593.706 556.995 594.774 555.566 595.92 554.2C597.96 551.64 599.64 549.24 601.04 547.16C602.383 544.809 603.922 542.574 605.64 540.48C604.973 543.141 603.835 545.661 602.28 547.92C600.827 550.492 599.224 552.976 597.48 555.36C596.418 556.636 595.43 557.972 594.52 559.36C593.8 560.68 593.84 562.32 595 562.92C595.653 563.196 596.367 563.293 597.07 563.202C597.773 563.11 598.439 562.834 599 562.4C600.328 561.395 601.584 560.299 602.76 559.12C605.16 556.88 607.24 554.76 608.96 552.96C610.751 550.896 612.748 549.02 614.92 547.36Z" fill="#D78776"/>
<path d="M621.92 555.56C620.743 557.695 619.23 559.627 617.44 561.281C615.633 563.216 613.666 564.996 611.56 566.601C610.295 567.557 608.958 568.413 607.56 569.161C606.729 569.577 605.838 569.86 604.92 570C604.364 570.091 603.795 570.063 603.25 569.918C602.705 569.773 602.198 569.515 601.76 569.161C601.021 568.397 600.554 567.411 600.431 566.356C600.309 565.3 600.536 564.234 601.08 563.32C601.89 561.895 602.841 560.555 603.92 559.32C605.68 557.28 607.32 555.321 608.96 553.361C611.88 550.001 613.8 548.041 614.04 548.201C612.984 550.397 611.639 552.442 610.04 554.281L605.56 560.641C604.615 561.773 603.759 562.976 603 564.241C602.691 564.751 602.549 565.344 602.592 565.939C602.635 566.533 602.861 567.1 603.24 567.56C603.96 568.24 605.48 567.96 606.8 567.32C608.113 566.641 609.382 565.879 610.6 565.041C612.678 563.558 614.668 561.955 616.56 560.241C618.15 558.468 619.949 556.897 621.92 555.56Z" fill="#D78776"/>
<path d="M623.56 567.001C623.76 567.001 623.56 568.801 621.68 571.001C621.11 571.682 620.409 572.241 619.619 572.647C618.829 573.052 617.965 573.295 617.08 573.361C615.934 573.37 614.82 572.989 613.92 572.281C613.424 571.865 613.026 571.345 612.757 570.756C612.487 570.168 612.351 569.528 612.36 568.881C612.677 566.842 613.502 564.916 614.76 563.281C615.604 561.96 616.525 560.692 617.52 559.481C619.24 557.401 620.48 556.321 620.72 556.521C620.96 556.721 620.08 558.081 618.72 560.521C617.92 561.921 617.12 563.201 616.4 564.521C615.436 565.932 614.769 567.524 614.44 569.201C614.471 569.88 614.762 570.521 615.254 570.99C615.746 571.46 616.4 571.721 617.08 571.721C618.407 571.678 619.674 571.152 620.64 570.241C622.44 568.321 623.28 566.841 623.56 567.001Z" fill="#D78776"/>
<path d="M560.64 561.24C560.64 561.24 455.72 664.48 441 665.24C424.2 666.04 372.52 592.76 372.52 592.76C339.44 541.72 295.8 533.48 279.88 532.2V525.88L201.68 519.48C201.68 519.48 201.68 526.2 201.68 532.08H167.16C167.16 532.08 105.16 529.24 95.8799 612.52L140.44 647.76L158.72 715.76C165.08 739.44 142.36 777.16 131.52 838.24C129.848 848.423 131.548 858.873 136.36 868L362.16 893.961L350.16 721.32L346.52 681.32C365.12 706.72 398.52 742.64 439.44 741.84C509.24 740.52 606.2 593.84 606.2 593.84L560.64 561.24Z" fill="#E0E0E0"/>
<path d="M253.56 524.761C253.948 528.31 253.948 531.891 253.56 535.441C252.977 544.327 251.774 553.162 249.96 561.881L249.68 563.201L248.48 562.561C245.76 561.121 242.92 559.601 240.04 557.921C228.84 551.321 219.28 544.521 212.04 539.801C208.132 537.422 204.365 534.818 200.76 532.001C201.957 532.351 203.101 532.862 204.16 533.521C206.24 534.681 209.24 536.361 212.84 538.561C220.12 542.961 229.8 549.601 240.84 556.121C243.64 557.761 246.44 559.321 249.16 560.761L247.68 561.441C250 551.121 251.12 541.881 251.96 535.321C252.279 531.772 252.813 528.245 253.56 524.761Z" fill="#FAFAFA"/>
<path d="M280.12 532.641C279.618 536.077 278.869 539.472 277.88 542.801C277.12 545.961 276.32 549.721 274.96 553.801C274.252 555.958 273.41 558.068 272.44 560.121C272.16 560.857 271.657 561.486 271 561.921C270.544 562.2 270.008 562.317 269.477 562.251C268.947 562.186 268.454 561.943 268.08 561.561C267.331 560.456 266.726 559.259 266.28 558.001C262.28 548.921 259.12 540.681 256.8 534.641C255.341 531.477 254.228 528.164 253.48 524.761C255.348 527.703 256.916 530.825 258.16 534.081C260.84 539.961 264.4 548.121 268.2 557.201C268.569 558.211 269.024 559.188 269.56 560.121C269.76 560.121 269.56 560.121 269.92 560.121C270.221 559.877 270.455 559.56 270.6 559.201C271.557 557.233 272.412 555.217 273.16 553.161C274.56 549.161 275.52 545.481 276.44 542.401C277.235 539.001 278.473 535.72 280.12 532.641Z" fill="#FAFAFA"/>
<path d="M265.56 812.001C265.369 811.065 265.262 810.115 265.24 809.161C265.24 807.081 265.08 804.414 264.76 801.161C264.44 793.801 263.96 783.601 263.4 771.081C262.44 745.481 261.08 710.481 259.64 671.841C258.2 633.201 257.28 598.201 256.48 572.601C256.2 560.041 255.96 549.841 255.76 542.481C255.76 539.121 255.76 536.401 255.76 534.481C255.657 533.523 255.657 532.558 255.76 531.601C255.944 532.536 256.038 533.487 256.04 534.441C256.04 536.521 256.36 539.241 256.56 542.441C256.88 549.761 257.36 559.961 257.92 572.481C258.88 598.081 260.2 633.081 261.68 671.721C263.16 710.361 264 745.361 264.84 771.001C265.12 783.521 265.36 793.721 265.56 801.081C265.56 804.481 265.56 807.201 265.56 809.281C265.654 810.185 265.654 811.096 265.56 812.001Z" fill="#F5F5F5"/>
<path d="M251.32 550.04L257.88 568.12L263.52 548.72L254.76 529.28L251.32 550.04Z" fill="#3396D3"/>
<path d="M259.08 562.721L254.76 766.241L285.48 830.481L297.6 758.201L259.08 562.721Z" fill="#3396D3"/>
<path d="M442.12 690.4C442.12 690.4 442.12 691 442.12 692L441.88 693.52L441.2 692C439.652 687.954 438.761 683.687 438.56 679.36C437.898 674.535 438.476 669.62 440.24 665.08C440.84 665.08 440.24 671.48 440.64 679.24C440.96 684.76 441.84 689.48 442.12 691.76H441.2C441.56 690.68 441.96 690.4 442.12 690.4Z" fill="#FAFAFA"/>
<path d="M451.12 689.72C448.136 686.59 445.918 682.811 444.64 678.68C442.715 674.866 441.663 670.672 441.56 666.4C443.596 670.12 445.258 674.032 446.52 678.08C448.427 681.802 449.968 685.7 451.12 689.72Z" fill="#FAFAFA"/>
<path d="M599.64 603.561C590.989 598.984 582.674 593.798 574.76 588.041C566.467 582.864 558.553 577.103 551.08 570.801C559.727 575.414 568.041 580.626 575.96 586.401C584.25 591.552 592.164 597.286 599.64 603.561Z" fill="#FAFAFA"/>
<path d="M163.52 636.241C163.52 636.241 146.88 752.241 154.76 758.721C198.28 795.321 258.76 814.521 280.36 820.561C283.52 819.801 287.2 818.801 291.44 817.441C295.115 816.273 298.565 814.488 301.64 812.161C305.567 809.406 309.094 806.122 312.12 802.401C312.577 801.603 313.271 800.966 314.105 800.579C314.94 800.192 315.874 800.074 316.779 800.24C317.683 800.407 318.514 800.851 319.155 801.51C319.797 802.17 320.218 803.012 320.36 803.921C320.56 807.921 314.16 818.201 302.12 825.721C302.12 825.721 329.84 870.321 338.68 874.361C347.52 878.401 372.8 889.761 368.52 891.921C364.24 894.081 333.48 885.161 333.48 885.161L271.08 868.481C271.08 868.481 64.68 836.121 78.4 741.441C86.84 683.401 96.04 631.121 99.36 617.881L163.52 636.241Z" fill="#E5BAAB"/>
<path d="M95.8799 612.48L77.5599 738.92C73.2799 777.84 99.3599 808.76 134.44 826.16C187.84 852.6 267.12 871.48 266.44 871.36C265.76 871.24 271.8 814.92 271.8 814.92C271.8 814.92 160.64 766.92 157.16 746.12C153.68 725.32 171.28 638.92 171.28 638.92L95.8799 612.48Z" fill="#E0E0E0"/>
<path d="M266.28 871.361C266.238 871.029 266.238 870.693 266.28 870.361C266.28 869.561 266.28 868.601 266.48 867.441C266.68 864.681 266.96 860.961 267.36 856.201C268.2 846.281 269.44 832.201 270.92 814.881L271.36 815.601L215.36 788.521L199.36 780.521C193.96 777.641 188.52 774.481 183.12 771.001C177.641 767.465 172.378 763.604 167.36 759.441C164.84 757.321 162.32 755.081 159.92 752.721C158.567 751.533 157.477 750.075 156.72 748.441C156.296 747.648 155.986 746.8 155.8 745.921C155.537 745.086 155.35 744.229 155.24 743.361C153.44 729.521 157.12 716.481 159.24 704.041C161.36 691.601 163.48 679.481 165.48 668.041C169.48 645.081 173.12 624.441 176.16 607.001C177.801 599.275 178.739 591.416 178.96 583.521C179.037 577.58 177.808 571.694 175.36 566.281C173.79 562.865 171.56 559.793 168.8 557.241C166.88 555.521 165.72 554.841 165.76 554.721C166.95 555.32 168.064 556.058 169.08 556.921C172.017 559.398 174.402 562.464 176.08 565.921C178.705 571.417 180.072 577.43 180.08 583.521C179.991 591.489 179.147 599.431 177.56 607.241C174.64 624.721 171.16 645.401 167.32 668.401C165.36 679.881 163.32 691.961 161.2 704.401C160.68 707.521 160.12 710.681 159.56 713.881C159 717.081 158.4 720.201 157.96 723.401C156.908 729.868 156.733 736.447 157.44 742.961C157.567 743.757 157.74 744.545 157.96 745.321C158.117 746.089 158.387 746.831 158.76 747.521C159.419 748.934 160.374 750.189 161.56 751.201C163.92 753.521 166.36 755.721 168.84 757.801C173.792 761.924 178.988 765.744 184.4 769.241C189.72 772.721 195.08 775.841 200.4 778.721L216.4 786.721L271.96 814.401L272.4 814.641V815.121C270.6 832.441 269.16 846.481 268.16 856.401C267.6 861.121 267.2 864.881 266.88 867.601C266.72 868.774 266.6 869.734 266.52 870.481C266.469 870.781 266.388 871.076 266.28 871.361Z" fill="#FAFAFA"/>
<path d="M255.96 807.2C256.079 810.097 255.85 812.998 255.28 815.84C254.6 821.12 253.48 828.4 252 836.4C250.52 844.4 248.84 851.6 247.48 856.76C246.931 859.605 246.003 862.363 244.72 864.96C244.859 862.069 245.302 859.2 246.04 856.4C247.213 850.374 248.547 843.574 250.04 836C251.44 826.291 253.417 816.674 255.96 807.2Z" fill="#FAFAFA"/>
<path d="M266.28 871.36C265.614 871.357 264.952 871.249 264.32 871.04L258.84 869.72L238.84 864.44C221.92 859.88 198.4 853.88 173.2 844.64C161.341 840.303 149.794 835.158 138.64 829.24C129.527 824.392 120.831 818.8 112.64 812.52C107.113 808.289 101.899 803.664 97.0399 798.68C95.3199 796.92 94.0799 795.52 93.0399 794.68C92.5636 794.208 92.1593 793.669 91.8398 793.08C91.8398 793.08 93.8398 794.96 97.4398 798.28C102.511 803.001 107.854 807.422 113.44 811.52C121.712 817.47 130.401 822.817 139.44 827.52C150.566 833.302 162.057 838.352 173.84 842.64C198.88 851.84 222.36 858.04 239.16 863L259.16 868.88L264.56 870.6C265.163 870.778 265.742 871.034 266.28 871.36Z" fill="#FAFAFA"/>
<path d="M267.64 820.72C267.664 821.435 267.474 822.141 267.095 822.748C266.716 823.354 266.165 823.834 265.512 824.126C264.859 824.419 264.134 824.509 263.429 824.388C262.724 824.266 262.071 823.937 261.554 823.442C261.037 822.948 260.679 822.311 260.526 821.612C260.372 820.913 260.43 820.185 260.693 819.52C260.955 818.854 261.41 818.282 261.999 817.876C262.588 817.47 263.285 817.249 264 817.24C264.941 817.229 265.849 817.588 266.53 818.238C267.21 818.889 267.609 819.78 267.64 820.72Z" fill="#FAFAFA"/>
</svg>
