<svg width="214" height="82" viewBox="0 0 214 82" fill="none" xmlns="http://www.w3.org/2000/svg">
<g filter="url(#filter0_d_97_78)">
<path d="M4.79169 8.08524L6.26995 11.2063C7.74821 14.3273 10.7047 20.5693 13.6613 23.7288C16.6178 26.8882 19.5743 26.9649 22.5308 25.9974C25.4873 25.0299 28.4439 23.0182 31.4004 29.3515C34.3569 35.6848 37.3134 50.3632 40.2699 47.4174C43.2265 44.4717 46.183 23.9017 49.1395 12.0298C52.096 0.157967 55.0526 -3.01585 58.0091 6.89268C60.9656 16.8012 63.9221 39.7921 66.8786 50.6985C69.8352 61.6049 72.7917 60.4268 75.7482 52.0857C78.7047 43.7446 81.6613 28.2405 84.6178 22.601C87.5743 16.9615 90.5308 21.1866 93.4873 31.4641C96.4439 41.7415 99.4004 58.0712 102.357 61.554C105.313 65.0368 108.27 55.6726 111.226 51.886C114.183 48.0993 117.14 49.8902 120.096 47.721C123.053 45.5519 126.009 39.4228 128.966 31.2468C131.922 23.0708 134.879 12.8479 137.835 8.45011C140.792 4.0523 143.748 5.4796 146.705 6.22056C149.661 6.96152 152.618 7.01615 155.574 19.2981C158.531 31.5801 161.487 56.0895 164.444 66.6507C167.4 77.2119 170.357 73.8249 173.313 62.1874C176.27 50.5498 179.226 30.6616 182.183 31.1143C185.14 31.5671 188.096 52.3608 191.053 54.8888C194.009 57.4167 196.966 41.679 199.922 38.7168C202.879 35.7546 205.835 45.568 207.313 50.4746L208.792 55.3813" stroke="#18A0FB"/>
</g>
<defs>
<filter id="filter0_d_97_78" x="0.339783" y="0.499817" width="212.931" height="81.0004" filterUnits="userSpaceOnUse" color-interpolation-filters="sRGB">
<feFlood flood-opacity="0" result="BackgroundImageFix"/>
<feColorMatrix in="SourceAlpha" type="matrix" values="0 0 0 0 0 0 0 0 0 0 0 0 0 0 0 0 0 0 127 0" result="hardAlpha"/>
<feOffset dy="4"/>
<feGaussianBlur stdDeviation="2"/>
<feComposite in2="hardAlpha" operator="out"/>
<feColorMatrix type="matrix" values="0 0 0 0 0.2 0 0 0 0 0.588235 0 0 0 0 0.827451 0 0 0 0.62 0"/>
<feBlend mode="normal" in2="BackgroundImageFix" result="effect1_dropShadow_97_78"/>
<feBlend mode="normal" in="SourceGraphic" in2="effect1_dropShadow_97_78" result="shape"/>
</filter>
</defs>
</svg>
